<svg width="123" height="29" viewBox="0 0 123 29" fill="none" xmlns="http://www.w3.org/2000/svg">
<path fill-rule="evenodd" clip-rule="evenodd" d="M2.43633 23.0762C3.78258 23.0762 4.87448 24.1647 4.87448 25.5069C4.87448 26.849 3.78258 27.9358 2.43633 27.9358C1.09008 27.9376 0 26.849 0 25.5069C0 24.1647 1.09008 23.0762 2.43633 23.0762Z" fill="#CD2027"/>
<path fill-rule="evenodd" clip-rule="evenodd" d="M9.18447 3.68359L5.86881 11.5717C5.1003 13.401 5.10757 12.9029 5.86699 14.7396L7.12058 17.6974C7.45124 18.4744 7.89635 18.3657 8.19249 17.7137L8.32875 17.413L11.639 9.57927L9.18447 3.68359Z" fill="#202224"/>
<path fill-rule="evenodd" clip-rule="evenodd" d="M11.9087 10.1141C14.3504 15.9717 16.7468 21.5885 19.145 27.3972C19.2613 27.7051 19.3775 27.9369 19.6864 27.9369H23.7887C24.0976 27.9369 24.3301 27.7051 24.2157 27.3972L13.1077 1.1628C12.9933 0.854889 12.837 0.623047 12.5663 0.623047H10.7096C10.477 0.623047 10.3607 0.854889 10.2445 1.1628L9.18164 3.68952L11.6307 9.59787L11.6761 9.49644L11.9087 10.1141Z" fill="#2F3239"/>
<path d="M37.8684 25.2475C38.11 25.4141 38.1754 25.7474 38.0028 25.9847C36.88 27.5315 35.1486 28.2198 32.5415 28.2198C28.0213 28.2198 25.4941 25.3833 25.4941 21.0997V18.9569C25.4941 14.3563 28.054 11.8984 32.7632 11.8984C34.9688 11.8984 36.8092 12.6229 37.9592 14.0466C38.1536 14.2875 38.1064 14.6425 37.852 14.82L35.6664 16.3415C35.4466 16.4954 35.1486 16.4574 34.9669 16.2618C34.4437 15.6949 33.7206 15.3018 32.6687 15.3018C30.3941 15.3018 29.5075 16.6874 29.5075 19.2087V20.8479C29.5075 23.1156 30.1088 24.8182 32.6687 24.8182C33.6843 24.8182 34.4492 24.5266 35.0069 23.8655C35.1868 23.6517 35.4956 23.6047 35.7246 23.7622L37.8684 25.2475Z" fill="#2F3239"/>
<path d="M40.839 12.1818H42.3287V9.2475C42.3287 8.95407 42.5667 8.7168 42.8611 8.7168H45.8097C46.104 8.7168 46.342 8.95407 46.342 9.2475V12.1818H48.9074C49.2017 12.1818 49.4397 12.419 49.4397 12.7125V15.0544C49.4397 15.3478 49.2017 15.5851 48.9074 15.5851H46.342V22.1709C46.342 23.7467 46.6582 24.4078 48.1443 24.4078H48.9074C49.2017 24.4078 49.4397 24.6451 49.4397 24.9385V27.4054C49.4397 27.6989 49.2017 27.9361 48.9074 27.9361H47.7337C43.9094 27.9361 42.3287 26.8657 42.3287 22.8012V15.5851H40.839C40.5446 15.5851 40.3066 15.3478 40.3066 15.0544V12.7125C40.3066 12.419 40.5446 12.1818 40.839 12.1818Z" fill="#2F3239"/>
<path d="M65.2999 20.9729C65.2999 25.2891 63.2451 28.2198 58.4742 28.2198C53.8922 28.2198 51.6484 25.3833 51.6484 20.9729V19.0819C51.6484 14.3563 54.1447 11.8984 58.4742 11.8984C62.8672 11.8984 65.2999 14.3563 65.2999 19.0819V20.9729ZM61.2866 20.8479V19.2087C61.2866 16.6874 60.4654 15.3018 58.4742 15.3018C56.4829 15.3018 55.6618 16.6874 55.6618 19.2087V20.8479C55.6618 23.1156 56.2304 24.8182 58.4742 24.8182C60.6852 24.8164 61.2866 23.1156 61.2866 20.8479Z" fill="#2F3239"/>
<path d="M68.0401 12.1828H70.9252C71.2195 12.1828 71.4575 12.4201 71.4575 12.7135V13.505C72.0571 12.7171 73.3216 11.8984 75.0911 11.8984C78.2833 11.8984 80.874 13.4108 80.874 18.073V27.4047C80.874 27.6981 80.636 27.9354 80.3417 27.9354H77.3948C77.1005 27.9354 76.8625 27.6981 76.8625 27.4047V18.7052C76.8625 16.2473 75.9777 15.3652 74.3335 15.3652C72.4695 15.3652 71.552 16.5932 71.552 18.6744V27.4065C71.552 27.6999 71.314 27.9372 71.0197 27.9372H68.0401C67.7458 27.9372 67.5078 27.6999 67.5078 27.4065V12.7135C67.5078 12.4201 67.7458 12.1828 68.0401 12.1828Z" fill="#2F3239"/>
<path d="M88.9325 18.4825H92.0611V17.5697C92.0611 15.8055 91.5233 15.2386 89.2487 15.2386C87.9206 15.2386 87.1721 15.4016 86.5689 16.1043C86.3872 16.3144 86.0802 16.3615 85.8531 16.2021L83.8619 14.8129C83.6148 14.6408 83.5621 14.3003 83.7401 14.0594C84.9102 12.4818 86.6452 11.9004 89.6284 11.9004C93.7053 11.9004 96.0126 13.0976 96.0126 17.6041V27.4085C96.0126 27.7019 95.7746 27.9392 95.4803 27.9392H92.5952C92.3009 27.9392 92.0629 27.7019 92.0629 27.4085V26.5535C91.4307 27.624 90.4823 28.2235 88.6491 28.2235C85.3625 28.2235 83.0879 26.4901 83.0879 23.277C83.0843 19.9315 85.6133 18.4825 88.9325 18.4825ZM92.0611 21.444H89.4049C87.7607 21.444 87.034 21.9801 87.034 23.2081C87.034 24.4054 87.9497 24.9723 89.3413 24.9723C91.1745 24.9723 92.0593 24.1844 92.0593 22.0417V21.444H92.0611Z" fill="#2F3239"/>
<path d="M98.7491 12.1818H100.239V9.2475C100.239 8.95407 100.477 8.7168 100.771 8.7168H103.72C104.014 8.7168 104.252 8.95407 104.252 9.2475V12.1818H106.818C107.112 12.1818 107.35 12.419 107.35 12.7125V15.0544C107.35 15.3478 107.112 15.5851 106.818 15.5851H104.252V22.1709C104.252 23.7467 104.568 24.4078 106.054 24.4078H106.818C107.112 24.4078 107.35 24.6451 107.35 24.9385V27.4054C107.35 27.6989 107.112 27.9361 106.818 27.9361H105.644C101.82 27.9361 100.239 26.8657 100.239 22.8012V15.5851H98.7491C98.4548 15.5851 98.2168 15.3478 98.2168 15.0544V12.7125C98.2168 12.419 98.4548 12.1818 98.7491 12.1818Z" fill="#2F3239"/>
<path d="M121.938 25.2511C122.182 25.4195 122.24 25.7564 122.067 25.9973C120.941 27.584 119.182 28.2198 116.575 28.2198C111.835 28.2198 109.559 25.1642 109.559 21.0997V18.9569C109.559 14.1987 111.96 11.8984 116.068 11.8984C120.525 11.8984 122.578 14.4813 122.578 19.2721V20.5364C122.578 20.8298 122.34 21.0671 122.045 21.0671H113.572C113.603 23.2406 114.299 24.8164 116.542 24.8164C117.939 24.8164 118.544 24.465 119.057 23.8546C119.237 23.6409 119.546 23.592 119.776 23.7514L121.938 25.2511ZM113.574 18.1998H118.346C118.448 18.1998 118.532 18.1129 118.524 18.0115C118.388 16.0988 117.572 15.3 116.103 15.3C114.489 15.3018 113.73 16.4049 113.574 18.1998Z" fill="#2F3239"/>
</svg>
