<svg width="90" height="90" viewBox="0 0 90 90" fill="none" xmlns="http://www.w3.org/2000/svg">
<path d="M45 0C20.1877 0 0 20.1877 0 45C0 69.8123 20.1877 90 45 90C69.8123 90 90 69.8123 90 45C90 20.1877 69.8123 0 45 0ZM45 6.75C66.1642 6.75 83.25 23.8358 83.25 45C83.25 66.1642 66.1642 83.25 45 83.25C23.8358 83.25 6.75 66.1642 6.75 45C6.75 23.8358 23.8358 6.75 45 6.75ZM34.6816 25.1499C31.855 25.3258 29.25 27.663 29.25 30.7266V59.2734C29.25 63.3581 33.8809 66.1513 37.4941 64.2524V64.248L64.6128 49.9746V49.979C68.4513 47.9627 68.4517 42.0406 64.6172 40.021H64.6128L37.4941 25.7476C36.5908 25.2729 35.6238 25.0913 34.6816 25.1499ZM36 32.5854L59.5811 45L36 57.4102V32.5854Z" fill="white"/>
</svg>
