<svg width="183" height="131" viewBox="0 0 183 131" fill="none" xmlns="http://www.w3.org/2000/svg">
<path d="M77.4021 98.514C76.6745 86.1717 67.7918 76.4141 56.9395 76.4141C50.0015 76.4141 43.879 80.3926 40.1654 86.5057C37.5432 84.0227 34.1809 82.5271 30.5174 82.5271C22.5883 82.5271 16.0769 89.5404 15.3492 98.485H15.0732C7.58319 98.485 1.52344 105.513 1.52344 114.167C1.52344 122.836 7.59574 129.849 15.0732 129.849H76.4235C83.9135 129.849 89.9733 122.821 89.9733 114.167C89.9858 105.876 84.4405 99.0948 77.4021 98.514Z" fill="#F4F4F4"/>
<path d="M76.4258 130.574H15.0755C7.2593 130.574 0.898438 123.213 0.898438 114.166C0.898438 105.236 7.10875 97.9327 14.787 97.7584C15.2637 93.4894 17.0327 89.5544 19.8054 86.6068C22.7412 83.4994 26.5426 81.786 30.5197 81.786C33.9574 81.786 37.3072 83.0784 40.0422 85.4597C44.0193 79.3321 50.2924 75.6875 56.9418 75.6875C62.3366 75.6875 67.4679 78.0398 71.3949 82.3088C75.1712 86.418 77.5048 91.9067 77.9816 97.8455C81.3439 98.2666 84.4553 100.067 86.7889 102.957C89.2479 106.006 90.6029 109.985 90.6029 114.166C90.6029 123.213 84.2421 130.574 76.4258 130.574ZM15.0755 99.2105C7.94934 99.2105 2.15305 105.919 2.15305 114.166C2.15305 122.414 7.94934 129.122 15.0755 129.122H76.4258C83.552 129.122 89.3483 122.414 89.3483 114.166C89.3483 110.348 88.1188 106.717 85.873 103.944C83.6398 101.171 80.6162 99.5009 77.3543 99.2395C77.0406 99.2105 76.7897 98.92 76.7771 98.5716C76.4384 92.7634 74.2177 87.3619 70.5417 83.3688C66.8406 79.3466 62.0104 77.1395 56.9418 77.1395C50.4806 77.1395 44.4082 80.7987 40.6821 86.9262C40.5817 87.086 40.4311 87.2021 40.2555 87.2312C40.0799 87.2602 39.9042 87.2021 39.7787 87.0714C37.1817 84.6175 33.8946 83.2526 30.5323 83.2526C26.8688 83.2526 23.3685 84.8208 20.6711 87.6813C17.9862 90.5273 16.3301 94.3752 15.9914 98.5425C15.9663 98.92 15.6903 99.1959 15.3641 99.1959H15.0755V99.2105Z" fill="#383A48"/>
<path d="M87.803 111.044C88.198 111.044 88.5182 110.673 88.5182 110.216C88.5182 109.759 88.198 109.389 87.803 109.389C87.4081 109.389 87.0879 109.759 87.0879 110.216C87.0879 110.673 87.4081 111.044 87.803 111.044Z" fill="#383A48"/>
<path d="M87.803 115.097C88.198 115.097 88.5182 114.726 88.5182 114.269C88.5182 113.812 88.198 113.441 87.803 113.441C87.4081 113.441 87.0879 113.812 87.0879 114.269C87.0879 114.726 87.4081 115.097 87.803 115.097Z" fill="#383A48"/>
<path d="M87.803 119.161C88.198 119.161 88.5182 118.791 88.5182 118.334C88.5182 117.876 88.198 117.506 87.803 117.506C87.4081 117.506 87.0879 117.876 87.0879 118.334C87.0879 118.791 87.4081 119.161 87.803 119.161Z" fill="#383A48"/>
<path d="M87.803 123.212C88.198 123.212 88.5182 122.841 88.5182 122.384C88.5182 121.927 88.198 121.557 87.803 121.557C87.4081 121.557 87.0879 121.927 87.0879 122.384C87.0879 122.841 87.4081 123.212 87.803 123.212Z" fill="#383A48"/>
<path d="M84.303 119.161C84.698 119.161 85.0181 118.791 85.0181 118.334C85.0181 117.876 84.698 117.506 84.303 117.506C83.9081 117.506 83.5879 117.876 83.5879 118.334C83.5879 118.791 83.9081 119.161 84.303 119.161Z" fill="#383A48"/>
<path d="M84.303 123.212C84.698 123.212 85.0181 122.841 85.0181 122.384C85.0181 121.927 84.698 121.557 84.303 121.557C83.9081 121.557 83.5879 121.927 83.5879 122.384C83.5879 122.841 83.9081 123.212 84.303 123.212Z" fill="#383A48"/>
<path d="M84.303 127.263C84.698 127.263 85.0181 126.892 85.0181 126.435C85.0181 125.978 84.698 125.607 84.303 125.607C83.9081 125.607 83.5879 125.978 83.5879 126.435C83.5879 126.892 83.9081 127.263 84.303 127.263Z" fill="#383A48"/>
<path d="M80.7893 123.212C81.1843 123.212 81.5044 122.841 81.5044 122.384C81.5044 121.927 81.1843 121.557 80.7893 121.557C80.3944 121.557 80.0742 121.927 80.0742 122.384C80.0742 122.841 80.3944 123.212 80.7893 123.212Z" fill="#383A48"/>
<path d="M80.7893 127.263C81.1843 127.263 81.5044 126.892 81.5044 126.435C81.5044 125.978 81.1843 125.607 80.7893 125.607C80.3944 125.607 80.0742 125.978 80.0742 126.435C80.0742 126.892 80.3944 127.263 80.7893 127.263Z" fill="#383A48"/>
<path d="M77.2913 123.212C77.6863 123.212 78.0064 122.841 78.0064 122.384C78.0064 121.927 77.6863 121.557 77.2913 121.557C76.8963 121.557 76.5762 121.927 76.5762 122.384C76.5762 122.841 76.8963 123.212 77.2913 123.212Z" fill="#383A48"/>
<path d="M77.2913 127.263C77.6863 127.263 78.0064 126.892 78.0064 126.435C78.0064 125.978 77.6863 125.607 77.2913 125.607C76.8963 125.607 76.5762 125.978 76.5762 126.435C76.5762 126.892 76.8963 127.263 77.2913 127.263Z" fill="#383A48"/>
<path d="M73.7913 123.212C74.1862 123.212 74.5064 122.841 74.5064 122.384C74.5064 121.927 74.1862 121.557 73.7913 121.557C73.3963 121.557 73.0762 121.927 73.0762 122.384C73.0762 122.841 73.3963 123.212 73.7913 123.212Z" fill="#383A48"/>
<path d="M73.7913 127.263C74.1862 127.263 74.5064 126.892 74.5064 126.435C74.5064 125.978 74.1862 125.607 73.7913 125.607C73.3963 125.607 73.0762 125.978 73.0762 126.435C73.0762 126.892 73.3963 127.263 73.7913 127.263Z" fill="#383A48"/>
<path d="M70.2776 123.212C70.6726 123.212 70.9927 122.841 70.9927 122.384C70.9927 121.927 70.6726 121.557 70.2776 121.557C69.8827 121.557 69.5625 121.927 69.5625 122.384C69.5625 122.841 69.8827 123.212 70.2776 123.212Z" fill="#383A48"/>
<path d="M70.2776 127.263C70.6726 127.263 70.9927 126.892 70.9927 126.435C70.9927 125.978 70.6726 125.607 70.2776 125.607C69.8827 125.607 69.5625 125.978 69.5625 126.435C69.5625 126.892 69.8827 127.263 70.2776 127.263Z" fill="#383A48"/>
<path d="M66.7776 123.212C67.1726 123.212 67.4928 122.841 67.4928 122.384C67.4928 121.927 67.1726 121.557 66.7776 121.557C66.3827 121.557 66.0625 121.927 66.0625 122.384C66.0625 122.841 66.3827 123.212 66.7776 123.212Z" fill="#383A48"/>
<path d="M66.7776 127.263C67.1726 127.263 67.4928 126.892 67.4928 126.435C67.4928 125.978 67.1726 125.607 66.7776 125.607C66.3827 125.607 66.0625 125.978 66.0625 126.435C66.0625 126.892 66.3827 127.263 66.7776 127.263Z" fill="#383A48"/>
<path d="M63.2757 123.212C63.6706 123.212 63.9908 122.841 63.9908 122.384C63.9908 121.927 63.6706 121.557 63.2757 121.557C62.8807 121.557 62.5605 121.927 62.5605 122.384C62.5605 122.841 62.8807 123.212 63.2757 123.212Z" fill="#383A48"/>
<path d="M63.2757 127.263C63.6706 127.263 63.9908 126.892 63.9908 126.435C63.9908 125.978 63.6706 125.607 63.2757 125.607C62.8807 125.607 62.5605 125.978 62.5605 126.435C62.5605 126.892 62.8807 127.263 63.2757 127.263Z" fill="#383A48"/>
<path d="M59.764 123.212C60.1589 123.212 60.4791 122.841 60.4791 122.384C60.4791 121.927 60.1589 121.557 59.764 121.557C59.369 121.557 59.0488 121.927 59.0488 122.384C59.0488 122.841 59.369 123.212 59.764 123.212Z" fill="#383A48"/>
<path d="M59.764 127.263C60.1589 127.263 60.4791 126.892 60.4791 126.435C60.4791 125.978 60.1589 125.607 59.764 125.607C59.369 125.607 59.0488 125.978 59.0488 126.435C59.0488 126.892 59.369 127.263 59.764 127.263Z" fill="#383A48"/>
<path d="M56.262 123.212C56.657 123.212 56.9771 122.841 56.9771 122.384C56.9771 121.927 56.657 121.557 56.262 121.557C55.867 121.557 55.5469 121.927 55.5469 122.384C55.5469 122.841 55.867 123.212 56.262 123.212Z" fill="#383A48"/>
<path d="M56.262 127.263C56.657 127.263 56.9771 126.892 56.9771 126.435C56.9771 125.978 56.657 125.607 56.262 125.607C55.867 125.607 55.5469 125.978 55.5469 126.435C55.5469 126.892 55.867 127.263 56.262 127.263Z" fill="#383A48"/>
<path d="M52.7503 123.212C53.1452 123.212 53.4654 122.841 53.4654 122.384C53.4654 121.927 53.1452 121.557 52.7503 121.557C52.3553 121.557 52.0352 121.927 52.0352 122.384C52.0352 122.841 52.3553 123.212 52.7503 123.212Z" fill="#383A48"/>
<path d="M52.7503 127.263C53.1452 127.263 53.4654 126.892 53.4654 126.435C53.4654 125.978 53.1452 125.607 52.7503 125.607C52.3553 125.607 52.0352 125.978 52.0352 126.435C52.0352 126.892 52.3553 127.263 52.7503 127.263Z" fill="#383A48"/>
<path d="M49.2503 123.212C49.6452 123.212 49.9654 122.841 49.9654 122.384C49.9654 121.927 49.6452 121.557 49.2503 121.557C48.8553 121.557 48.5352 121.927 48.5352 122.384C48.5352 122.841 48.8553 123.212 49.2503 123.212Z" fill="#383A48"/>
<path d="M49.2503 127.263C49.6452 127.263 49.9654 126.892 49.9654 126.435C49.9654 125.978 49.6452 125.607 49.2503 125.607C48.8553 125.607 48.5352 125.978 48.5352 126.435C48.5352 126.892 48.8553 127.263 49.2503 127.263Z" fill="#383A48"/>
<path d="M45.7483 123.212C46.1433 123.212 46.4635 122.841 46.4635 122.384C46.4635 121.927 46.1433 121.557 45.7483 121.557C45.3534 121.557 45.0332 121.927 45.0332 122.384C45.0332 122.841 45.3534 123.212 45.7483 123.212Z" fill="#383A48"/>
<path d="M45.7483 127.263C46.1433 127.263 46.4635 126.892 46.4635 126.435C46.4635 125.978 46.1433 125.607 45.7483 125.607C45.3534 125.607 45.0332 125.978 45.0332 126.435C45.0332 126.892 45.3534 127.263 45.7483 127.263Z" fill="#383A48"/>
<path d="M42.2386 123.212C42.6335 123.212 42.9537 122.841 42.9537 122.384C42.9537 121.927 42.6335 121.557 42.2386 121.557C41.8436 121.557 41.5234 121.927 41.5234 122.384C41.5234 122.841 41.8436 123.212 42.2386 123.212Z" fill="#383A48"/>
<path d="M42.2386 127.263C42.6335 127.263 42.9537 126.892 42.9537 126.435C42.9537 125.978 42.6335 125.607 42.2386 125.607C41.8436 125.607 41.5234 125.978 41.5234 126.435C41.5234 126.892 41.8436 127.263 42.2386 127.263Z" fill="#383A48"/>
<path d="M38.7366 123.212C39.1316 123.212 39.4517 122.841 39.4517 122.384C39.4517 121.927 39.1316 121.557 38.7366 121.557C38.3417 121.557 38.0215 121.927 38.0215 122.384C38.0215 122.841 38.3417 123.212 38.7366 123.212Z" fill="#383A48"/>
<path d="M38.7366 127.263C39.1316 127.263 39.4517 126.892 39.4517 126.435C39.4517 125.978 39.1316 125.607 38.7366 125.607C38.3417 125.607 38.0215 125.978 38.0215 126.435C38.0215 126.892 38.3417 127.263 38.7366 127.263Z" fill="#383A48"/>
<path d="M35.2347 123.212C35.6296 123.212 35.9498 122.841 35.9498 122.384C35.9498 121.927 35.6296 121.557 35.2347 121.557C34.8397 121.557 34.5195 121.927 34.5195 122.384C34.5195 122.841 34.8397 123.212 35.2347 123.212Z" fill="#383A48"/>
<path d="M35.2347 127.263C35.6296 127.263 35.9498 126.892 35.9498 126.435C35.9498 125.978 35.6296 125.607 35.2347 125.607C34.8397 125.607 34.5195 125.978 34.5195 126.435C34.5195 126.892 34.8397 127.263 35.2347 127.263Z" fill="#383A48"/>
<path d="M31.7229 123.212C32.1179 123.212 32.4381 122.841 32.4381 122.384C32.4381 121.927 32.1179 121.557 31.7229 121.557C31.328 121.557 31.0078 121.927 31.0078 122.384C31.0078 122.841 31.328 123.212 31.7229 123.212Z" fill="#383A48"/>
<path d="M31.7229 127.263C32.1179 127.263 32.4381 126.892 32.4381 126.435C32.4381 125.978 32.1179 125.607 31.7229 125.607C31.328 125.607 31.0078 125.978 31.0078 126.435C31.0078 126.892 31.328 127.263 31.7229 127.263Z" fill="#383A48"/>
<path d="M28.2229 123.212C28.6179 123.212 28.9381 122.841 28.9381 122.384C28.9381 121.927 28.6179 121.557 28.2229 121.557C27.828 121.557 27.5078 121.927 27.5078 122.384C27.5078 122.841 27.828 123.212 28.2229 123.212Z" fill="#383A48"/>
<path d="M28.2229 127.263C28.6179 127.263 28.9381 126.892 28.9381 126.435C28.9381 125.978 28.6179 125.607 28.2229 125.607C27.828 125.607 27.5078 125.978 27.5078 126.435C27.5078 126.892 27.828 127.263 28.2229 127.263Z" fill="#383A48"/>
<path d="M24.7093 123.212C25.1042 123.212 25.4244 122.841 25.4244 122.384C25.4244 121.927 25.1042 121.557 24.7093 121.557C24.3143 121.557 23.9941 121.927 23.9941 122.384C23.9941 122.841 24.3143 123.212 24.7093 123.212Z" fill="#383A48"/>
<path d="M24.7093 127.263C25.1042 127.263 25.4244 126.892 25.4244 126.435C25.4244 125.978 25.1042 125.607 24.7093 125.607C24.3143 125.607 23.9941 125.978 23.9941 126.435C23.9941 126.892 24.3143 127.263 24.7093 127.263Z" fill="#383A48"/>
<path d="M21.2073 123.212C21.6023 123.212 21.9224 122.841 21.9224 122.384C21.9224 121.927 21.6023 121.557 21.2073 121.557C20.8124 121.557 20.4922 121.927 20.4922 122.384C20.4922 122.841 20.8124 123.212 21.2073 123.212Z" fill="#383A48"/>
<path d="M21.2073 127.263C21.6023 127.263 21.9224 126.892 21.9224 126.435C21.9224 125.978 21.6023 125.607 21.2073 125.607C20.8124 125.607 20.4922 125.978 20.4922 126.435C20.4922 126.892 20.8124 127.263 21.2073 127.263Z" fill="#383A48"/>
<path d="M17.7112 123.212C18.1062 123.212 18.4263 122.841 18.4263 122.384C18.4263 121.927 18.1062 121.557 17.7112 121.557C17.3163 121.557 16.9961 121.927 16.9961 122.384C16.9961 122.841 17.3163 123.212 17.7112 123.212Z" fill="#383A48"/>
<path d="M17.7112 127.263C18.1062 127.263 18.4263 126.892 18.4263 126.435C18.4263 125.978 18.1062 125.607 17.7112 125.607C17.3163 125.607 16.9961 125.978 16.9961 126.435C16.9961 126.892 17.3163 127.263 17.7112 127.263Z" fill="#383A48"/>
<path d="M14.1956 123.212C14.5906 123.212 14.9107 122.841 14.9107 122.384C14.9107 121.927 14.5906 121.557 14.1956 121.557C13.8006 121.557 13.4805 121.927 13.4805 122.384C13.4805 122.841 13.8006 123.212 14.1956 123.212Z" fill="#383A48"/>
<path d="M14.1956 127.263C14.5906 127.263 14.9107 126.892 14.9107 126.435C14.9107 125.978 14.5906 125.607 14.1956 125.607C13.8006 125.607 13.4805 125.978 13.4805 126.435C13.4805 126.892 13.8006 127.263 14.1956 127.263Z" fill="#383A48"/>
<path d="M10.6956 123.212C11.0906 123.212 11.4107 122.841 11.4107 122.384C11.4107 121.927 11.0906 121.557 10.6956 121.557C10.3006 121.557 9.98047 121.927 9.98047 122.384C9.98047 122.841 10.3006 123.212 10.6956 123.212Z" fill="#383A48"/>
<path d="M10.6956 127.263C11.0906 127.263 11.4107 126.892 11.4107 126.435C11.4107 125.978 11.0906 125.607 10.6956 125.607C10.3006 125.607 9.98047 125.978 9.98047 126.435C9.98047 126.892 10.3006 127.263 10.6956 127.263Z" fill="#383A48"/>
<path d="M7.18583 119.161C7.58079 119.161 7.90096 118.791 7.90096 118.334C7.90096 117.876 7.58079 117.506 7.18583 117.506C6.79088 117.506 6.4707 117.876 6.4707 118.334C6.4707 118.791 6.79088 119.161 7.18583 119.161Z" fill="#383A48"/>
<path d="M7.18583 123.212C7.58079 123.212 7.90096 122.841 7.90096 122.384C7.90096 121.927 7.58079 121.557 7.18583 121.557C6.79088 121.557 6.4707 121.927 6.4707 122.384C6.4707 122.841 6.79088 123.212 7.18583 123.212Z" fill="#383A48"/>
<path d="M7.18583 127.263C7.58079 127.263 7.90096 126.892 7.90096 126.435C7.90096 125.978 7.58079 125.607 7.18583 125.607C6.79088 125.607 6.4707 125.978 6.4707 126.435C6.4707 126.892 6.79088 127.263 7.18583 127.263Z" fill="#383A48"/>
<path d="M3.68192 111.044C4.07688 111.044 4.39705 110.673 4.39705 110.216C4.39705 109.759 4.07688 109.389 3.68192 109.389C3.28697 109.389 2.9668 109.759 2.9668 110.216C2.9668 110.673 3.28697 111.044 3.68192 111.044Z" fill="#383A48"/>
<path d="M3.68192 115.097C4.07687 115.097 4.39705 114.726 4.39705 114.269C4.39705 113.812 4.07687 113.441 3.68192 113.441C3.28697 113.441 2.9668 113.812 2.9668 114.269C2.9668 114.726 3.28697 115.097 3.68192 115.097Z" fill="#383A48"/>
<path d="M3.68192 119.161C4.07687 119.161 4.39705 118.791 4.39705 118.334C4.39705 117.876 4.07687 117.506 3.68192 117.506C3.28697 117.506 2.9668 117.876 2.9668 118.334C2.9668 118.791 3.28697 119.161 3.68192 119.161Z" fill="#383A48"/>
<path d="M3.68192 123.212C4.07687 123.212 4.39705 122.841 4.39705 122.384C4.39705 121.927 4.07687 121.557 3.68192 121.557C3.28697 121.557 2.9668 121.927 2.9668 122.384C2.9668 122.841 3.28697 123.212 3.68192 123.212Z" fill="#383A48"/>
<path d="M17.4839 99.1962H15.3636C15.0123 99.1962 14.7363 98.8767 14.7363 98.4702C14.7363 98.0636 15.0123 97.7441 15.3636 97.7441H17.4839C17.8352 97.7441 18.1112 98.0636 18.1112 98.4702C18.1112 98.8767 17.8352 99.1962 17.4839 99.1962Z" fill="#383A48"/>
<path d="M77.4047 101.374C77.0534 101.374 76.7773 101.054 76.7773 100.648V98.5131C76.7773 98.1066 77.0534 97.7871 77.4047 97.7871C77.7559 97.7871 78.032 98.1066 78.032 98.5131V100.648C78.032 101.054 77.7559 101.374 77.4047 101.374Z" fill="#383A48"/>
<path d="M41.47 88.4794C41.332 88.4794 41.1815 88.4213 41.0685 88.3051L39.7763 87.0564C39.5128 86.795 39.4752 86.3449 39.701 86.04C39.9268 85.7351 40.3158 85.6915 40.5792 85.9529L41.8715 87.2016C42.135 87.463 42.1726 87.9131 41.9468 88.218C41.8213 88.3922 41.6457 88.4794 41.47 88.4794Z" fill="#383A48"/>
<path d="M115.275 100.283H92.6211V129.509H115.275V100.283Z" fill="#6B6B6B"/>
<path d="M115.276 130.231H92.6218C92.5397 130.232 92.4582 130.214 92.3822 130.178C92.3061 130.142 92.237 130.089 92.1789 130.021C92.1209 129.954 92.0749 129.874 92.0439 129.786C92.0128 129.699 91.9973 129.604 91.9981 129.509V100.284C91.9973 100.189 92.0128 100.095 92.0439 100.007C92.0749 99.9187 92.1209 99.8388 92.1789 99.7717C92.237 99.7045 92.3061 99.6514 92.3822 99.6155C92.4582 99.5796 92.5397 99.5616 92.6218 99.5625H115.276C115.358 99.5616 115.439 99.5796 115.515 99.6155C115.591 99.6514 115.66 99.7045 115.718 99.7717C115.776 99.8388 115.822 99.9187 115.853 100.007C115.885 100.095 115.9 100.189 115.899 100.284V129.509C115.9 129.604 115.885 129.699 115.853 129.786C115.822 129.874 115.776 129.954 115.718 130.021C115.66 130.089 115.591 130.142 115.515 130.178C115.439 130.214 115.358 130.232 115.276 130.231ZM93.2455 128.788H114.652V101.005H93.2455V128.788Z" fill="#383A48"/>
<path d="M149.143 101.425H58.7525C58.112 101.425 57.4777 101.28 56.8859 100.996C56.294 100.713 55.7563 100.297 55.3033 99.7735C54.8504 99.2497 54.4911 98.6279 54.246 97.9435C54.001 97.2591 53.8749 96.5256 53.875 95.7849V34.0016C53.8749 33.2609 54.001 32.5274 54.246 31.843C54.4911 31.1586 54.8504 30.5368 55.3033 30.013C55.7563 29.4893 56.294 29.0738 56.8859 28.7904C57.4777 28.507 58.112 28.3612 58.7525 28.3613H149.156C149.796 28.3612 150.43 28.507 151.022 28.7904C151.614 29.0738 152.152 29.4893 152.605 30.013C153.058 30.5368 153.417 31.1586 153.662 31.843C153.907 32.5274 154.033 33.2609 154.033 34.0016V95.7705C154.029 97.2687 153.512 98.7042 152.596 99.7636C151.68 100.823 150.439 101.42 149.143 101.425Z" fill="white"/>
<path d="M149.142 102.145H58.7513C57.293 102.142 55.8951 101.471 54.8639 100.279C53.8327 99.0863 53.2524 97.4699 53.25 95.7835V34.0002C53.2524 32.3139 53.8327 30.6974 54.8639 29.505C55.8951 28.3125 57.293 27.6414 58.7513 27.6387H149.154C150.613 27.6414 152.01 28.3125 153.042 29.505C154.073 30.6974 154.653 32.3139 154.656 34.0002V95.7691C154.651 97.4584 154.068 99.077 153.035 100.272C152.002 101.466 150.603 102.14 149.142 102.145ZM58.7513 29.0812C57.6235 29.0828 56.5423 29.6016 55.7449 30.5237C54.9475 31.4459 54.4988 32.6961 54.4975 34.0002V95.7691C54.4988 97.0732 54.9475 98.3234 55.7449 99.2456C56.5423 100.168 57.6235 100.686 58.7513 100.688H149.154C150.282 100.686 151.363 100.168 152.161 99.2456C152.958 98.3234 153.407 97.0732 153.408 95.7691V34.0002C153.407 32.6961 152.958 31.4459 152.161 30.5237C151.363 29.6016 150.282 29.0828 149.154 29.0812H58.7513Z" fill="#383A48"/>
<path d="M154.02 87.1426H53.862C53.7799 87.1417 53.6984 87.1597 53.6224 87.1956C53.5463 87.2315 53.4773 87.2846 53.4192 87.3518C53.3611 87.4189 53.3152 87.4988 53.2841 87.5867C53.2531 87.6747 53.2375 87.7689 53.2383 87.8639V95.6679C53.2401 97.3812 53.8295 99.0238 54.8771 100.235C55.9248 101.447 57.3453 102.128 58.8269 102.13H149.055C150.537 102.128 151.957 101.447 153.005 100.235C154.053 99.0238 154.642 97.3812 154.644 95.6679V87.8639C154.643 87.6728 154.577 87.4896 154.461 87.3545C154.344 87.2194 154.185 87.1432 154.02 87.1426Z" fill="#383A48"/>
<path d="M121.906 128.787H85.9922V130.23H121.906V128.787Z" fill="#383A48"/>
<path d="M75.3932 39.6152H70.1445V45.6738H75.3932V39.6152Z" fill="white"/>
<path d="M75.394 46.0225H70.1454C69.9788 46.0225 69.8438 45.8667 69.8438 45.6743V39.6158C69.8438 39.4234 69.9788 39.2676 70.1454 39.2676H75.394C75.5607 39.2676 75.6957 39.4234 75.6957 39.6158V45.6743C75.6957 45.8667 75.5607 46.0225 75.394 46.0225ZM70.447 45.3261H75.0924V39.964H70.447V45.3261Z" fill="#383A47"/>
<path d="M75.394 56.5381H70.1454C69.9788 56.5381 69.8438 56.3823 69.8438 56.1899V50.1314C69.8438 49.9391 69.9788 49.7832 70.1454 49.7832H75.394C75.5607 49.7832 75.6957 49.9391 75.6957 50.1314V56.1899C75.6957 56.3823 75.5607 56.5381 75.394 56.5381ZM70.447 55.8417H75.0924V50.4796H70.447V55.8417Z" fill="#383A47"/>
<path d="M75.394 67.0538H70.1454C69.9788 67.0538 69.8438 66.8979 69.8438 66.7056V60.647C69.8438 60.4547 69.9788 60.2988 70.1454 60.2988H75.394C75.5607 60.2988 75.6957 60.4547 75.6957 60.647V66.7056C75.6957 66.8979 75.5607 67.0538 75.394 67.0538ZM70.447 66.3574H75.0924V60.9952H70.447V66.3574Z" fill="#383A47"/>
<path d="M75.394 77.5694H70.1454C69.9788 77.5694 69.8438 77.4135 69.8438 77.2212V71.1626C69.8438 70.9703 69.9788 70.8145 70.1454 70.8145H75.394C75.5607 70.8145 75.6957 70.9703 75.6957 71.1626V77.2212C75.6957 77.4135 75.5607 77.5694 75.394 77.5694ZM70.447 76.873H75.0924V71.5108H70.447V76.873Z" fill="#383A47"/>
<path d="M99.3453 42.8897H78.954C78.7874 42.8897 78.6523 42.7339 78.6523 42.5415C78.6523 42.3492 78.7874 42.1934 78.954 42.1934H99.3453C99.5119 42.1934 99.6469 42.3492 99.6469 42.5415C99.6469 42.7339 99.5119 42.8897 99.3453 42.8897Z" fill="#383A47"/>
<path d="M99.3453 53.544H78.954C78.7874 53.544 78.6523 53.3882 78.6523 53.1959C78.6523 53.0035 78.7874 52.8477 78.954 52.8477H99.3453C99.5119 52.8477 99.6469 53.0035 99.6469 53.1959C99.6469 53.3882 99.5119 53.544 99.3453 53.544Z" fill="#383A47"/>
<path d="M99.3453 64.1983H78.954C78.7874 64.1983 78.6523 64.0425 78.6523 63.8501C78.6523 63.6578 78.7874 63.502 78.954 63.502H99.3453C99.5119 63.502 99.6469 63.6578 99.6469 63.8501C99.6469 64.0425 99.5119 64.1983 99.3453 64.1983Z" fill="#383A47"/>
<path d="M99.3453 74.8526H78.954C78.7874 74.8526 78.6523 74.6968 78.6523 74.5044C78.6523 74.3121 78.7874 74.1562 78.954 74.1562H99.3453C99.5119 74.1562 99.6469 74.3121 99.6469 74.5044C99.6469 74.6968 99.5119 74.8526 99.3453 74.8526Z" fill="#383A47"/>
<path d="M67.1521 26.273C67.1521 39.9353 57.5527 51.016 45.7146 51.0479L45.6777 26.273V1.49805C57.5435 1.49805 67.1521 12.5894 67.1521 26.273Z" fill="#F4F4F4"/>
<path d="M45.7123 51.579C45.6517 51.5797 45.5915 51.5664 45.5354 51.54C45.4792 51.5135 45.4282 51.4744 45.3853 51.425C45.3424 51.3755 45.3085 51.3167 45.2856 51.2519C45.2626 51.1872 45.2511 51.1178 45.2517 51.0478L45.2149 26.2729V1.49802C45.2143 1.42807 45.2258 1.35868 45.2487 1.29392C45.2716 1.22916 45.3055 1.17032 45.3484 1.12086C45.3913 1.07139 45.4423 1.03229 45.4985 1.00584C45.5547 0.979392 45.6148 0.966127 45.6755 0.966823C51.4955 0.961188 57.079 3.62195 61.1978 8.36378C65.3166 13.1056 67.6333 19.5401 67.6382 26.2517C67.643 32.9633 65.3357 39.4022 61.2239 44.152C57.112 48.9018 51.5323 51.5734 45.7123 51.579ZM46.1361 2.03984V26.2729L46.173 50.506C51.6641 50.3577 56.8867 47.7367 60.7231 43.2038C64.5595 38.6708 66.7049 32.5862 66.7001 26.2521C66.6953 19.9181 64.5407 13.8378 60.6974 9.31265C56.8541 4.78749 51.6274 2.17699 46.1361 2.03984Z" fill="#383A48"/>
<path d="M45.7147 51.047H45.6779C44.496 51.0451 43.3162 50.935 42.1495 50.7177C42.0758 50.7071 42.0113 50.6858 41.9376 50.6752C41.781 50.6433 41.6244 50.6114 41.477 50.5689C38.4046 49.8708 35.504 48.3978 32.983 46.2556C32.9185 46.2025 32.854 46.1388 32.7895 46.0857C32.725 46.0325 32.6606 45.9688 32.5961 45.9157C32.5316 45.8626 32.4671 45.7988 32.4026 45.7457C31.6947 45.1025 31.0239 44.407 30.3943 43.6634C26.4022 39.016 24.1703 32.7333 24.1876 26.1917C24.2049 19.6502 26.4699 13.3833 30.4864 8.76395C32.4792 6.45997 34.8471 4.63285 37.4542 3.3876C40.0613 2.14235 42.856 1.50352 45.6779 1.50783V26.2721L45.7147 51.047Z" fill="white"/>
<path d="M45.7135 51.5791H45.6767C44.47 51.578 43.2654 51.4644 42.0746 51.2391C42.0009 51.2285 41.9272 51.2072 41.8535 51.1966C41.6969 51.1647 41.5403 51.1329 41.3836 51.0904C38.2444 50.3766 35.2809 48.871 32.7054 46.6815L32.5028 46.5115C32.4589 46.4691 32.4128 46.4301 32.3646 46.3946L32.3093 46.3415C32.2448 46.2778 32.1803 46.2246 32.1066 46.1609C31.3832 45.5039 30.697 44.7942 30.0522 44.0361C27.1232 40.6073 25.1016 36.2875 24.2238 31.582C23.3461 26.8766 23.6486 21.9802 25.0959 17.4658C26.2 14.0562 27.9246 10.959 30.1536 8.38236L30.172 8.36111C32.2034 6.00959 34.6187 4.14544 37.2783 2.87631C39.9379 1.60719 42.7892 0.958217 45.6675 0.966883C45.7281 0.966187 45.7883 0.979451 45.8445 1.0059C45.9006 1.03235 45.9516 1.07145 45.9945 1.12091C46.0374 1.17038 46.0713 1.22922 46.0943 1.29398C46.1172 1.35874 46.1287 1.42813 46.1281 1.49808V26.2624L46.1649 51.0373C46.1657 51.1069 46.1538 51.176 46.13 51.2401C46.1062 51.3041 46.0711 51.3617 46.0268 51.4091C45.9445 51.509 45.8327 51.5697 45.7135 51.5791ZM30.7984 9.1579C26.8837 13.6849 24.6785 19.8122 24.663 26.2055C24.6474 32.5988 26.8229 38.7402 30.7155 43.2924C31.3327 44.0187 31.9914 44.6967 32.687 45.3216C32.7515 45.3747 32.816 45.4385 32.8805 45.4916L32.9358 45.5447C32.9818 45.5872 33.0187 45.6191 33.0647 45.6616L33.2582 45.8316C35.7251 47.9257 38.5625 49.3659 41.5679 50.0492C41.7153 50.0811 41.8719 50.113 42.0193 50.1448C42.0838 50.1555 42.1575 50.1767 42.222 50.1873C43.2242 50.3787 44.2372 50.4852 45.2529 50.5061L45.2161 26.273V2.03989C39.7998 2.16221 34.6367 4.70687 30.8169 9.13665C30.8121 9.13702 30.8076 9.13938 30.8042 9.14329C30.8008 9.1472 30.7988 9.15239 30.7984 9.1579Z" fill="#383A48"/>
<path d="M45.6771 1.49807V26.2624L25.5293 17.6464C26.6069 14.3053 28.2975 11.2721 30.4856 8.75419C32.4784 6.4502 34.8464 4.62308 37.4534 3.37783C40.0605 2.13259 42.8553 1.49376 45.6771 1.49807Z" fill="#FB4E4E"/>
<path d="M45.6744 26.8033C45.621 26.804 45.5679 26.7932 45.5178 26.7715L25.3793 18.1555C25.2655 18.1054 25.173 18.0064 25.1213 17.8793C25.0723 17.7513 25.069 17.6063 25.1121 17.4756C26.2162 14.066 27.9408 10.9687 30.1698 8.39213L30.1882 8.37088C32.2196 6.01936 34.6349 4.15521 37.2945 2.88608C39.9541 1.61695 42.8054 0.967982 45.6837 0.976648C45.7443 0.975952 45.8045 0.989217 45.8606 1.01567C45.9168 1.04211 45.9678 1.08122 46.0107 1.13068C46.0536 1.18015 46.0875 1.23898 46.1104 1.30374C46.1334 1.3685 46.1449 1.43789 46.1443 1.50784V26.2721C46.1442 26.3572 46.1266 26.441 46.0929 26.5167C46.0593 26.5925 46.0106 26.6579 45.9508 26.7077C45.8681 26.7683 45.7724 26.8014 45.6744 26.8033ZM26.1255 17.3374L45.2138 25.5072V2.03904C39.7976 2.16135 34.6345 4.70602 30.8147 9.1358L30.7962 9.15705C28.7742 11.4902 27.185 14.2735 26.1255 17.3374Z" fill="#383A48"/>
<path d="M45.7139 51.0486C44.5194 51.0568 43.3266 50.9466 42.1486 50.7192C42.0749 50.7086 42.0104 50.6874 41.9367 50.6767C40.1506 50.3078 38.4113 49.6833 36.7593 48.8176C35.4266 48.1154 34.1582 47.2612 32.9729 46.2678C32.9084 46.2147 32.844 46.151 32.7795 46.0978C32.715 46.0447 32.6505 45.981 32.586 45.9279C32.5215 45.8748 32.457 45.811 32.3925 45.7579C31.6816 45.1188 31.0076 44.4268 30.375 43.6862L45.677 26.2949L45.7139 51.0486Z" fill="#A0A0A0"/>
<path d="M45.6863 51.5797C44.4761 51.58 43.2681 51.4627 42.075 51.2291C42.0013 51.2185 41.9276 51.1972 41.8539 51.1866C40.0282 50.8152 38.2511 50.1761 36.5659 49.2849C36.5567 49.2849 36.5475 49.2743 36.5383 49.2743C35.1859 48.5602 33.8989 47.6918 32.6966 46.6821L32.494 46.5121C32.4501 46.4697 32.404 46.4307 32.3558 46.3952L32.3005 46.3421C32.236 46.2784 32.1715 46.2252 32.0978 46.1615C31.3766 45.5015 30.6906 44.792 30.0434 44.0367C30.0002 43.9867 29.9665 43.9269 29.9443 43.861C29.9221 43.7952 29.9119 43.7248 29.9144 43.6543C29.9171 43.5144 29.9666 43.3811 30.0526 43.2824L45.3454 25.8911C45.4102 25.8192 45.4913 25.77 45.5794 25.7493C45.6675 25.7286 45.7589 25.7372 45.8429 25.7743C45.9271 25.814 45.9992 25.8816 46.0501 25.9686C46.1009 26.0556 46.1282 26.1581 46.1285 26.263L46.1654 51.0379V51.0485C46.166 51.1184 46.1545 51.1878 46.1315 51.2526C46.1086 51.3174 46.0747 51.3762 46.0318 51.4257C45.9889 51.4751 45.9379 51.5142 45.8817 51.5407C45.8256 51.5671 45.7654 51.5804 45.7047 51.5797H45.6863ZM36.9712 48.3394C38.5802 49.1877 40.2769 49.7947 42.0197 50.1455C42.0842 50.1561 42.1579 50.1773 42.2224 50.188C43.2244 50.3823 44.2374 50.4924 45.2533 50.5173L45.2165 27.5485L31.0292 43.6755C31.5543 44.2598 32.107 44.8123 32.669 45.3328C32.7335 45.386 32.798 45.4497 32.8625 45.5028L32.9177 45.5559C32.9638 45.5984 33.0006 45.6303 33.0467 45.6728L33.2402 45.8428C34.3975 46.8129 35.6349 47.6491 36.9344 48.3394C36.9528 48.3288 36.962 48.3288 36.9712 48.3394Z" fill="#383A48"/>
<path d="M45.8168 25.7678L45.5352 26.7793L65.9897 34.3531L66.2713 33.3416L45.8168 25.7678Z" fill="#383A48"/>
<path d="M124.282 89.6035H140.402V129.312H124.282V89.6035Z" fill="#A0A0A0"/>
<path d="M124.282 130.233H140.402C140.508 130.235 140.612 130.212 140.709 130.166C140.807 130.12 140.895 130.052 140.969 129.967C141.044 129.881 141.103 129.779 141.142 129.667C141.182 129.554 141.202 129.434 141.201 129.313V89.6041C141.202 89.4829 141.182 89.3627 141.142 89.2504C141.103 89.1382 141.044 89.0363 140.969 88.9506C140.895 88.8648 140.807 88.7971 140.709 88.7512C140.612 88.7054 140.508 88.6824 140.402 88.6836H124.282C124.177 88.6824 124.073 88.7054 123.975 88.7512C123.878 88.7971 123.789 88.8648 123.715 88.9506C123.641 89.0363 123.582 89.1382 123.542 89.2504C123.502 89.3627 123.482 89.4829 123.483 89.6041V129.313C123.484 129.557 123.568 129.791 123.718 129.963C123.868 130.136 124.071 130.233 124.282 130.233ZM139.603 128.393H125.081V90.5246H139.603V128.393Z" fill="#383A48"/>
<path d="M146.09 103.098H160.133V129.294H146.09V103.098Z" fill="white"/>
<path d="M146.09 130.234H160.133C160.238 130.235 160.342 130.212 160.44 130.166C160.537 130.12 160.626 130.052 160.7 129.967C160.774 129.881 160.833 129.779 160.873 129.667C160.913 129.555 160.933 129.434 160.932 129.313V103.098C160.933 102.977 160.913 102.857 160.873 102.745C160.833 102.632 160.774 102.53 160.7 102.445C160.626 102.359 160.537 102.291 160.44 102.245C160.342 102.2 160.238 102.177 160.133 102.178H146.09C145.984 102.177 145.88 102.2 145.783 102.245C145.685 102.291 145.597 102.359 145.522 102.445C145.448 102.53 145.389 102.632 145.349 102.745C145.31 102.857 145.29 102.977 145.291 103.098V129.295C145.289 129.417 145.309 129.538 145.349 129.652C145.388 129.765 145.447 129.868 145.521 129.956C145.595 130.043 145.683 130.112 145.781 130.16C145.879 130.208 145.984 130.233 146.09 130.234ZM159.334 128.393H146.888V104.019H159.334V128.393Z" fill="#383A48"/>
<path d="M166.156 97.5938H176.094V129.313H166.156V97.5938Z" fill="#F4F4F4"/>
<path d="M166.141 130.234H176.078C176.183 130.235 176.288 130.212 176.385 130.166C176.482 130.121 176.571 130.053 176.645 129.967C176.72 129.881 176.778 129.779 176.818 129.667C176.858 129.555 176.878 129.435 176.877 129.314V97.5943C176.878 97.4731 176.858 97.3529 176.818 97.2407C176.778 97.1285 176.72 97.0265 176.645 96.9408C176.571 96.8551 176.482 96.7873 176.385 96.7415C176.288 96.6957 176.183 96.6727 176.078 96.6739H166.141C166.036 96.6727 165.931 96.6957 165.834 96.7415C165.737 96.7873 165.648 96.8551 165.574 96.9408C165.499 97.0265 165.44 97.1285 165.401 97.2407C165.361 97.3529 165.341 97.4731 165.342 97.5943V129.314C165.343 129.558 165.427 129.791 165.577 129.964C165.726 130.136 165.929 130.233 166.141 130.234ZM175.295 128.393H166.956V98.5148H175.295V128.393Z" fill="#383A48"/>
<path d="M114.919 128.393H182.531V130.233H114.919V128.393Z" fill="#383A48"/>
<path d="M171.153 31.9413C173.496 31.9413 175.394 29.7583 175.394 27.0654C175.394 24.3725 173.496 22.1895 171.153 22.1895C168.811 22.1895 166.912 24.3725 166.912 27.0654C166.912 29.7583 168.811 31.9413 171.153 31.9413Z" fill="#FB4E04"/>
<path d="M171.151 32.9871C170.132 32.9871 169.137 32.6398 168.289 31.9891C167.442 31.3383 166.782 30.4134 166.392 29.3312C166.002 28.2491 165.9 27.0583 166.099 25.9095C166.298 24.7607 166.788 23.7054 167.509 22.8772C168.229 22.0489 169.147 21.4849 170.146 21.2564C171.146 21.0279 172.181 21.1451 173.123 21.5934C174.064 22.0416 174.868 22.8007 175.434 23.7746C176 24.7485 176.303 25.8935 176.303 27.0649C176.301 28.6349 175.757 30.14 174.792 31.2502C173.826 32.3604 172.517 32.985 171.151 32.9871ZM171.151 23.2353C170.492 23.2353 169.848 23.4599 169.301 23.8807C168.753 24.3015 168.326 24.8996 168.074 25.5993C167.822 26.2991 167.756 27.0691 167.884 27.812C168.013 28.5549 168.33 29.2372 168.796 29.7728C169.262 30.3084 169.855 30.6731 170.501 30.8209C171.148 30.9686 171.817 30.8928 172.426 30.603C173.035 30.3131 173.555 29.8223 173.921 29.1925C174.287 28.5627 174.482 27.8223 174.482 27.0649C174.482 26.0493 174.131 25.0756 173.506 24.3575C172.882 23.6394 172.035 23.2358 171.151 23.2353Z" fill="#383A48"/>
<path d="M121.403 58.3304C121.232 58.3351 121.063 58.2821 120.918 58.178C120.772 58.0739 120.656 57.9232 120.584 57.7445C120.482 57.494 120.468 57.2076 120.546 56.9459C120.624 56.6842 120.788 56.4677 121.003 56.3424C121.676 55.9657 122.368 55.6099 123.041 55.296C123.263 55.1921 123.512 55.1933 123.733 55.2996C123.954 55.4058 124.129 55.6083 124.221 55.8629C124.312 56.1174 124.312 56.4032 124.221 56.6578C124.129 56.9124 123.954 57.115 123.733 57.2213C123.078 57.5352 122.422 57.87 121.785 58.2258C121.666 58.2923 121.536 58.328 121.403 58.3304ZM128.575 55.317C128.375 55.3183 128.181 55.2429 128.022 55.1026C127.864 54.9623 127.751 54.7652 127.701 54.5427C127.671 54.4094 127.663 54.2704 127.68 54.1338C127.696 53.9973 127.736 53.8658 127.797 53.7471C127.858 53.6283 127.939 53.5247 128.035 53.4421C128.131 53.3596 128.24 53.2997 128.357 53.2661C129.066 53.0569 129.795 52.8685 130.541 52.7011C130.658 52.6736 130.779 52.6729 130.896 52.6991C131.013 52.7252 131.125 52.7777 131.225 52.8535C131.325 52.9293 131.41 53.0269 131.477 53.1408C131.544 53.2547 131.591 53.3826 131.615 53.5173C131.639 53.6519 131.639 53.7907 131.617 53.9256C131.594 54.0605 131.548 54.189 131.482 54.3036C131.416 54.4183 131.331 54.5169 131.232 54.5938C131.133 54.6707 131.022 54.7245 130.905 54.7519C130.213 54.9193 129.503 55.1077 128.83 55.296C128.746 55.312 128.66 55.319 128.575 55.317ZM136.093 53.8939C135.857 53.8939 135.631 53.7892 135.461 53.6016C135.291 53.4141 135.191 53.1583 135.182 52.8878C135.172 52.6173 135.254 52.3531 135.411 52.1506C135.567 51.9481 135.785 51.8229 136.02 51.8013C136.711 51.7385 137.44 51.6757 138.222 51.6338C138.341 51.6247 138.46 51.6431 138.573 51.6879C138.685 51.7328 138.789 51.8032 138.877 51.8949C138.965 51.9867 139.037 52.098 139.087 52.2221C139.137 52.3462 139.165 52.4806 139.169 52.6174C139.179 52.8937 139.095 53.1637 138.936 53.3706C138.776 53.5775 138.553 53.7051 138.313 53.7265C137.549 53.7684 136.839 53.8312 136.165 53.8939H136.093ZM143.738 53.5173C143.496 53.5228 143.263 53.4179 143.089 53.2256C142.915 53.0333 142.814 52.7693 142.809 52.4918C142.805 52.2143 142.896 51.946 143.063 51.7458C143.23 51.5457 143.46 51.4301 143.701 51.4246C144.539 51.3827 145.23 51.3409 145.849 51.299C146.088 51.282 146.322 51.3734 146.503 51.5534C146.683 51.7335 146.795 51.9878 146.814 52.2616C146.823 52.3978 146.808 52.5345 146.771 52.6641C146.733 52.7937 146.674 52.9134 146.596 53.0165C146.518 53.1196 146.423 53.204 146.317 53.2648C146.211 53.3256 146.095 53.3616 145.977 53.3708C145.339 53.4335 144.63 53.4545 143.774 53.4963C143.765 53.5083 143.752 53.5157 143.738 53.5173ZM151.274 52.3035C151.083 52.3074 150.897 52.2402 150.743 52.1118C150.588 51.9835 150.474 51.8011 150.418 51.592C150.344 51.3283 150.363 51.0416 150.472 50.7945C150.582 50.5474 150.771 50.3601 151 50.2736C151.641 50.0374 152.263 49.7363 152.857 49.3737C153.072 49.2433 153.323 49.2163 153.555 49.2988C153.787 49.3812 153.981 49.5662 154.095 49.8132C154.208 50.0602 154.232 50.3489 154.16 50.6157C154.088 50.8826 153.927 51.1058 153.713 51.2362C153.025 51.6564 152.306 52.0065 151.565 52.2826C151.468 52.3 151.371 52.307 151.274 52.3035ZM157.462 47.3648C157.352 47.3674 157.241 47.3447 157.138 47.298C157.035 47.2513 156.941 47.1815 156.862 47.0927C156.681 46.9064 156.572 46.6455 156.559 46.3671C156.545 46.0887 156.628 45.8154 156.789 45.6069C157.226 45.0419 157.681 44.4141 158.154 43.7235C158.301 43.5043 158.518 43.3613 158.757 43.326C158.996 43.2906 159.238 43.3659 159.428 43.5352C159.619 43.7045 159.743 43.9539 159.774 44.2286C159.805 44.5033 159.739 44.7808 159.592 45C159.101 45.7325 158.627 46.3812 158.154 46.9881C158.07 47.1057 157.965 47.2004 157.845 47.2655C157.725 47.3307 157.595 47.3646 157.462 47.3648ZM161.995 40.2706C161.821 40.2668 161.651 40.2089 161.503 40.1032C161.403 40.0291 161.316 39.9325 161.248 39.8192C161.181 39.7058 161.134 39.578 161.11 39.4433C161.086 39.3086 161.086 39.1698 161.11 39.0351C161.134 38.9004 161.181 38.7726 161.249 38.6592C161.54 38.1361 161.831 37.6338 162.122 37.1316L162.45 36.5666C162.514 36.4509 162.598 36.351 162.696 36.2726C162.794 36.1942 162.905 36.1387 163.021 36.1095C163.138 36.0802 163.259 36.0777 163.376 36.102C163.494 36.1264 163.606 36.1772 163.707 36.2514C163.807 36.3257 163.894 36.422 163.962 36.5348C164.03 36.6477 164.078 36.7749 164.103 36.9091C164.129 37.0433 164.131 37.182 164.109 37.3171C164.088 37.4522 164.044 37.5812 163.979 37.6966L163.651 38.2616C163.36 38.7639 163.069 39.287 162.778 39.8102C162.689 39.9532 162.571 40.0696 162.435 40.1497C162.299 40.2298 162.148 40.2713 161.995 40.2706ZM166.291 32.9881C166.093 32.9926 165.9 32.9187 165.745 32.7788C165.65 32.6955 165.57 32.5914 165.51 32.4724C165.45 32.3534 165.412 32.222 165.396 32.0857C165.381 31.9495 165.39 31.8111 165.421 31.6786C165.453 31.5461 165.507 31.4222 165.581 31.3139C166.09 30.5606 166.564 29.8909 167.037 29.305C167.201 29.1012 167.429 28.9806 167.671 28.9696C167.913 28.9585 168.148 29.0579 168.326 29.246C168.504 29.4341 168.61 29.6956 168.621 29.9733C168.632 30.251 168.547 30.5224 168.384 30.728C167.947 31.2721 167.51 31.879 167.037 32.5905C166.946 32.7159 166.831 32.8166 166.702 32.8853C166.573 32.954 166.433 32.9891 166.291 32.9881Z" fill="#383A48"/>
<path d="M121.405 62.1601C123.748 62.1601 125.646 59.9771 125.646 57.2841C125.646 54.5912 123.748 52.4082 121.405 52.4082C119.063 52.4082 117.164 54.5912 117.164 57.2841C117.164 59.9771 119.063 62.1601 121.405 62.1601Z" fill="white"/>
<path d="M121.405 63.2059C120.386 63.2059 119.39 62.8586 118.543 62.2078C117.696 61.5571 117.036 60.6321 116.646 59.55C116.256 58.4678 116.154 57.277 116.353 56.1282C116.552 54.9794 117.042 53.9242 117.763 53.0959C118.483 52.2677 119.401 51.7036 120.4 51.4751C121.399 51.2466 122.435 51.3639 123.377 51.8121C124.318 52.2604 125.122 53.0195 125.688 53.9934C126.254 54.9673 126.557 56.1123 126.557 57.2836C126.555 58.8536 126.011 60.3588 125.046 61.469C124.08 62.5792 122.771 63.2038 121.405 63.2059ZM121.405 53.454C120.746 53.454 120.102 53.6786 119.555 54.0994C119.007 54.5202 118.58 55.1183 118.328 55.8181C118.076 56.5179 118.01 57.2879 118.138 58.0307C118.267 58.7736 118.584 59.456 119.05 59.9915C119.516 60.5271 120.109 60.8919 120.755 61.0396C121.402 61.1874 122.071 61.1116 122.68 60.8217C123.289 60.5318 123.809 60.041 124.175 59.4112C124.541 58.7814 124.736 58.041 124.736 57.2836C124.736 56.2681 124.385 55.2943 123.76 54.5762C123.136 53.8581 122.289 53.4545 121.405 53.454Z" fill="#383A48"/>
</svg>
