<svg width="237" height="128" viewBox="0 0 237 128" fill="none" xmlns="http://www.w3.org/2000/svg">
<path d="M150.365 3.44286C150.22 3.17632 149.946 3.01953 149.656 3.01953H2.3428C1.89162 3.01953 1.53711 3.36447 1.53711 3.80348V99.9472C1.53711 100.386 1.89162 100.731 2.3428 100.731C2.79399 100.731 3.1485 100.386 3.1485 99.9472C3.1485 82.669 13.5903 78.5767 25.6757 73.8573C37.1166 69.3731 50.1044 64.3088 55.5831 46.6699C57.8552 39.3635 61.6419 35.0518 67.5074 33.0919C72.9378 31.2888 79.5606 31.5553 87.2147 31.8689C96.4802 32.2452 106.986 32.6842 117.799 29.3446C130.303 25.4876 140.922 17.2874 150.285 4.25817C150.478 4.00731 150.51 3.69373 150.365 3.44286Z" fill="#F4F4F4"/>
<path d="M3.91016 15.9229L5.68269 7.83249L7.98697 5.99805H13.4979L14.9804 7.83249L13.2079 15.9229L10.9197 17.7573H5.39264L3.91016 15.9229ZM6.77843 15.0919L7.21351 15.625H9.8723L10.7263 14.9351L11.6771 10.6077L6.77843 15.0919ZM12.096 8.66348L11.6771 8.13039H9.01826L8.14811 8.82027L7.21351 13.132L12.096 8.66348Z" fill="#A0A0A0"/>
<path d="M15.0742 17.6805L15.5415 15.5482H17.2335L18.8288 8.2261H17.1046L17.5719 6.09375H21.9871L19.9245 15.5482H21.6487L21.1814 17.6805H15.0742Z" fill="#A0A0A0"/>
<path d="M22.7461 17.6805L23.2134 15.5482H24.9054L26.5006 8.2261H24.7764L25.2438 6.09375H29.659L27.5964 15.5482H29.2883L28.821 17.6805H22.7461Z" fill="#A0A0A0"/>
<path d="M30.4023 17.6805L30.8696 15.5482H32.5616L34.1569 8.2261H32.4327L32.9 6.09375H37.3152L35.2526 15.5482H36.9607L36.4934 17.6805H30.4023Z" fill="#A0A0A0"/>
<path d="M38.5859 15.9229L40.3585 7.83249L42.6628 5.99805H48.1737L49.6562 7.83249L47.8837 15.9229L45.5955 17.7573H40.0684L38.5859 15.9229ZM41.4703 15.0919L41.9054 15.625H44.5642L45.4182 14.9351L46.369 10.6077L41.4703 15.0919ZM46.7879 8.66348L46.369 8.13039H43.7102L42.84 8.82027L41.9054 13.132L46.7879 8.66348Z" fill="#A0A0A0"/>
<path d="M50.2871 15.9229L52.0596 7.83249L54.3639 5.99805H59.8749L61.3574 7.83249L59.5848 15.9229L57.2967 17.7573H51.7857L50.2871 15.9229ZM53.1715 15.0919L53.6066 15.625H56.2654L57.1194 14.9351L58.0701 10.6077L53.1715 15.0919ZM58.4891 8.66348L58.0701 8.13039H55.4113L54.5412 8.82027L53.6066 13.132L58.4891 8.66348Z" fill="#A0A0A0"/>
<path d="M61.4688 17.6805L61.9361 15.5482H63.628L65.2233 8.2261H63.4991L63.9664 6.09375H68.3816L66.319 15.5482H68.011L67.5437 17.6805H61.4688Z" fill="#A0A0A0"/>
<path d="M69.1211 17.6805L69.5884 15.5482H71.2804L72.8756 8.2261H71.1515L71.6188 6.09375H76.034L73.9714 15.5482H75.6634L75.1961 17.6805H69.1211Z" fill="#A0A0A0"/>
<path d="M77.3086 15.9229L79.0811 7.83249L81.3854 5.99805H86.8964L88.3788 7.83249L86.6063 15.9229L84.3342 17.7573H78.8072L77.3086 15.9229ZM80.193 15.0919L80.628 15.625H83.2868L84.1409 14.9351L85.0916 10.6077L80.193 15.0919ZM85.5106 8.66348L85.0916 8.13039H82.4328L81.5627 8.82027L80.628 13.132L85.5106 8.66348Z" fill="#A0A0A0"/>
<path d="M3.37695 33.2802L3.84426 31.1478H5.53621L7.13149 23.8257H5.4073L5.87461 21.6934H10.2898L8.22723 31.1478H9.91919L9.45189 33.2802H3.37695Z" fill="#A0A0A0"/>
<path d="M11.5664 31.5244L13.3389 23.4341L15.6432 21.5996H21.1542L22.6367 23.4341L20.8641 31.5244L18.576 33.3589H13.0489L11.5664 31.5244ZM14.4508 30.6934L14.8859 31.2265H17.5447L18.3987 30.5367L19.3494 26.2092L14.4508 30.6934ZM19.7684 24.265L19.3494 23.732H16.6906L15.8205 24.4218L14.8859 28.7336L19.7684 24.265Z" fill="#A0A0A0"/>
<path d="M22.7461 33.2782L23.2134 31.1459H24.9054L26.5006 23.8238H24.7764L25.2437 21.6914H29.659L27.5964 31.1459H29.2883L28.821 33.2782H22.7461Z" fill="#A0A0A0"/>
<path d="M30.9316 31.5244L32.7042 23.4341L35.0085 21.5996H40.5194L42.0019 23.4341L40.2294 31.5244L37.9412 33.3589H32.4141L30.9316 31.5244ZM33.7999 30.6934L34.235 31.2265H36.8938L37.7478 30.5367L38.6985 26.2092L33.7999 30.6934ZM39.1175 24.265L38.6985 23.732H36.0397L35.1696 24.4218L34.235 28.7336L39.1175 24.265Z" fill="#A0A0A0"/>
<path d="M42.6328 31.5244L44.4053 23.4341L46.7096 21.5996H52.2206L53.703 23.4341L51.9305 31.5244L49.6423 33.3589H44.1153L42.6328 31.5244ZM45.5172 30.6934L45.9523 31.2265H48.6111L49.4651 30.5367L50.4158 26.2092L45.5172 30.6934ZM50.8348 24.265L50.4158 23.732H47.757L46.8869 24.4218L45.9523 28.7336L50.8348 24.265Z" fill="#A0A0A0"/>
<path d="M3.91016 48.1123L5.68269 40.0219L7.98697 38.1875H13.4979L14.9804 40.0219L13.2079 48.1123L10.9197 49.9468H5.39264L3.91016 48.1123ZM6.77843 47.2813L7.21351 47.8144H9.8723L10.7263 47.1245L11.6771 42.7971L6.77843 47.2813ZM12.096 40.8529L11.6771 40.3198H9.01826L8.14811 41.0097L7.21351 45.3215L12.096 40.8529Z" fill="#A0A0A0"/>
<path d="M15.0742 49.8524L15.5415 47.7201H17.2335L18.8288 40.398H17.1046L17.5719 38.2656H21.9871L19.9245 47.7201H21.6487L21.1814 49.8524H15.0742Z" fill="#A0A0A0"/>
<path d="M22.7461 49.8524L23.2134 47.7201H24.9054L26.4845 40.398H24.7603L25.2276 38.2656H29.6428L27.5803 47.7201H29.2722L28.8049 49.8524H22.7461Z" fill="#A0A0A0"/>
<path d="M235.852 2.78516C235.399 2.78516 235.044 3.13153 235.044 3.57237C235.044 15.7584 229.793 27.3146 219.016 38.9181C209.548 49.0888 197.108 57.937 186.121 65.7304C174.198 74.2008 163.906 81.5061 159.075 88.9373C152.435 99.171 136.876 100.667 118.845 102.414C108.182 103.438 96.1125 104.603 84.7059 107.815C71.6029 111.499 61.2626 117.356 53.0712 125.716C52.845 125.936 52.7804 126.283 52.9096 126.566C53.0389 126.849 53.3297 127.038 53.6528 127.038L235.852 127.558C236.062 127.558 236.272 127.479 236.417 127.322C236.562 127.18 236.659 126.975 236.659 126.771V3.57237C236.659 3.13153 236.304 2.78516 235.852 2.78516Z" fill="#F4F4F4"/>
<path d="M235.85 127.574H10.3352C9.88279 127.574 9.52734 127.228 9.52734 126.787C9.52734 126.346 9.88279 126 10.3352 126H235.85C236.302 126 236.658 126.346 236.658 126.787C236.658 127.228 236.302 127.574 235.85 127.574Z" fill="#383A48"/>
<path d="M236.155 107.783C235.848 107.657 235.509 107.736 235.283 107.956L216.525 126.235C216.298 126.455 216.218 126.802 216.347 127.085C216.476 127.384 216.767 127.573 217.09 127.573H235.848C236.3 127.573 236.656 127.227 236.656 126.786V108.507C236.656 108.192 236.462 107.893 236.155 107.783Z" fill="#383A48"/>
<path d="M121.785 21.8968C121.526 21.8968 121.283 21.7865 121.121 21.5659L117.883 17.1384C117.624 16.7918 117.705 16.2876 118.077 16.0355C118.434 15.7834 118.952 15.8621 119.211 16.2245L122.448 20.652C122.707 20.9987 122.626 21.5029 122.254 21.755C122.108 21.8495 121.946 21.8968 121.785 21.8968Z" fill="#383A48"/>
<path d="M130.528 19.4224C130.123 19.4224 129.783 19.1231 129.719 18.7291L129.023 13.3248C128.974 12.8993 129.282 12.5054 129.719 12.4424C130.156 12.3951 130.56 12.6945 130.625 13.1199L131.321 18.5243C131.37 18.9497 131.062 19.3436 130.625 19.4067C130.593 19.4224 130.56 19.4224 130.528 19.4224Z" fill="#383A48"/>
<path d="M115.099 27.743C115.002 27.743 114.921 27.7272 114.823 27.6957L109.579 25.8365C109.158 25.6946 108.947 25.2377 109.093 24.828C109.239 24.4184 109.708 24.2135 110.129 24.3554L115.39 26.1988C115.811 26.3407 116.021 26.7976 115.876 27.2073C115.746 27.5381 115.439 27.743 115.099 27.743Z" fill="#383A48"/>
<path d="M0.892383 107.794C0.843871 107.794 0.779188 107.794 0.730676 107.779C0.294067 107.685 0.0191647 107.279 0.100018 106.857L0.843871 103.42C1.44219 100.655 4.23972 98.8734 7.10193 99.4515L10.3361 100.108C11.2901 100.295 12.2766 100.123 13.1013 99.5921C13.926 99.0766 14.4758 98.2798 14.686 97.3423L15.3652 94.2177C15.9635 91.4523 18.761 89.6712 21.6232 90.2493L24.8574 90.9055C26.8464 91.2961 28.7868 90.0618 29.2073 88.1557L29.8865 85.031C30.1775 83.6874 30.9861 82.5469 32.1665 81.797C33.347 81.0471 34.7538 80.7815 36.1445 81.0627L39.3948 81.7189C39.8314 81.8126 40.1063 82.2188 40.0255 82.6407C39.9285 83.0625 39.508 83.3281 39.0714 83.25L35.8211 82.5938C34.867 82.4063 33.8806 82.5782 33.0559 83.1094C32.2312 83.6249 31.6814 84.4217 31.4712 85.3591L30.792 88.4838C30.1937 91.2492 27.3962 93.0303 24.534 92.4522L21.2998 91.796C19.3108 91.4054 17.3703 92.6397 16.9499 94.5457L16.2707 97.6704C15.9796 99.0141 15.1711 100.155 13.9907 100.904C12.8102 101.654 11.4033 101.92 10.0127 101.639L6.77852 100.983C4.78952 100.592 2.84904 101.826 2.4286 103.732L1.68475 107.17C1.60389 107.544 1.26431 107.794 0.892383 107.794Z" fill="#383A48"/>
<path d="M227.319 34.7288C232.031 34.7288 235.85 31.0303 235.85 26.4679C235.85 21.9056 232.031 18.207 227.319 18.207C222.607 18.207 218.787 21.9056 218.787 26.4679C218.787 31.0303 222.607 34.7288 227.319 34.7288Z" fill="white"/>
<path d="M227.318 35.5131C222.17 35.5131 217.977 31.4532 217.977 26.4685C217.977 21.4837 222.17 17.4238 227.318 17.4238C232.466 17.4238 236.659 21.4837 236.659 26.4685C236.659 31.4689 232.466 35.5131 227.318 35.5131ZM227.318 18.9914C223.06 18.9914 219.595 22.3459 219.595 26.4685C219.595 30.5911 223.06 33.9456 227.318 33.9456C231.575 33.9456 235.04 30.5911 235.04 26.4685C235.04 22.3459 231.575 18.9914 227.318 18.9914Z" fill="#383A48"/>
<path d="M219.709 26.4671C224.421 26.4671 228.241 22.7686 228.241 18.2062C228.241 13.6438 224.421 9.94531 219.709 9.94531C214.997 9.94531 211.178 13.6438 211.178 18.2062C211.178 22.7686 214.997 26.4671 219.709 26.4671Z" fill="#FB4E4E"/>
<path d="M219.708 27.2514C214.56 27.2514 210.367 23.1915 210.367 18.2068C210.367 13.222 214.56 9.16211 219.708 9.16211C224.856 9.16211 229.049 13.222 229.049 18.2068C229.049 23.1915 224.856 27.2514 219.708 27.2514ZM219.708 10.7296C215.451 10.7296 211.986 14.0842 211.986 18.2068C211.986 22.3294 215.451 25.6839 219.708 25.6839C223.966 25.6839 227.431 22.3294 227.431 18.2068C227.431 14.0842 223.966 10.7296 219.708 10.7296Z" fill="#383A48"/>
<path d="M212.102 18.2073C216.814 18.2073 220.634 14.5088 220.634 9.94644C220.634 5.38407 216.814 1.68555 212.102 1.68555C207.39 1.68555 203.57 5.38407 203.57 9.94644C203.57 14.5088 207.39 18.2073 212.102 18.2073Z" fill="#A0A0A0"/>
<path d="M212.101 18.9897C206.953 18.9897 202.76 14.9298 202.76 9.94505C202.76 4.9603 206.953 0.900391 212.101 0.900391C217.249 0.900391 221.442 4.9603 221.442 9.94505C221.442 14.9298 217.249 18.9897 212.101 18.9897ZM212.101 2.46792C207.843 2.46792 204.379 5.82244 204.379 9.94505C204.379 14.0677 207.843 17.4222 212.101 17.4222C216.359 17.4222 219.823 14.0677 219.823 9.94505C219.823 5.82244 216.359 2.46792 212.101 2.46792Z" fill="#383A48"/>
<path d="M183.046 63.7969H158.879V94.6718H183.046V63.7969Z" fill="#383A48"/>
<path d="M192.776 79.2256H149.168C139.1 79.2256 130.926 71.2828 130.926 61.4997V37.6869C130.926 27.9038 139.1 19.9609 149.168 19.9609H192.776C202.844 19.9609 211.018 27.9038 211.018 37.6869V61.5154C211.018 71.2985 202.844 79.2256 192.776 79.2256Z" fill="#F4F4F4"/>
<path d="M192.774 80.0114H149.167C138.662 80.0114 130.115 71.7067 130.115 61.499V37.6862C130.115 27.4784 138.662 19.1738 149.167 19.1738H192.774C203.28 19.1738 211.826 27.4784 211.826 37.6862V61.5147C211.826 71.7067 203.28 80.0114 192.774 80.0114ZM149.167 20.7467C139.552 20.7467 131.734 28.3435 131.734 37.6862V61.5147C131.734 70.8574 139.552 78.4542 149.167 78.4542H192.774C202.389 78.4542 210.208 70.8574 210.208 61.5147V37.6862C210.208 28.3435 202.389 20.7467 192.774 20.7467H149.167Z" fill="#383A48"/>
<path d="M186.606 32.9355H155.317C148.632 32.9355 143.193 38.2203 143.193 44.7161V54.452C143.193 60.9479 148.632 66.2326 155.317 66.2326H186.606C193.292 66.2326 198.73 60.9479 198.73 54.452V44.7319C198.747 38.2203 193.308 32.9355 186.606 32.9355Z" fill="#383A48"/>
<path d="M155.805 42.75H155.66C153.588 42.75 151.904 44.3858 151.904 46.399V52.769C151.904 54.7823 153.588 56.418 155.66 56.418H155.805C157.877 56.418 159.561 54.7823 159.561 52.769V46.399C159.577 44.3858 157.877 42.75 155.805 42.75Z" fill="white"/>
<path d="M186.284 42.75H186.138C184.066 42.75 182.383 44.3858 182.383 46.399V52.769C182.383 54.7823 184.066 56.418 186.138 56.418H186.284C188.356 56.418 190.039 54.7823 190.039 52.769V46.399C190.039 44.3858 188.356 42.75 186.284 42.75Z" fill="white"/>
<path d="M170.972 54.6557C168.107 54.6557 165.76 52.3908 165.76 49.5911C165.76 49.1507 166.116 48.8047 166.569 48.8047C167.022 48.8047 167.378 49.1507 167.378 49.5911C167.378 51.51 168.981 53.0828 170.972 53.0828C172.963 53.0828 174.565 51.5257 174.565 49.5911C174.565 49.1507 174.921 48.8047 175.375 48.8047C175.828 48.8047 176.184 49.1507 176.184 49.5911C176.184 52.375 173.837 54.6557 170.972 54.6557Z" fill="white"/>
<path d="M170.971 104.092C164.739 104.092 159.705 99.1849 159.705 93.1452V89.1816H182.253V93.1452C182.237 99.1849 177.203 104.092 170.971 104.092Z" fill="#FB4E4E"/>
<path d="M170.974 104.878C164.305 104.878 158.898 99.6089 158.898 93.1445V89.181C158.898 88.7406 159.255 88.3945 159.708 88.3945H182.256C182.709 88.3945 183.065 88.7406 183.065 89.181V93.1445C183.049 99.6089 177.627 104.878 170.974 104.878ZM160.501 89.9516V93.1288C160.501 98.7281 165.195 103.289 170.958 103.289C176.72 103.289 181.414 98.7281 181.414 93.1288V89.9516H160.501Z" fill="#383A48"/>
<path d="M206.373 90.0312H195.059V112.02H206.373C212.621 112.02 217.688 107.097 217.688 101.025C217.688 94.9542 212.621 90.0312 206.373 90.0312Z" fill="#FB4E4E"/>
<path d="M206.372 112.805H195.057C194.604 112.805 194.248 112.459 194.248 112.019V90.0306C194.248 89.5902 194.604 89.2441 195.057 89.2441H206.372C213.057 89.2441 218.496 94.5289 218.496 101.025C218.496 107.521 213.057 112.805 206.372 112.805ZM195.851 111.232H206.356C212.151 111.232 216.861 106.656 216.861 101.025C216.861 95.394 212.151 90.817 206.356 90.817H195.851V111.232Z" fill="#383A48"/>
<path d="M135.57 90.0312H146.885V112.02H135.57C129.322 112.02 124.256 107.097 124.256 101.025C124.256 94.9542 129.322 90.0312 135.57 90.0312Z" fill="#FB4E4E"/>
<path d="M146.884 112.805H135.569C128.884 112.805 123.445 107.521 123.445 101.025C123.445 94.5289 128.884 89.2441 135.569 89.2441H146.884C147.337 89.2441 147.693 89.5902 147.693 90.0306V112.019C147.693 112.459 147.337 112.805 146.884 112.805ZM135.569 90.817C129.774 90.817 125.064 95.394 125.064 101.025C125.064 106.656 129.774 111.232 135.569 111.232H146.074V90.817H135.569Z" fill="#383A48"/>
<path d="M195.692 126.553H146.257C139.523 126.553 134.068 121.252 134.068 114.709V102.96C134.068 95.8193 140.025 90.0312 147.374 90.0312H194.607C201.956 90.0312 207.913 95.8193 207.913 102.96V114.709C207.88 121.252 202.425 126.553 195.692 126.553Z" fill="white"/>
<path d="M195.69 127.338H146.256C139.085 127.338 133.258 121.676 133.258 114.708V102.959C133.258 95.394 139.587 89.2441 147.373 89.2441H194.606C202.392 89.2441 208.721 95.394 208.721 102.959V114.708C208.688 121.676 202.861 127.338 195.69 127.338ZM147.357 90.817C140.461 90.817 134.86 96.259 134.86 102.959V114.708C134.86 120.811 139.959 125.766 146.24 125.766H195.674C201.955 125.766 207.054 120.811 207.054 114.708V102.959C207.054 96.259 201.453 90.817 194.557 90.817H147.357Z" fill="#383A48"/>
<path d="M187.988 126.551H153.947V116.627C153.947 112.569 157.33 109.266 161.523 109.266H180.413C184.589 109.266 187.988 112.553 187.988 116.627V126.551Z" fill="#F4F4F4"/>
<path d="M188.796 127.337H153.137V116.626C153.137 112.128 156.892 108.479 161.521 108.479H180.411C185.041 108.479 188.796 112.128 188.796 116.626V127.337ZM154.772 125.764H187.194V116.626C187.194 113.008 184.167 110.051 180.428 110.051H161.538C157.815 110.051 154.772 112.993 154.772 116.626V125.764Z" fill="#383A48"/>
<path d="M129.543 40.2949L115.263 65.0123L104.109 84.2944L79.9639 126.023L69.5677 98.3918L34.5429 126.32L21.7129 111.079L56.5926 83.2606L32.1091 66.7353L79.5287 53.8754L101.449 47.9232L129.543 40.2949Z" fill="white"/>
<path d="M128.369 41.3438L103.853 83.0877C92.5543 76.9005 84.3019 66.7504 80.7559 54.3447L101.613 48.5961L128.369 41.3438Z" fill="#F4F4F4"/>
<path d="M128.369 41.3438L115.2 63.7586C112.187 62.098 109.539 59.8764 107.41 57.221C105.28 54.5656 103.71 51.5283 102.789 48.2828L128.369 41.3438Z" fill="#F4F4F4"/>
<path d="M34.5423 127.103H34.4617C34.2487 127.081 34.0526 126.98 33.9137 126.821L21.0837 111.581C20.9514 111.42 20.8892 111.215 20.9103 111.01C20.9314 110.805 21.0341 110.616 21.1965 110.484L55.2703 83.3232L31.6572 67.3775C31.5309 67.2936 31.432 67.1762 31.3722 67.0394C31.3124 66.9026 31.2941 66.752 31.3195 66.6054C31.345 66.4588 31.413 66.3223 31.5157 66.2121C31.6184 66.1019 31.7514 66.0226 31.8989 65.9835L101.239 47.1713L129.333 39.543C129.487 39.503 129.649 39.5069 129.801 39.5541C129.952 39.6013 130.086 39.6899 130.187 39.8093C130.284 39.9311 130.341 40.0776 130.352 40.2307C130.364 40.3838 130.329 40.5368 130.252 40.6708L80.6725 126.399C80.5966 126.53 80.483 126.637 80.3456 126.706C80.2082 126.776 80.053 126.805 79.8988 126.79C79.745 126.776 79.5984 126.72 79.4758 126.629C79.3532 126.537 79.2596 126.414 79.2057 126.273L69.1964 99.6762L35.0581 126.931C34.911 127.043 34.7293 127.104 34.5423 127.103ZM22.8405 111.189L34.6552 125.208L69.0674 97.7809C69.1679 97.7025 69.2855 97.6476 69.4113 97.6205C69.5371 97.5933 69.6676 97.5946 69.7927 97.6242C69.9173 97.6569 70.032 97.718 70.1273 97.8025C70.2226 97.8869 70.2958 97.9923 70.3408 98.1098L80.1406 124.143L127.915 41.548L79.7699 54.6116L33.9943 67.0329L57.0755 82.6027C57.1792 82.6697 57.2643 82.7605 57.3233 82.867C57.3824 82.9736 57.4135 83.0926 57.414 83.2136C57.4211 83.3353 57.3986 83.4569 57.3482 83.5685C57.2977 83.6801 57.2209 83.7785 57.1239 83.8558L22.8405 111.189Z" fill="#383A48"/>
<path d="M174.216 7.48938L170.312 11.2852L171.495 12.4352L175.399 8.63945L174.216 7.48938Z" fill="#383A48"/>
<path d="M171.495 7.49251L170.312 8.64258L174.216 12.4378L175.398 11.2877L171.495 7.49251Z" fill="#383A48"/>
<path d="M80.5047 40.2159L76.6016 44.0117L77.7845 45.1618L81.6876 41.366L80.5047 40.2159Z" fill="#383A48"/>
<path d="M77.7843 40.2171L76.6016 41.3672L80.5047 45.1624L81.6874 44.0124L77.7843 40.2171Z" fill="#383A48"/>
<path d="M223.368 78.3605L219.465 82.1562L220.648 83.3063L224.551 79.5106L223.368 78.3605Z" fill="#383A48"/>
<path d="M220.648 78.3617L219.465 79.5117L223.368 83.3069L224.551 82.1569L220.648 78.3617Z" fill="#383A48"/>
</svg>
