<svg width="239" height="125" viewBox="0 0 239 125" fill="none" xmlns="http://www.w3.org/2000/svg">
<path d="M90.8962 1.05859H35.4909C16.7205 1.05859 1.50586 15.6467 1.50586 33.6443V73.3437C5.69416 65.9513 17.9685 43.2495 32.4309 40.8892C70.3821 34.7097 54.4494 15.3681 90.8962 1.05859Z" fill="#F4F4F4" stroke="#F4F4F4" stroke-width="1.66667" stroke-miterlimit="10" stroke-linejoin="round"/>
<path d="M123.07 6.35156L127.053 10.1707" stroke="#383A48" stroke-width="1.66667" stroke-miterlimit="10"/>
<path d="M123.07 10.1707L127.053 6.35156" stroke="#383A48" stroke-width="1.66667" stroke-miterlimit="10"/>
<path d="M33.627 19.5957L37.6101 23.4149" stroke="#383A48" stroke-width="1.66667" stroke-miterlimit="10"/>
<path d="M33.627 23.4149L37.6101 19.5957" stroke="#383A48" stroke-width="1.66667" stroke-miterlimit="10"/>
<path d="M220.376 26.006C219.384 12.0735 207.281 1.05859 192.493 1.05859C183.04 1.05859 174.697 5.54978 169.637 12.4505C166.064 9.64757 161.483 7.95928 156.491 7.95928C145.687 7.95928 136.815 15.8762 135.823 25.9732H135.447C125.241 25.9732 116.984 33.9065 116.984 43.6757C116.984 53.4612 125.258 61.3781 135.447 61.3781H219.042C229.248 61.3781 237.505 53.4448 237.505 43.6757C237.522 34.3163 229.966 26.6616 220.376 26.006Z" fill="#F4F4F4" stroke="#383A48" stroke-width="1.33333" stroke-miterlimit="10" stroke-linejoin="round"/>
<path d="M135.842 25.9551H138.731" stroke="#383A48" stroke-width="1.33333" stroke-miterlimit="10" stroke-linecap="round" stroke-linejoin="round"/>
<path d="M220.375 26.0059V28.4154" stroke="#383A48" stroke-width="1.33333" stroke-miterlimit="10" stroke-linecap="round" stroke-linejoin="round"/>
<path d="M169.656 12.4492L171.417 13.8589" stroke="#383A48" stroke-width="1.33333" stroke-miterlimit="10" stroke-linecap="round" stroke-linejoin="round"/>
<path d="M92.9818 52.7734H1.50586V124.092H92.9818V52.7734Z" fill="#F4F4F4" stroke="#383A48" stroke-width="1.66667" stroke-miterlimit="10" stroke-linejoin="round"/>
<path d="M12.9767 52.7734H1.50586V73.3444H12.9767V52.7734Z" fill="white" stroke="#383A48" stroke-width="1.66667" stroke-miterlimit="10" stroke-linecap="round" stroke-linejoin="round"/>
<path d="M92.9818 52.7734H1.50586V124.092H92.9818V52.7734Z" stroke="#383A48" stroke-width="1.66667" stroke-miterlimit="10" stroke-linejoin="round"/>
<path d="M104.452 52.7734H12.9766V124.092H104.452V52.7734Z" fill="#F4F4F4" stroke="#383A48" stroke-width="1.66667" stroke-miterlimit="10" stroke-linejoin="round"/>
<path d="M104.454 90.1778V124.091H86.5898C84.0255 124.091 81.957 122.108 81.957 119.649V92.5709C81.957 89.8663 84.2478 87.6699 87.0514 87.6699H99.9582C101.634 87.6699 103.189 88.4567 104.146 89.768L104.454 90.1778Z" fill="#383A48" stroke="#383A48" stroke-width="1.66667" stroke-miterlimit="10" stroke-linecap="round" stroke-linejoin="round"/>
<path d="M104.47 52.7734H12.9766V73.3444H104.47V52.7734Z" fill="white" stroke="#383A48" stroke-width="1.66667" stroke-miterlimit="10" stroke-linecap="round" stroke-linejoin="round"/>
<path d="M90.5547 61.1504L94.5379 64.9695" stroke="#383A48" stroke-width="1.33333" stroke-miterlimit="10"/>
<path d="M90.5547 64.9695L94.5379 61.1504" stroke="#383A48" stroke-width="1.33333" stroke-miterlimit="10"/>
<path d="M86.3124 60.9688H81.9531V65.1485H86.3124V60.9688Z" stroke="#383A48" stroke-width="1.33333" stroke-miterlimit="10"/>
<path d="M77.6468 65.1484H73.3047" stroke="#383A48" stroke-width="1.33333" stroke-miterlimit="10"/>
<path d="M90.5566 83.817V110.895C90.5566 113.354 92.6252 115.337 95.1894 115.337H133.038C135.602 115.337 137.671 113.354 137.671 110.895V91.275C137.671 88.8163 135.602 86.833 133.038 86.833H119.635C117.96 86.833 116.404 86.0462 115.447 84.7349L112.746 81.0141C111.789 79.7028 110.233 78.916 108.558 78.916H95.651C92.8474 78.9324 90.5566 81.1288 90.5566 83.817Z" fill="white" stroke="#383A48" stroke-width="1.66667" stroke-miterlimit="10" stroke-linecap="round" stroke-linejoin="round"/>
<path d="M39.7988 87.1443V107.469C39.7988 109.305 41.3545 110.797 43.2691 110.797H71.6813C73.5959 110.797 75.1516 109.305 75.1516 107.469V92.7337C75.1516 90.8979 73.5959 89.4063 71.6813 89.4063H61.6293C60.3814 89.4063 59.2018 88.8162 58.4838 87.8327L56.4495 85.0462C55.7315 84.0627 54.5519 83.4727 53.304 83.4727H43.611C41.5083 83.4727 39.7988 85.1118 39.7988 87.1443Z" fill="#A0A0A0" stroke="#383A48" stroke-width="1.66667" stroke-miterlimit="10" stroke-linecap="round" stroke-linejoin="round"/>
<path d="M147.498 101.373C168.918 101.177 173.277 83.556 170.371 75.5407C168.32 69.9021 160.866 73.623 164.627 78.4256C173.585 89.8502 194.646 88.4406 191.98 70.1152" stroke="#383A48" stroke-width="1.33333" stroke-miterlimit="10" stroke-linecap="round" stroke-linejoin="round"/>
<path d="M147.346 93.7836C149.995 93.7344 152.389 93.423 154.543 92.8984L147.346 93.7836Z" fill="#AAC6FC"/>
<path d="M147.346 93.7836C149.995 93.7344 152.389 93.423 154.543 92.8984" stroke="#383A48" stroke-width="1.33333" stroke-miterlimit="10" stroke-linecap="round" stroke-linejoin="round"/>
<path d="M237.522 76.3438V124.091H151.738C173.654 119.272 184.578 106.127 197.741 100.095C201.006 98.603 204.425 97.5376 208.169 97.1442C215.349 96.4066 221.093 93.6365 225.521 90.3582C233.795 84.2443 237.522 76.3438 237.522 76.3438Z" fill="#F4F4F4" stroke="#F4F4F4" stroke-width="1.66667" stroke-miterlimit="10" stroke-linejoin="round"/>
<path d="M225.537 90.3414C221.093 93.6196 215.349 96.3897 208.186 97.1273C204.442 97.5207 201.023 98.5697 197.758 100.078C197.45 98.9304 197.279 97.7338 197.279 96.4881C197.279 88.6203 203.929 82.2441 212.135 82.2441C218.033 82.2605 223.144 85.5552 225.537 90.3414Z" fill="#FB4E4E" stroke="#FB4E4E" stroke-width="1.66667" stroke-miterlimit="10" stroke-linejoin="round"/>
<path d="M226.99 96.5049C226.99 104.373 220.34 110.749 212.135 110.749C205.211 110.749 199.416 106.225 197.758 100.078C201.023 98.5866 204.442 97.5211 208.186 97.1277C215.366 96.3901 221.11 93.62 225.537 90.3418C226.461 92.2104 226.99 94.3085 226.99 96.5049Z" fill="white" stroke="white" stroke-width="1.66667" stroke-miterlimit="10" stroke-linejoin="round"/>
<path d="M94.5373 20.2207L96.093 23.9907L100.127 22.7941L98.0247 26.3018L101.495 28.5966L97.3238 29.2031L97.6315 33.2353L94.5373 30.498L91.4431 33.2353L91.7508 29.2031L87.5625 28.5966L91.0499 26.3018L88.9472 22.7941L92.9817 23.9907L94.5373 20.2207Z" fill="#FB4E4E" stroke="#FB4E4E" stroke-miterlimit="10" stroke-linecap="round" stroke-linejoin="round"/>
<path d="M1.50586 1.05859L18.618 17.4662" stroke="#FB4E4E" stroke-width="1.66667" stroke-miterlimit="10" stroke-linejoin="round"/>
</svg>
