<svg width="239" height="124" viewBox="0 0 239 124" fill="none" xmlns="http://www.w3.org/2000/svg">
<path d="M22.1741 43.8879H1.37622C0.876787 43.8879 0.484375 43.5111 0.484375 43.0317V23.0652C0.484375 22.5857 0.876787 22.209 1.37622 22.209H22.1741C22.6735 22.209 23.0659 22.5857 23.0659 23.0652V43.0317C23.0659 43.5111 22.6735 43.8879 22.1741 43.8879ZM2.26807 42.1755H21.2822V23.9214H2.26807V42.1755Z" fill="white"/>
<path d="M42.971 43.8879H22.1731C21.6737 43.8879 21.2812 43.5111 21.2812 43.0317V23.0652C21.2812 22.5857 21.6737 22.209 22.1731 22.209H42.971C43.4704 22.209 43.8628 22.5857 43.8628 23.0652V43.0317C43.8628 43.5111 43.4704 43.8879 42.971 43.8879ZM23.0649 42.1755H42.0791V23.9214H23.0649V42.1755Z" fill="white"/>
<path d="M63.7503 43.8879H42.9524C42.453 43.8879 42.0605 43.5111 42.0605 43.0317V23.0652C42.0605 22.5857 42.453 22.209 42.9524 22.209H63.7503C64.2497 22.209 64.6421 22.5857 64.6421 23.0652V43.0317C64.6421 43.5111 64.2497 43.8879 63.7503 43.8879ZM43.8442 42.1755H62.8584V23.9214H43.8442V42.1755Z" fill="white"/>
<path d="M84.5491 43.8879H63.7512C63.2518 43.8879 62.8594 43.5111 62.8594 43.0317V23.0652C62.8594 22.5857 63.2518 22.209 63.7512 22.209H84.5491C85.0485 22.209 85.4409 22.5857 85.4409 23.0652V43.0317C85.4409 43.5111 85.0485 43.8879 84.5491 43.8879ZM64.6431 42.1755H83.6572V23.9214H64.6431V42.1755Z" fill="white"/>
<path d="M105.348 43.8879H84.55C84.0506 43.8879 83.6582 43.5111 83.6582 43.0317V23.0652C83.6582 22.5857 84.0506 22.209 84.55 22.209H105.348C105.847 22.209 106.24 22.5857 106.24 23.0652V43.0317C106.24 43.5111 105.847 43.8879 105.348 43.8879ZM85.4419 42.1755H104.456V23.9214H85.4419V42.1755Z" fill="white"/>
<path d="M126.145 43.8879H105.347C104.847 43.8879 104.455 43.5111 104.455 43.0317V23.0652C104.455 22.5857 104.847 22.209 105.347 22.209H126.145C126.644 22.209 127.037 22.5857 127.037 23.0652V43.0317C127.037 43.5111 126.644 43.8879 126.145 43.8879ZM106.239 42.1755H125.253V23.9214H106.239V42.1755Z" fill="white"/>
<path d="M22.1741 63.8547H1.37622C0.876787 63.8547 0.484375 63.478 0.484375 62.9985V43.032C0.484375 42.5525 0.876787 42.1758 1.37622 42.1758H22.1741C22.6735 42.1758 23.0659 42.5525 23.0659 43.032V62.9985C23.0659 63.478 22.6735 63.8547 22.1741 63.8547ZM2.26807 62.1423H21.2822V43.8882H2.26807V62.1423Z" fill="white"/>
<path d="M42.971 63.8547H22.1731C21.6737 63.8547 21.2812 63.478 21.2812 62.9985V43.032C21.2812 42.5525 21.6737 42.1758 22.1731 42.1758H42.971C43.4704 42.1758 43.8628 42.5525 43.8628 43.032V62.9985C43.8628 63.478 43.4704 63.8547 42.971 63.8547ZM23.0649 62.1423H42.0791V43.8882H23.0649V62.1423Z" fill="white"/>
<path d="M63.7503 63.8547H42.9524C42.453 63.8547 42.0605 63.478 42.0605 62.9985V43.032C42.0605 42.5525 42.453 42.1758 42.9524 42.1758H63.7503C64.2497 42.1758 64.6421 42.5525 64.6421 43.032V62.9985C64.6421 63.478 64.2497 63.8547 63.7503 63.8547ZM43.8442 62.1423H62.8584V43.8882H43.8442V62.1423Z" fill="white"/>
<path d="M84.5491 63.8547H63.7512C63.2518 63.8547 62.8594 63.478 62.8594 62.9985V43.032C62.8594 42.5525 63.2518 42.1758 63.7512 42.1758H84.5491C85.0485 42.1758 85.4409 42.5525 85.4409 43.032V62.9985C85.4409 63.478 85.0485 63.8547 84.5491 63.8547ZM64.6431 62.1423H83.6572V43.8882H64.6431V62.1423Z" fill="white"/>
<path d="M105.348 63.8547H84.55C84.0506 63.8547 83.6582 63.478 83.6582 62.9985V43.032C83.6582 42.5525 84.0506 42.1758 84.55 42.1758H105.348C105.847 42.1758 106.24 42.5525 106.24 43.032V62.9985C106.24 63.478 105.847 63.8547 105.348 63.8547ZM85.4419 62.1423H104.456V43.8882H85.4419V62.1423Z" fill="white"/>
<path d="M126.145 63.8547H105.347C104.847 63.8547 104.455 63.478 104.455 62.9985V43.032C104.455 42.5525 104.847 42.1758 105.347 42.1758H126.145C126.644 42.1758 127.037 42.5525 127.037 43.032V62.9985C127.037 63.478 126.644 63.8547 126.145 63.8547ZM106.239 62.1423H125.253V43.8882H106.239V62.1423Z" fill="white"/>
<path d="M22.1741 83.8215H1.37622C0.876787 83.8215 0.484375 83.4448 0.484375 82.9653V62.9988C0.484375 62.5193 0.876787 62.1426 1.37622 62.1426H22.1741C22.6735 62.1426 23.0659 62.5193 23.0659 62.9988V82.9653C23.0659 83.4448 22.6735 83.8215 22.1741 83.8215ZM2.26807 82.1091H21.2822V63.855H2.26807V82.1091Z" fill="white"/>
<path d="M42.971 83.8215H22.1731C21.6737 83.8215 21.2812 83.4448 21.2812 82.9653V62.9988C21.2812 62.5193 21.6737 62.1426 22.1731 62.1426H42.971C43.4704 62.1426 43.8628 62.5193 43.8628 62.9988V82.9653C43.8628 83.4448 43.4704 83.8215 42.971 83.8215ZM23.0649 82.1091H42.0791V63.855H23.0649V82.1091Z" fill="white"/>
<path d="M63.7503 83.8215H42.9524C42.453 83.8215 42.0605 83.4448 42.0605 82.9653V62.9988C42.0605 62.5193 42.453 62.1426 42.9524 62.1426H63.7503C64.2497 62.1426 64.6421 62.5193 64.6421 62.9988V82.9653C64.6421 83.4448 64.2497 83.8215 63.7503 83.8215ZM43.8442 82.1091H62.8584V63.855H43.8442V82.1091Z" fill="white"/>
<path d="M84.5491 83.8215H63.7512C63.2518 83.8215 62.8594 83.4448 62.8594 82.9653V62.9988C62.8594 62.5193 63.2518 62.1426 63.7512 62.1426H84.5491C85.0485 62.1426 85.4409 62.5193 85.4409 62.9988V82.9653C85.4409 83.4448 85.0485 83.8215 84.5491 83.8215ZM64.6431 82.1091H83.6572V63.855H64.6431V82.1091Z" fill="white"/>
<path d="M105.348 83.8215H84.55C84.0506 83.8215 83.6582 83.4448 83.6582 82.9653V62.9988C83.6582 62.5193 84.0506 62.1426 84.55 62.1426H105.348C105.847 62.1426 106.24 62.5193 106.24 62.9988V82.9653C106.24 83.4448 105.847 83.8215 105.348 83.8215ZM85.4419 82.1091H104.456V63.855H85.4419V82.1091Z" fill="white"/>
<path d="M126.145 83.8215H105.347C104.847 83.8215 104.455 83.4448 104.455 82.9653V62.9988C104.455 62.5193 104.847 62.1426 105.347 62.1426H126.145C126.644 62.1426 127.037 62.5193 127.037 62.9988V82.9653C127.037 83.4448 126.644 83.8215 126.145 83.8215ZM106.239 82.1091H125.253V63.855H106.239V82.1091Z" fill="white"/>
<path d="M22.1741 103.788H1.37622C0.876787 103.788 0.484375 103.412 0.484375 102.932V82.9656C0.484375 82.4861 0.876787 82.1094 1.37622 82.1094H22.1741C22.6735 82.1094 23.0659 82.4861 23.0659 82.9656V102.932C23.0659 103.412 22.6735 103.788 22.1741 103.788ZM2.26807 102.076H21.2822V83.8218H2.26807V102.076Z" fill="white"/>
<path d="M42.971 103.788H22.1731C21.6737 103.788 21.2812 103.412 21.2812 102.932V82.9656C21.2812 82.4861 21.6737 82.1094 22.1731 82.1094H42.971C43.4704 82.1094 43.8628 82.4861 43.8628 82.9656V102.932C43.8628 103.412 43.4704 103.788 42.971 103.788ZM23.0649 102.076H42.0791V83.8218H23.0649V102.076Z" fill="white"/>
<path d="M63.7503 103.788H42.9524C42.453 103.788 42.0605 103.412 42.0605 102.932V82.9656C42.0605 82.4861 42.453 82.1094 42.9524 82.1094H63.7503C64.2497 82.1094 64.6421 82.4861 64.6421 82.9656V102.932C64.6421 103.412 64.2497 103.788 63.7503 103.788ZM43.8442 102.076H62.8584V83.8218H43.8442V102.076Z" fill="white"/>
<path d="M84.5491 103.788H63.7512C63.2518 103.788 62.8594 103.412 62.8594 102.932V82.9656C62.8594 82.4861 63.2518 82.1094 63.7512 82.1094H84.5491C85.0485 82.1094 85.4409 82.4861 85.4409 82.9656V102.932C85.4409 103.412 85.0485 103.788 84.5491 103.788ZM64.6431 102.076H83.6572V83.8218H64.6431V102.076Z" fill="white"/>
<path d="M105.348 103.788H84.55C84.0506 103.788 83.6582 103.412 83.6582 102.932V82.9656C83.6582 82.4861 84.0506 82.1094 84.55 82.1094H105.348C105.847 82.1094 106.24 82.4861 106.24 82.9656V102.932C106.24 103.412 105.847 103.788 105.348 103.788ZM85.4419 102.076H104.456V83.8218H85.4419V102.076Z" fill="white"/>
<path d="M126.145 103.788H105.347C104.847 103.788 104.455 103.412 104.455 102.932V82.9656C104.455 82.4861 104.847 82.1094 105.347 82.1094H126.145C126.644 82.1094 127.037 82.4861 127.037 82.9656V102.932C127.037 103.412 126.644 103.788 126.145 103.788ZM106.239 102.076H125.253V83.8218H106.239V102.076Z" fill="white"/>
<path d="M22.1741 123.738H1.37622C0.876787 123.738 0.484375 123.361 0.484375 122.881V102.915C0.484375 102.435 0.876787 102.059 1.37622 102.059H22.1741C22.6735 102.059 23.0659 102.435 23.0659 102.915V122.881C23.0659 123.361 22.6735 123.738 22.1741 123.738ZM2.26807 122.025H21.2822V103.771H2.26807V122.025Z" fill="white"/>
<path d="M42.971 123.738H22.1731C21.6737 123.738 21.2812 123.361 21.2812 122.881V102.915C21.2812 102.435 21.6737 102.059 22.1731 102.059H42.971C43.4704 102.059 43.8628 102.435 43.8628 102.915V122.881C43.8628 123.361 43.4704 123.738 42.971 123.738ZM23.0649 122.025H42.0791V103.771H23.0649V122.025Z" fill="white"/>
<path d="M63.7503 123.738H42.9524C42.453 123.738 42.0605 123.361 42.0605 122.881V102.915C42.0605 102.435 42.453 102.059 42.9524 102.059H63.7503C64.2497 102.059 64.6421 102.435 64.6421 102.915V122.881C64.6421 123.361 64.2497 123.738 63.7503 123.738ZM43.8442 122.025H62.8584V103.771H43.8442V122.025Z" fill="white"/>
<path d="M84.5491 123.738H63.7512C63.2518 123.738 62.8594 123.361 62.8594 122.881V102.915C62.8594 102.435 63.2518 102.059 63.7512 102.059H84.5491C85.0485 102.059 85.4409 102.435 85.4409 102.915V122.881C85.4409 123.361 85.0485 123.738 84.5491 123.738ZM64.6431 122.025H83.6572V103.771H64.6431V122.025Z" fill="white"/>
<path d="M105.348 123.738H84.55C84.0506 123.738 83.6582 123.361 83.6582 122.881V102.915C83.6582 102.435 84.0506 102.059 84.55 102.059H105.348C105.847 102.059 106.24 102.435 106.24 102.915V122.881C106.24 123.361 105.847 123.738 105.348 123.738ZM85.4419 122.025H104.456V103.771H85.4419V122.025Z" fill="white"/>
<path d="M126.145 123.738H105.347C104.847 123.738 104.455 123.361 104.455 122.881V102.915C104.455 102.435 104.847 102.059 105.347 102.059H126.145C126.644 102.059 127.037 102.435 127.037 102.915V122.881C127.037 123.361 126.644 123.738 126.145 123.738ZM106.239 122.025H125.253V103.771H106.239V122.025Z" fill="white"/>
<path d="M231.681 22.2124C231.272 22.1654 230.88 22.4318 230.798 22.8078C226.647 40.0124 217.021 44.055 208.506 47.6118C203.243 49.8211 198.291 51.8894 195.742 56.8878C189.384 69.376 181.425 77.3515 171.406 81.2688C162.646 84.7003 153.347 84.6063 145.143 84.5279C140.861 84.4809 136.824 84.4496 133.065 84.8726C119.941 86.3298 111.884 94.7754 104.072 102.939C99.7081 107.499 95.2137 112.215 89.853 115.678C83.8877 119.548 77.4811 121.428 70.241 121.428C69.7834 121.428 69.4238 121.773 69.4238 122.212C69.4238 122.651 69.7834 122.995 70.241 122.995H231.599C232.057 122.995 232.416 122.651 232.416 122.212V22.9959C232.4 22.5885 232.089 22.2594 231.681 22.2124Z" fill="#F4F4F4"/>
<path d="M231.646 22.2112C231.221 22.1799 230.845 22.4776 230.78 22.885C229.146 33.5869 226.629 40.732 222.87 45.3856C219.585 49.4596 215.711 51.0891 211.625 52.8127C207.049 54.7557 202.31 56.7456 197.946 62.2141C189.398 72.916 180.508 79.6223 170.751 82.7248C162.187 85.4512 154.146 85.1221 146.366 84.7931C141.725 84.605 137.328 84.417 133.03 84.9027C119.939 86.36 111.866 94.7899 104.74 102.233C104.609 102.374 104.527 102.562 104.527 102.765V122.242C104.527 122.681 104.887 123.025 105.345 123.025H231.564C232.022 123.025 232.382 122.681 232.382 122.242V22.9947C232.398 22.5873 232.071 22.2426 231.646 22.2112Z" fill="#F4F4F4"/>
<path d="M204.877 122.228C204.877 108.079 216.84 96.6094 231.598 96.6094V122.228H204.877Z" fill="#FB4E4E"/>
<path d="M232.091 123.264H105.455C104.996 123.264 104.635 122.918 104.635 122.478V1.03623C104.635 0.595942 104.996 0.25 105.455 0.25H232.091C232.551 0.25 232.911 0.595942 232.911 1.03623V122.478C232.911 122.918 232.551 123.264 232.091 123.264ZM106.275 121.691H231.272V1.82246H106.275V121.691Z" fill="#383A48"/>
<path d="M232.09 1.03516H105.453V22.8924H232.09V1.03516Z" fill="#F4F4F4"/>
<path d="M232.091 23.6797H105.455C104.996 23.6797 104.635 23.3338 104.635 22.8935V1.03623C104.635 0.595942 104.996 0.25 105.455 0.25H232.091C232.551 0.25 232.911 0.595942 232.911 1.03623V22.8935C232.911 23.3181 232.551 23.6797 232.091 23.6797ZM106.275 22.1073H231.272V1.82246H106.275V22.1073Z" fill="#383A48"/>
<path d="M122.033 7.7832H112.539V9.35566H122.033V7.7832Z" fill="#383A48"/>
<path d="M122.033 11.1777H112.539V12.7502H122.033V11.1777Z" fill="#383A48"/>
<path d="M122.033 14.5742H112.539V16.1467H122.033V14.5742Z" fill="#383A48"/>
<path d="M186.328 15.3614H157.288C155.337 15.3614 153.746 13.8361 153.746 11.9649C153.746 10.0936 155.337 8.56836 157.288 8.56836H186.328C188.279 8.56836 189.869 10.0936 189.869 11.9649C189.869 13.8361 188.279 15.3614 186.328 15.3614Z" fill="white"/>
<path d="M186.327 16.1487H157.287C154.877 16.1487 152.926 14.2775 152.926 11.966C152.926 9.65443 154.877 7.7832 157.287 7.7832H186.327C188.738 7.7832 190.689 9.65443 190.689 11.966C190.689 14.2775 188.738 16.1487 186.327 16.1487ZM157.304 9.35567C155.812 9.35567 154.582 10.5193 154.582 11.966C154.582 13.4126 155.795 14.5762 157.304 14.5762H186.344C187.836 14.5762 189.066 13.4126 189.066 11.966C189.066 10.5193 187.852 9.35567 186.344 9.35567H157.304Z" fill="#383A48"/>
<path d="M82.3606 14.7318C82.1967 14.5903 81.9673 14.5117 81.7379 14.5274C81.5085 14.5431 81.2955 14.6532 81.1644 14.8104C77.2155 19.4806 70.8252 26.368 61.125 32.2333C60.9284 32.3434 60.7973 32.5478 60.7481 32.7522C60.7153 32.9724 60.7645 33.1925 60.8956 33.3655C63.6647 36.8564 67.8758 38.8534 72.4473 38.8534C80.4598 38.8534 86.9649 32.595 86.9649 24.9214C86.9813 21.0846 85.2936 17.3578 82.3606 14.7318Z" fill="#383A48"/>
<path d="M92.9638 0.658841C92.8163 0.407246 92.5378 0.25 92.2428 0.25H1.30365C0.844855 0.25 0.484375 0.595942 0.484375 1.03623V122.478C0.484375 122.918 0.844855 123.264 1.30365 123.264C1.76244 123.264 2.12292 122.918 2.12292 122.478C2.12292 92.3178 10.6761 84.3768 19.7537 78.543C25.9473 74.5647 32.3704 70.4448 36.2538 58.5255C40.6287 45.0967 46.7732 41.826 55.2773 37.2973C57.4402 36.1494 59.6686 34.9543 62.0772 33.5076C62.2739 33.3975 62.405 33.1931 62.4541 32.9887C62.4869 32.7686 62.4377 32.5484 62.2903 32.3755C60.5862 30.2369 59.685 27.6581 59.685 24.9534C59.685 18.2075 65.4035 12.7196 72.4328 12.7196C75.6772 12.7196 78.7576 13.8833 81.1171 16.0061C81.281 16.1476 81.5104 16.2262 81.7398 16.2105C81.9692 16.1948 82.1822 16.0847 82.3133 15.9275C85.8525 11.7447 89.4409 6.87008 92.9474 1.4608C93.0949 1.2092 93.0949 0.910435 92.9638 0.658841Z" fill="#F4F4F4"/>
<path d="M82.3643 14.7327C79.6607 12.3111 76.1542 10.9902 72.4511 10.9902C64.4386 10.9902 57.9336 17.2486 57.9336 24.9223C57.9336 28.0043 58.9659 30.9291 60.9157 33.3821L61.3745 33.9482L62.0136 33.5708C66.7654 30.7089 74.0405 25.74 82.4626 15.802L82.9378 15.2359L82.3643 14.7327Z" fill="white"/>
<path d="M21.5069 0.25H1.30365C0.844855 0.25 0.484375 0.595942 0.484375 1.03623V20.4247C0.484375 20.865 0.844855 21.2109 1.30365 21.2109C12.8882 21.2109 22.3262 12.1536 22.3262 1.03623C22.3262 0.611667 21.9657 0.25 21.5069 0.25Z" fill="#FB4E4E"/>
<path d="M35.1999 92.2402H29.7832V93.8143H35.1999V92.2402Z" fill="#383A48"/>
<path d="M33.3133 90.4453H31.6719V95.6398H33.3133V90.4453Z" fill="#383A48"/>
<path d="M197.597 78.5608C195.672 78.5608 195.469 76.8451 195.469 76.121C195.469 75.9123 195.38 75.7121 195.222 75.5645C195.064 75.4169 194.849 75.334 194.625 75.334C194.401 75.334 194.186 75.4169 194.028 75.5645C193.87 75.7121 193.781 75.9123 193.781 76.121C193.781 76.8608 193.578 78.5608 191.653 78.5608C191.429 78.5608 191.214 78.6438 191.056 78.7914C190.898 78.9389 190.809 79.1391 190.809 79.3479C190.809 79.5566 190.898 79.7568 191.056 79.9044C191.214 80.052 191.429 80.1349 191.653 80.1349C193.578 80.1349 193.781 81.8506 193.781 82.5747C193.781 82.7835 193.87 82.9836 194.028 83.1312C194.186 83.2788 194.401 83.3618 194.625 83.3618C194.849 83.3618 195.064 83.2788 195.222 83.1312C195.38 82.9836 195.469 82.7835 195.469 82.5747C195.469 81.8349 195.672 80.1349 197.597 80.1349C197.708 80.1359 197.818 80.1163 197.921 80.0771C198.024 80.0379 198.118 79.98 198.196 79.9067C198.275 79.8334 198.337 79.7462 198.379 79.6503C198.421 79.5543 198.442 79.4515 198.441 79.3479C198.441 79.1393 198.351 78.9395 198.193 78.792C198.035 78.6446 197.821 78.5615 197.597 78.5608Z" fill="#383A48"/>
<path d="M209.413 35.3519C207.488 35.3519 207.286 33.6361 207.286 32.912C207.286 32.7033 207.197 32.5031 207.038 32.3555C206.88 32.2079 206.665 32.125 206.441 32.125C206.217 32.125 206.003 32.2079 205.844 32.3555C205.686 32.5031 205.597 32.7033 205.597 32.912C205.597 33.6519 205.394 35.3519 203.469 35.3519C203.245 35.3519 203.031 35.4348 202.872 35.5824C202.714 35.73 202.625 35.9302 202.625 36.1389C202.625 36.3476 202.714 36.5478 202.872 36.6954C203.031 36.843 203.245 36.9259 203.469 36.9259C205.394 36.9259 205.597 38.6417 205.597 39.3657C205.597 39.5745 205.686 39.7747 205.844 39.9223C206.003 40.0699 206.217 40.1528 206.441 40.1528C206.665 40.1528 206.88 40.0699 207.038 39.9223C207.197 39.7747 207.286 39.5745 207.286 39.3657C207.286 38.6259 207.488 36.9259 209.413 36.9259C209.525 36.927 209.635 36.9073 209.738 36.8681C209.841 36.8289 209.934 36.771 210.013 36.6977C210.091 36.6244 210.154 36.5372 210.196 36.4413C210.238 36.3453 210.259 36.2425 210.258 36.1389C210.257 35.9303 210.168 35.7305 210.01 35.5831C209.851 35.4356 209.637 35.3525 209.413 35.3519Z" fill="#F3F6E6"/>
<path d="M58.2541 60.456C58.0581 60.456 57.8456 60.3935 57.6986 60.2526C51.4569 54.6661 50.1007 50.3002 50.0517 47.6243C50.0517 47.2487 50.068 46.8888 50.1007 46.5289C47.1432 45.5744 43.4995 42.8202 38.7937 38.0944C32.7971 32.0854 27.5848 26.6397 27.5357 26.5928C27.2253 26.2798 27.258 25.779 27.5848 25.4817C27.9116 25.1844 28.4344 25.2157 28.7449 25.5287C28.7939 25.5756 34.0062 31.0213 39.9865 37.0146C44.4635 41.4901 47.8622 44.1034 50.4765 44.9954C50.8196 44.0252 51.3752 43.1488 52.1105 42.4447C53.0745 41.5214 54.2019 41.1771 55.215 41.5057C56.0483 41.7718 56.6365 42.4603 56.7672 43.2897C56.9143 44.2755 56.3914 45.2927 55.362 45.9969C54.2836 46.7323 53.0908 47.0297 51.7346 46.8888C51.7183 47.1235 51.702 47.3583 51.702 47.6087C51.7346 49.9872 53.0091 53.8993 58.826 59.1259C59.1528 59.4232 59.1692 59.9083 58.8587 60.237C58.6953 60.3622 58.4829 60.456 58.2541 60.456ZM52.0778 45.3083C52.9601 45.3553 53.7281 45.1518 54.398 44.698C54.9372 44.3381 55.1986 43.9 55.1333 43.5088C55.1006 43.2584 54.9209 43.0549 54.6758 42.9767C54.2673 42.8515 53.7444 43.0549 53.2379 43.5401C52.7314 44.0408 52.3392 44.6354 52.0778 45.3083Z" fill="#383A48"/>
<path d="M76.8133 112.156H71.1504V113.802H76.8133V112.156Z" fill="#383A48"/>
<path d="M74.8371 110.279H73.1211V115.71H74.8371V110.279Z" fill="#383A48"/>
<path d="M178.155 78.7527H87.8105L98.8966 41.0214C101.225 35.557 106.768 31.998 112.902 31.998H180.566C186.535 31.998 190.602 37.8089 188.339 43.1316L178.155 78.7527Z" fill="#F4F4F4"/>
<path d="M178.156 79.5442H87.8118C87.5494 79.5442 87.3198 79.434 87.1558 79.2293C87.0082 79.0403 86.959 78.7726 87.0246 78.5364L98.1106 40.8051C98.127 40.7736 98.127 40.7421 98.1434 40.7264C100.603 34.947 106.409 31.2148 112.919 31.2148H180.583C183.666 31.2148 186.52 32.6794 188.242 35.136C189.947 37.5769 190.275 40.6634 189.144 43.3877L178.96 78.9773C178.845 79.308 178.517 79.5442 178.156 79.5442ZM88.8941 77.9695H177.533L187.553 42.9153C187.57 42.8838 187.57 42.8523 187.586 42.8208C188.554 40.5374 188.291 38.0493 186.864 36.0021C185.438 33.9549 183.142 32.7739 180.567 32.7739H112.903C107.081 32.7739 101.882 36.1123 99.6686 41.2776L88.8941 77.9695Z" fill="#383A48"/>
<path d="M63.7685 82.2988L57.3891 102.645H53.7812L60.1442 82.2988H63.7685Z" fill="white"/>
<path d="M57.3884 103.432H53.7805C53.5181 103.432 53.2721 103.322 53.1245 103.117C52.977 102.913 52.9278 102.661 52.9934 102.425L59.3727 82.0786C59.4711 81.7479 59.7991 81.5117 60.1599 81.5117H63.7842C64.0465 81.5117 64.2925 81.622 64.4401 81.8267C64.5877 82.0314 64.6369 82.2833 64.5713 82.5196L58.192 102.865C58.0772 103.196 57.7492 103.432 57.3884 103.432ZM54.8793 101.858H56.7816L62.669 83.0865H60.7667L54.8793 101.858Z" fill="#383A48"/>
<path d="M57.6855 91.5585H61.2934L63.7697 82.7871H60.0799L57.6855 91.5585Z" fill="#383A48"/>
<path d="M88.9573 82.2988L83.8079 102.645H80.1836L85.3494 82.2988H88.9573Z" fill="white"/>
<path d="M83.8099 103.432H80.1856C79.9397 103.432 79.6937 103.322 79.5461 103.133C79.3985 102.944 79.3329 102.692 79.3985 102.456L84.5479 82.1101C84.6299 81.7637 84.9743 81.5117 85.3515 81.5117H88.9758C89.2218 81.5117 89.4677 81.622 89.6153 81.8109C89.7629 81.9999 89.8285 82.2519 89.7629 82.4881L84.6135 102.818C84.5151 103.18 84.1871 103.432 83.8099 103.432ZM81.2352 101.858H83.1703L87.9262 83.0865H85.9911L81.2352 101.858Z" fill="#383A48"/>
<path d="M83.5645 91.5585H87.1723L89.1894 82.7871H85.4996L83.5645 91.5585Z" fill="#383A48"/>
<path d="M57.1895 85.8424H171.51C174.38 85.8424 176.856 83.9527 177.528 81.2756L178.152 78.7402H57.1895C55.6643 78.7402 54.3032 79.6378 53.7456 81.0079C52.8108 83.3385 54.5984 85.8424 57.1895 85.8424Z" fill="#F4F4F4"/>
<path d="M171.512 86.6281H57.1918C55.6994 86.6281 54.3055 85.9194 53.4691 84.7384C52.6327 83.5573 52.4523 82.0613 52.9771 80.7227C53.6495 79.0693 55.3386 77.9512 57.1918 77.9512H178.154C178.4 77.9512 178.646 78.0614 178.793 78.2504C178.941 78.4393 179.007 78.6913 178.941 78.9275L178.318 81.4629C177.564 84.5022 174.776 86.6281 171.512 86.6281ZM57.1918 79.5417C56.011 79.5417 54.9451 80.2503 54.5187 81.3054C54.1743 82.1715 54.2891 83.1006 54.8303 83.8565C55.3714 84.6124 56.2406 85.0533 57.2082 85.0533H171.529C174.021 85.0533 176.17 83.4313 176.744 81.1007L177.137 79.5417H57.1918Z" fill="#383A48"/>
<path d="M199.422 101.857H53.3359V103.432H199.422V101.857Z" fill="#383A48"/>
<path d="M188.504 43.1199L178.32 78.7567H105.293V34.0493C107.589 32.7265 110.262 31.9863 113.066 31.9863H180.73C181.222 31.9863 181.698 32.0178 182.157 32.0966C187.323 32.9469 190.586 38.2539 188.504 43.1199Z" fill="white"/>
<path d="M178.94 79.5424H104.471V33.6066L104.864 33.3704C107.341 31.9532 110.178 31.1973 113.048 31.1973H180.712C181.236 31.1973 181.761 31.2445 182.286 31.3232C185.041 31.7642 187.403 33.3862 188.78 35.7641C190.141 38.1105 190.322 40.882 189.272 43.3702L178.94 79.5424ZM106.111 77.9676H177.678L187.714 42.8662L187.731 42.819C188.616 40.7561 188.469 38.4727 187.353 36.5357C186.222 34.583 184.27 33.2602 182.024 32.8823C181.597 32.8193 181.171 32.772 180.728 32.772H113.064C110.637 32.772 108.243 33.3704 106.111 34.5043V77.9676Z" fill="#383A48"/>
<path d="M178.205 39.8106C178.64 39.8106 178.992 39.4722 178.992 39.0547C178.992 38.6372 178.64 38.2988 178.205 38.2988C177.77 38.2988 177.418 38.6372 177.418 39.0547C177.418 39.4722 177.77 39.8106 178.205 39.8106Z" fill="#383A48"/>
<path d="M178.205 50.2833C178.64 50.2833 178.992 49.9448 178.992 49.5274C178.992 49.1099 178.64 48.7715 178.205 48.7715C177.77 48.7715 177.418 49.1099 177.418 49.5274C177.418 49.9448 177.77 50.2833 178.205 50.2833Z" fill="#383A48"/>
<path d="M178.205 60.7403C178.64 60.7403 178.992 60.4019 178.992 59.9844C178.992 59.5669 178.64 59.2285 178.205 59.2285C177.77 59.2285 177.418 59.5669 177.418 59.9844C177.418 60.4019 177.77 60.7403 178.205 60.7403Z" fill="#383A48"/>
<path d="M178.205 71.1954C178.64 71.1954 178.992 70.8569 178.992 70.4395C178.992 70.022 178.64 69.6836 178.205 69.6836C177.77 69.6836 177.418 70.022 177.418 70.4395C177.418 70.8569 177.77 71.1954 178.205 71.1954Z" fill="#383A48"/>
<path d="M167.299 39.8106C167.734 39.8106 168.086 39.4721 168.086 39.0547C168.086 38.6372 167.734 38.2988 167.299 38.2988C166.864 38.2988 166.512 38.6372 166.512 39.0547C166.512 39.4721 166.864 39.8106 167.299 39.8106Z" fill="#383A48"/>
<path d="M167.299 50.2832C167.734 50.2832 168.086 49.9448 168.086 49.5274C168.086 49.1099 167.734 48.7715 167.299 48.7715C166.864 48.7715 166.512 49.1099 166.512 49.5274C166.512 49.9448 166.864 50.2832 167.299 50.2832Z" fill="#383A48"/>
<path d="M167.299 60.7403C167.734 60.7403 168.086 60.4019 168.086 59.9844C168.086 59.5669 167.734 59.2285 167.299 59.2285C166.864 59.2285 166.512 59.5669 166.512 59.9844C166.512 60.4019 166.864 60.7403 167.299 60.7403Z" fill="#383A48"/>
<path d="M167.299 71.1973C167.734 71.1973 168.086 70.8589 168.086 70.4414C168.086 70.024 167.734 69.6855 167.299 69.6855C166.864 69.6855 166.512 70.024 166.512 70.4414C166.512 70.8589 166.864 71.1973 167.299 71.1973Z" fill="#383A48"/>
<path d="M156.41 39.8106C156.845 39.8106 157.197 39.4721 157.197 39.0547C157.197 38.6372 156.845 38.2988 156.41 38.2988C155.975 38.2988 155.623 38.6372 155.623 39.0547C155.623 39.4721 155.975 39.8106 156.41 39.8106Z" fill="#383A48"/>
<path d="M156.41 50.2832C156.845 50.2832 157.197 49.9448 157.197 49.5274C157.197 49.1099 156.845 48.7715 156.41 48.7715C155.975 48.7715 155.623 49.1099 155.623 49.5274C155.623 49.9448 155.975 50.2832 156.41 50.2832Z" fill="#383A48"/>
<path d="M156.41 60.7403C156.845 60.7403 157.197 60.4019 157.197 59.9844C157.197 59.5669 156.845 59.2285 156.41 59.2285C155.975 59.2285 155.623 59.5669 155.623 59.9844C155.623 60.4019 155.975 60.7403 156.41 60.7403Z" fill="#383A48"/>
<path d="M156.41 71.1973C156.845 71.1973 157.197 70.8589 157.197 70.4414C157.197 70.024 156.845 69.6855 156.41 69.6855C155.975 69.6855 155.623 70.024 155.623 70.4414C155.623 70.8589 155.975 71.1973 156.41 71.1973Z" fill="#383A48"/>
<path d="M145.522 39.8106C145.956 39.8106 146.309 39.4722 146.309 39.0547C146.309 38.6372 145.956 38.2988 145.522 38.2988C145.087 38.2988 144.734 38.6372 144.734 39.0547C144.734 39.4722 145.087 39.8106 145.522 39.8106Z" fill="#383A48"/>
<path d="M145.522 50.2833C145.956 50.2833 146.309 49.9448 146.309 49.5274C146.309 49.1099 145.956 48.7715 145.522 48.7715C145.087 48.7715 144.734 49.1099 144.734 49.5274C144.734 49.9448 145.087 50.2833 145.522 50.2833Z" fill="#383A48"/>
<path d="M145.522 60.7403C145.956 60.7403 146.309 60.4019 146.309 59.9844C146.309 59.5669 145.956 59.2285 145.522 59.2285C145.087 59.2285 144.734 59.5669 144.734 59.9844C144.734 60.4019 145.087 60.7403 145.522 60.7403Z" fill="#383A48"/>
<path d="M145.522 71.1954C145.956 71.1954 146.309 70.8569 146.309 70.4395C146.309 70.022 145.956 69.6836 145.522 69.6836C145.087 69.6836 144.734 70.022 144.734 70.4395C144.734 70.8569 145.087 71.1954 145.522 71.1954Z" fill="#383A48"/>
<path d="M134.613 39.8106C135.048 39.8106 135.4 39.4721 135.4 39.0547C135.4 38.6372 135.048 38.2988 134.613 38.2988C134.179 38.2988 133.826 38.6372 133.826 39.0547C133.826 39.4721 134.179 39.8106 134.613 39.8106Z" fill="#383A48"/>
<path d="M134.613 50.2832C135.048 50.2832 135.4 49.9448 135.4 49.5274C135.4 49.1099 135.048 48.7715 134.613 48.7715C134.179 48.7715 133.826 49.1099 133.826 49.5274C133.826 49.9448 134.179 50.2832 134.613 50.2832Z" fill="#383A48"/>
<path d="M134.613 60.7403C135.048 60.7403 135.4 60.4019 135.4 59.9844C135.4 59.5669 135.048 59.2285 134.613 59.2285C134.179 59.2285 133.826 59.5669 133.826 59.9844C133.826 60.4019 134.179 60.7403 134.613 60.7403Z" fill="#383A48"/>
<path d="M134.613 71.1973C135.048 71.1973 135.4 70.8589 135.4 70.4414C135.4 70.024 135.048 69.6855 134.613 69.6855C134.179 69.6855 133.826 70.024 133.826 70.4414C133.826 70.8589 134.179 71.1973 134.613 71.1973Z" fill="#383A48"/>
<path d="M123.725 39.8106C124.159 39.8106 124.512 39.4721 124.512 39.0547C124.512 38.6372 124.159 38.2988 123.725 38.2988C123.29 38.2988 122.938 38.6372 122.938 39.0547C122.938 39.4721 123.29 39.8106 123.725 39.8106Z" fill="#383A48"/>
<path d="M123.725 50.2832C124.159 50.2832 124.512 49.9448 124.512 49.5274C124.512 49.1099 124.159 48.7715 123.725 48.7715C123.29 48.7715 122.938 49.1099 122.938 49.5274C122.938 49.9448 123.29 50.2832 123.725 50.2832Z" fill="#383A48"/>
<path d="M123.725 60.7403C124.159 60.7403 124.512 60.4019 124.512 59.9844C124.512 59.5669 124.159 59.2285 123.725 59.2285C123.29 59.2285 122.938 59.5669 122.938 59.9844C122.938 60.4019 123.29 60.7403 123.725 60.7403Z" fill="#383A48"/>
<path d="M123.725 71.1973C124.159 71.1973 124.512 70.8589 124.512 70.4414C124.512 70.024 124.159 69.6855 123.725 69.6855C123.29 69.6855 122.938 70.024 122.938 70.4414C122.938 70.8589 123.29 71.1973 123.725 71.1973Z" fill="#383A48"/>
<path d="M112.82 39.8106C113.255 39.8106 113.608 39.4722 113.608 39.0547C113.608 38.6372 113.255 38.2988 112.82 38.2988C112.386 38.2988 112.033 38.6372 112.033 39.0547C112.033 39.4722 112.386 39.8106 112.82 39.8106Z" fill="#383A48"/>
<path d="M112.82 50.2833C113.255 50.2833 113.608 49.9448 113.608 49.5274C113.608 49.1099 113.255 48.7715 112.82 48.7715C112.386 48.7715 112.033 49.1099 112.033 49.5274C112.033 49.9448 112.386 50.2833 112.82 50.2833Z" fill="#383A48"/>
<path d="M112.82 60.7403C113.255 60.7403 113.608 60.4019 113.608 59.9844C113.608 59.5669 113.255 59.2285 112.82 59.2285C112.386 59.2285 112.033 59.5669 112.033 59.9844C112.033 60.4019 112.386 60.7403 112.82 60.7403Z" fill="#383A48"/>
<path d="M112.82 71.1954C113.255 71.1954 113.608 70.8569 113.608 70.4395C113.608 70.022 113.255 69.6836 112.82 69.6836C112.386 69.6836 112.033 70.022 112.033 70.4395C112.033 70.8569 112.386 71.1954 112.82 71.1954Z" fill="#383A48"/>
<path d="M168.691 82.2969L175.218 102.643H178.826L172.316 82.2969H168.691Z" fill="white"/>
<path d="M178.828 103.43H175.204C174.843 103.43 174.532 103.21 174.417 102.879L167.906 82.5332C167.824 82.297 167.873 82.0293 168.037 81.8403C168.185 81.6356 168.431 81.5254 168.693 81.5254H172.318C172.678 81.5254 172.99 81.7459 173.105 82.0766L179.615 102.422C179.697 102.659 179.648 102.926 179.484 103.115C179.337 103.304 179.091 103.43 178.828 103.43ZM175.827 101.856H177.729L171.711 83.0844H169.808L175.827 101.856Z" fill="#383A48"/>
<path d="M143.699 82.2988L149.275 102.645H152.899L147.323 82.2988H143.699Z" fill="white"/>
<path d="M152.9 103.432H149.276C148.899 103.432 148.571 103.196 148.489 102.85L142.913 82.5037C142.847 82.2675 142.896 82.0155 143.06 81.8265C143.208 81.6376 143.454 81.5273 143.716 81.5273H147.341C147.718 81.5273 148.046 81.7636 148.128 82.11L153.704 102.456C153.769 102.692 153.72 102.944 153.556 103.133C153.392 103.306 153.146 103.432 152.9 103.432ZM149.915 101.857H151.834L146.701 83.0864H144.782L149.915 101.857Z" fill="#383A48"/>
<path d="M145.534 91.5585H149.142L147.387 82.7871H143.697L145.534 91.5585Z" fill="#383A48"/>
<path d="M171.267 91.5585H174.694L172.464 82.7871H168.971L171.267 91.5585Z" fill="#383A48"/>
<path d="M178.32 78.7559L177.697 81.2912C177.172 83.4172 175.499 85.0392 173.383 85.6218C173.318 85.6376 173.269 85.6533 173.203 85.6691C172.711 85.795 172.203 85.858 171.678 85.858H105.293V78.7716L178.32 78.7559Z" fill="#A0A0A0"/>
<path d="M171.676 86.6279H105.291C104.831 86.6279 104.471 86.2815 104.471 85.8406V78.7542C104.471 78.3132 104.831 77.9668 105.291 77.9668H178.301C178.547 77.9668 178.793 78.077 178.941 78.266C179.088 78.455 179.154 78.7069 179.088 78.9431L178.465 81.4785C177.891 83.8406 176.021 85.7146 173.594 86.376C173.529 86.3917 173.447 86.4232 173.381 86.439C172.84 86.5649 172.266 86.6279 171.676 86.6279ZM106.111 85.0532H171.676C172.118 85.0532 172.578 85.0059 173.004 84.8957C173.053 84.88 173.102 84.88 173.135 84.8642H173.152C175.005 84.3603 176.448 82.9115 176.891 81.1163L177.284 79.5573H106.111V85.0532Z" fill="#383A48"/>
<path d="M196.49 101.857H105.293V103.432H196.49V101.857Z" fill="#383A48"/>
<path d="M183.416 31.998C180.399 31.998 177.758 33.935 176.971 36.7223L165.049 78.8156L178.316 78.7527L189.845 40.171C191.058 36.0767 187.86 31.998 183.416 31.998Z" fill="#A0A0A0"/>
<path d="M165.035 79.5898C164.772 79.5898 164.543 79.4795 164.379 79.2748C164.215 79.0858 164.166 78.8181 164.231 78.5819L176.154 36.4886C177.039 33.3548 180.007 31.1816 183.386 31.1816C185.764 31.1816 187.945 32.221 189.372 34.0477C190.798 35.8744 191.241 38.1736 190.585 40.3625L179.056 78.9441C178.958 79.2748 178.63 79.511 178.269 79.511L165.035 79.5898C165.051 79.5898 165.051 79.5898 165.035 79.5898ZM183.419 32.7879C180.778 32.7879 178.466 34.4886 177.761 36.9295L166.117 78.015L177.695 77.9678L189.044 39.9531C189.552 38.2366 189.208 36.4413 188.092 35.0241C186.977 33.591 185.272 32.7879 183.419 32.7879Z" fill="#383A48"/>
<path d="M232.646 123.029H203.855V122.233C203.855 107.441 216.408 95.4043 231.832 95.4043H232.662L232.646 123.029ZM205.516 121.437H230.985V97.0124C217.138 97.4264 205.947 108.158 205.516 121.437Z" fill="#383A48"/>
<path d="M219.979 72.0256C219.756 72.0256 219.534 71.9431 219.38 71.7782C219.056 71.4482 219.056 70.9368 219.38 70.6068L236.629 54.0925C236.971 53.7791 237.501 53.7791 237.843 54.0925C238.168 54.4225 238.168 54.9339 237.843 55.2639L220.577 71.7782C220.406 71.9431 220.201 72.0256 219.979 72.0256Z" fill="#383A48"/>
</svg>
