<svg width="225" height="145" viewBox="0 0 225 145" fill="none" xmlns="http://www.w3.org/2000/svg">
<path d="M224.545 24.7788C224.284 24.6451 223.98 24.6953 223.763 24.9125C215.061 33.6022 211.311 42.2082 209.009 48.7255C208.227 50.9313 207.561 53.087 206.909 55.1592C205.519 59.6377 204.202 63.8655 202.117 67.5419C199.829 71.5859 196.817 74.5939 192.647 76.9836C184.814 81.4788 176.358 81.7461 168.192 81.9968C157.115 82.3477 145.662 82.6987 135.31 93.3268C129.388 99.4095 126.81 105.242 124.537 110.372C121.381 117.507 119.093 122.671 109.464 124.994C109.102 125.077 108.856 125.478 108.885 125.896C108.929 126.314 109.233 126.648 109.609 126.648H224.212C224.617 126.648 224.936 126.281 224.936 125.813V25.5475C224.965 25.2133 224.806 24.9125 224.545 24.7788Z" fill="#F4F4F4"/>
<path d="M224.543 24.7788C224.282 24.6451 223.978 24.6953 223.761 24.9125C215.059 33.6022 211.309 42.2083 209.007 48.7255C208.92 48.9762 208.949 49.277 209.079 49.5109C209.209 49.7449 209.441 49.8785 209.673 49.8785H211.714C218.071 49.8785 223.631 44.6648 224.934 37.4958C224.948 37.4457 224.948 37.3788 224.948 37.3287V25.5475C224.963 25.2133 224.803 24.9125 224.543 24.7788Z" fill="#383A48"/>
<path d="M224.24 97.8691V125.793H200.045C200.045 110.386 210.875 97.8691 224.24 97.8691Z" fill="#FB4E4E"/>
<path d="M224.239 126.648H200.044C199.639 126.648 199.32 126.28 199.32 125.812C199.32 109.954 210.498 97.0527 224.239 97.0527C224.644 97.0527 224.963 97.4204 224.963 97.8883V125.812C224.963 126.263 224.644 126.648 224.239 126.648ZM200.783 124.977H223.515V98.7405C211.15 99.1583 201.159 110.689 200.783 124.977Z" fill="#383A48"/>
<path d="M188.952 93.0836C189.356 93.0836 189.682 92.709 189.682 92.2469C189.682 91.7848 189.356 91.4102 188.952 91.4102C188.549 91.4102 188.223 91.7848 188.223 92.2469C188.223 92.709 188.549 93.0836 188.952 93.0836Z" fill="#383A48"/>
<path d="M188.952 97.2164C189.356 97.2164 189.682 96.8418 189.682 96.3797C189.682 95.9176 189.356 95.543 188.952 95.543C188.549 95.543 188.223 95.9176 188.223 96.3797C188.223 96.8418 188.549 97.2164 188.952 97.2164Z" fill="#383A48"/>
<path d="M188.952 101.349C189.356 101.349 189.682 100.975 189.682 100.512C189.682 100.05 189.356 99.6758 188.952 99.6758C188.549 99.6758 188.223 100.05 188.223 100.512C188.223 100.975 188.549 101.349 188.952 101.349Z" fill="#383A48"/>
<path d="M185.345 88.9684C185.748 88.9684 186.075 88.5937 186.075 88.1316C186.075 87.6695 185.748 87.2949 185.345 87.2949C184.942 87.2949 184.615 87.6695 184.615 88.1316C184.615 88.5937 184.942 88.9684 185.345 88.9684Z" fill="#383A48"/>
<path d="M185.345 93.0836C185.748 93.0836 186.075 92.709 186.075 92.2469C186.075 91.7848 185.748 91.4102 185.345 91.4102C184.942 91.4102 184.615 91.7848 184.615 92.2469C184.615 92.709 184.942 93.0836 185.345 93.0836Z" fill="#383A48"/>
<path d="M185.345 97.2164C185.748 97.2164 186.075 96.8418 186.075 96.3797C186.075 95.9176 185.748 95.543 185.345 95.543C184.942 95.543 184.615 95.9176 184.615 96.3797C184.615 96.8418 184.942 97.2164 185.345 97.2164Z" fill="#383A48"/>
<path d="M185.345 101.349C185.748 101.349 186.075 100.975 186.075 100.512C186.075 100.05 185.748 99.6758 185.345 99.6758C184.942 99.6758 184.615 100.05 184.615 100.512C184.615 100.975 184.942 101.349 185.345 101.349Z" fill="#383A48"/>
<path d="M181.742 68.316C182.145 68.316 182.471 67.9414 182.471 67.4793C182.471 67.0172 182.145 66.6426 181.742 66.6426C181.338 66.6426 181.012 67.0172 181.012 67.4793C181.012 67.9414 181.338 68.316 181.742 68.316Z" fill="#383A48"/>
<path d="M181.742 72.4527C182.145 72.4527 182.471 72.0781 182.471 71.616C182.471 71.1539 182.145 70.7793 181.742 70.7793C181.338 70.7793 181.012 71.1539 181.012 71.616C181.012 72.0781 181.338 72.4527 181.742 72.4527Z" fill="#383A48"/>
<path d="M181.742 76.5836C182.145 76.5836 182.471 76.209 182.471 75.7469C182.471 75.2848 182.145 74.9102 181.742 74.9102C181.338 74.9102 181.012 75.2848 181.012 75.7469C181.012 76.209 181.338 76.5836 181.742 76.5836Z" fill="#383A48"/>
<path d="M181.742 80.7008C182.145 80.7008 182.471 80.3262 182.471 79.8641C182.471 79.402 182.145 79.0273 181.742 79.0273C181.338 79.0273 181.012 79.402 181.012 79.8641C181.012 80.3262 181.338 80.7008 181.742 80.7008Z" fill="#383A48"/>
<path d="M181.742 88.9684C182.145 88.9684 182.471 88.5937 182.471 88.1316C182.471 87.6695 182.145 87.2949 181.742 87.2949C181.338 87.2949 181.012 87.6695 181.012 88.1316C181.012 88.5937 181.338 88.9684 181.742 88.9684Z" fill="#383A48"/>
<path d="M181.742 93.0836C182.145 93.0836 182.471 92.709 182.471 92.2469C182.471 91.7848 182.145 91.4102 181.742 91.4102C181.338 91.4102 181.012 91.7848 181.012 92.2469C181.012 92.709 181.338 93.0836 181.742 93.0836Z" fill="#383A48"/>
<path d="M181.742 97.2164C182.145 97.2164 182.471 96.8418 182.471 96.3797C182.471 95.9176 182.145 95.543 181.742 95.543C181.338 95.543 181.012 95.9176 181.012 96.3797C181.012 96.8418 181.338 97.2164 181.742 97.2164Z" fill="#383A48"/>
<path d="M181.742 101.349C182.145 101.349 182.471 100.975 182.471 100.512C182.471 100.05 182.145 99.6758 181.742 99.6758C181.338 99.6758 181.012 100.05 181.012 100.512C181.012 100.975 181.338 101.349 181.742 101.349Z" fill="#383A48"/>
<path d="M178.15 64.2008C178.553 64.2008 178.88 63.8262 178.88 63.3641C178.88 62.902 178.553 62.5273 178.15 62.5273C177.747 62.5273 177.42 62.902 177.42 63.3641C177.42 63.8262 177.747 64.2008 178.15 64.2008Z" fill="#383A48"/>
<path d="M178.15 68.318C178.553 68.318 178.88 67.9434 178.88 67.4813C178.88 67.0191 178.553 66.6445 178.15 66.6445C177.747 66.6445 177.42 67.0191 177.42 67.4813C177.42 67.9434 177.747 68.318 178.15 68.318Z" fill="#383A48"/>
<path d="M178.15 72.4527C178.553 72.4527 178.88 72.0781 178.88 71.616C178.88 71.1539 178.553 70.7793 178.15 70.7793C177.747 70.7793 177.42 71.1539 177.42 71.616C177.42 72.0781 177.747 72.4527 178.15 72.4527Z" fill="#383A48"/>
<path d="M178.15 76.5856C178.553 76.5856 178.88 76.2109 178.88 75.7488C178.88 75.2867 178.553 74.9121 178.15 74.9121C177.747 74.9121 177.42 75.2867 177.42 75.7488C177.42 76.2109 177.747 76.5856 178.15 76.5856Z" fill="#383A48"/>
<path d="M178.15 80.7008C178.553 80.7008 178.88 80.3262 178.88 79.8641C178.88 79.402 178.553 79.0273 178.15 79.0273C177.747 79.0273 177.42 79.402 177.42 79.8641C177.42 80.3262 177.747 80.7008 178.15 80.7008Z" fill="#383A48"/>
<path d="M178.15 84.8355C178.553 84.8355 178.88 84.4609 178.88 83.9988C178.88 83.5367 178.553 83.1621 178.15 83.1621C177.747 83.1621 177.42 83.5367 177.42 83.9988C177.42 84.4609 177.747 84.8355 178.15 84.8355Z" fill="#383A48"/>
<path d="M178.15 88.9684C178.553 88.9684 178.88 88.5937 178.88 88.1316C178.88 87.6695 178.553 87.2949 178.15 87.2949C177.747 87.2949 177.42 87.6695 177.42 88.1316C177.42 88.5937 177.747 88.9684 178.15 88.9684Z" fill="#383A48"/>
<path d="M178.15 93.0836C178.553 93.0836 178.88 92.709 178.88 92.2469C178.88 91.7848 178.553 91.4102 178.15 91.4102C177.747 91.4102 177.42 91.7848 177.42 92.2469C177.42 92.709 177.747 93.0836 178.15 93.0836Z" fill="#383A48"/>
<path d="M178.15 97.2164C178.553 97.2164 178.88 96.8418 178.88 96.3797C178.88 95.9176 178.553 95.543 178.15 95.543C177.747 95.543 177.42 95.9176 177.42 96.3797C177.42 96.8418 177.747 97.2164 178.15 97.2164Z" fill="#383A48"/>
<path d="M178.15 101.351C178.553 101.351 178.88 100.977 178.88 100.514C178.88 100.052 178.553 99.6777 178.15 99.6777C177.747 99.6777 177.42 100.052 177.42 100.514C177.42 100.977 177.747 101.351 178.15 101.351Z" fill="#383A48"/>
<path d="M174.546 64.2008C174.949 64.2008 175.276 63.8262 175.276 63.3641C175.276 62.902 174.949 62.5273 174.546 62.5273C174.143 62.5273 173.816 62.902 173.816 63.3641C173.816 63.8262 174.143 64.2008 174.546 64.2008Z" fill="#383A48"/>
<path d="M174.546 68.318C174.949 68.318 175.276 67.9434 175.276 67.4813C175.276 67.0191 174.949 66.6445 174.546 66.6445C174.143 66.6445 173.816 67.0191 173.816 67.4813C173.816 67.9434 174.143 68.318 174.546 68.318Z" fill="#383A48"/>
<path d="M174.544 72.4527C174.947 72.4527 175.274 72.0781 175.274 71.616C175.274 71.1539 174.947 70.7793 174.544 70.7793C174.141 70.7793 173.814 71.1539 173.814 71.616C173.814 72.0781 174.141 72.4527 174.544 72.4527Z" fill="#383A48"/>
<path d="M174.546 76.5856C174.949 76.5856 175.276 76.2109 175.276 75.7488C175.276 75.2867 174.949 74.9121 174.546 74.9121C174.143 74.9121 173.816 75.2867 173.816 75.7488C173.816 76.2109 174.143 76.5856 174.546 76.5856Z" fill="#383A48"/>
<path d="M174.546 80.7008C174.949 80.7008 175.276 80.3262 175.276 79.8641C175.276 79.402 174.949 79.0273 174.546 79.0273C174.143 79.0273 173.816 79.402 173.816 79.8641C173.816 80.3262 174.143 80.7008 174.546 80.7008Z" fill="#383A48"/>
<path d="M174.546 84.8355C174.949 84.8355 175.276 84.4609 175.276 83.9988C175.276 83.5367 174.949 83.1621 174.546 83.1621C174.143 83.1621 173.816 83.5367 173.816 83.9988C173.816 84.4609 174.143 84.8355 174.546 84.8355Z" fill="#383A48"/>
<path d="M174.546 88.9684C174.949 88.9684 175.276 88.5937 175.276 88.1316C175.276 87.6695 174.949 87.2949 174.546 87.2949C174.143 87.2949 173.816 87.6695 173.816 88.1316C173.816 88.5937 174.143 88.9684 174.546 88.9684Z" fill="#383A48"/>
<path d="M174.546 93.0836C174.949 93.0836 175.276 92.709 175.276 92.2469C175.276 91.7848 174.949 91.4102 174.546 91.4102C174.143 91.4102 173.816 91.7848 173.816 92.2469C173.816 92.709 174.143 93.0836 174.546 93.0836Z" fill="#383A48"/>
<path d="M174.546 97.2164C174.949 97.2164 175.276 96.8418 175.276 96.3797C175.276 95.9176 174.949 95.543 174.546 95.543C174.143 95.543 173.816 95.9176 173.816 96.3797C173.816 96.8418 174.143 97.2164 174.546 97.2164Z" fill="#383A48"/>
<path d="M174.546 101.351C174.949 101.351 175.276 100.977 175.276 100.514C175.276 100.052 174.949 99.6777 174.546 99.6777C174.143 99.6777 173.816 100.052 173.816 100.514C173.816 100.977 174.143 101.351 174.546 101.351Z" fill="#383A48"/>
<path d="M170.939 64.2008C171.342 64.2008 171.669 63.8262 171.669 63.3641C171.669 62.902 171.342 62.5273 170.939 62.5273C170.536 62.5273 170.209 62.902 170.209 63.3641C170.209 63.8262 170.536 64.2008 170.939 64.2008Z" fill="#383A48"/>
<path d="M170.939 68.318C171.342 68.318 171.669 67.9434 171.669 67.4813C171.669 67.0191 171.342 66.6445 170.939 66.6445C170.536 66.6445 170.209 67.0191 170.209 67.4813C170.209 67.9434 170.536 68.318 170.939 68.318Z" fill="#383A48"/>
<path d="M170.939 72.4527C171.342 72.4527 171.669 72.0781 171.669 71.616C171.669 71.1539 171.342 70.7793 170.939 70.7793C170.536 70.7793 170.209 71.1539 170.209 71.616C170.209 72.0781 170.536 72.4527 170.939 72.4527Z" fill="#383A48"/>
<path d="M170.939 76.5856C171.342 76.5856 171.669 76.2109 171.669 75.7488C171.669 75.2867 171.342 74.9121 170.939 74.9121C170.536 74.9121 170.209 75.2867 170.209 75.7488C170.209 76.2109 170.536 76.5856 170.939 76.5856Z" fill="#383A48"/>
<path d="M170.939 80.7008C171.342 80.7008 171.669 80.3262 171.669 79.8641C171.669 79.402 171.342 79.0273 170.939 79.0273C170.536 79.0273 170.209 79.402 170.209 79.8641C170.209 80.3262 170.536 80.7008 170.939 80.7008Z" fill="#383A48"/>
<path d="M170.939 84.8355C171.342 84.8355 171.669 84.4609 171.669 83.9988C171.669 83.5367 171.342 83.1621 170.939 83.1621C170.536 83.1621 170.209 83.5367 170.209 83.9988C170.209 84.4609 170.536 84.8355 170.939 84.8355Z" fill="#383A48"/>
<path d="M170.939 88.9684C171.342 88.9684 171.669 88.5937 171.669 88.1316C171.669 87.6695 171.342 87.2949 170.939 87.2949C170.536 87.2949 170.209 87.6695 170.209 88.1316C170.209 88.5937 170.536 88.9684 170.939 88.9684Z" fill="#383A48"/>
<path d="M170.939 93.0836C171.342 93.0836 171.669 92.709 171.669 92.2469C171.669 91.7848 171.342 91.4102 170.939 91.4102C170.536 91.4102 170.209 91.7848 170.209 92.2469C170.209 92.709 170.536 93.0836 170.939 93.0836Z" fill="#383A48"/>
<path d="M170.939 97.2164C171.342 97.2164 171.669 96.8418 171.669 96.3797C171.669 95.9176 171.342 95.543 170.939 95.543C170.536 95.543 170.209 95.9176 170.209 96.3797C170.209 96.8418 170.536 97.2164 170.939 97.2164Z" fill="#383A48"/>
<path d="M170.939 101.351C171.342 101.351 171.669 100.977 171.669 100.514C171.669 100.052 171.342 99.6777 170.939 99.6777C170.536 99.6777 170.209 100.052 170.209 100.514C170.209 100.977 170.536 101.351 170.939 101.351Z" fill="#383A48"/>
<path d="M167.349 68.316C167.752 68.316 168.079 67.9414 168.079 67.4793C168.079 67.0172 167.752 66.6426 167.349 66.6426C166.946 66.6426 166.619 67.0172 166.619 67.4793C166.619 67.9414 166.946 68.316 167.349 68.316Z" fill="#383A48"/>
<path d="M167.349 72.4527C167.752 72.4527 168.079 72.0781 168.079 71.616C168.079 71.1539 167.752 70.7793 167.349 70.7793C166.946 70.7793 166.619 71.1539 166.619 71.616C166.619 72.0781 166.946 72.4527 167.349 72.4527Z" fill="#383A48"/>
<path d="M167.349 76.5836C167.752 76.5836 168.079 76.209 168.079 75.7469C168.079 75.2848 167.752 74.9102 167.349 74.9102C166.946 74.9102 166.619 75.2848 166.619 75.7469C166.619 76.209 166.946 76.5836 167.349 76.5836Z" fill="#383A48"/>
<path d="M167.349 80.7008C167.752 80.7008 168.079 80.3262 168.079 79.8641C168.079 79.402 167.752 79.0273 167.349 79.0273C166.946 79.0273 166.619 79.402 166.619 79.8641C166.619 80.3262 166.946 80.7008 167.349 80.7008Z" fill="#383A48"/>
<path d="M167.349 88.9684C167.752 88.9684 168.079 88.5937 168.079 88.1316C168.079 87.6695 167.752 87.2949 167.349 87.2949C166.946 87.2949 166.619 87.6695 166.619 88.1316C166.619 88.5937 166.946 88.9684 167.349 88.9684Z" fill="#383A48"/>
<path d="M167.349 93.0836C167.752 93.0836 168.079 92.709 168.079 92.2469C168.079 91.7848 167.752 91.4102 167.349 91.4102C166.946 91.4102 166.619 91.7848 166.619 92.2469C166.619 92.709 166.946 93.0836 167.349 93.0836Z" fill="#383A48"/>
<path d="M167.349 97.2164C167.752 97.2164 168.079 96.8418 168.079 96.3797C168.079 95.9176 167.752 95.543 167.349 95.543C166.946 95.543 166.619 95.9176 166.619 96.3797C166.619 96.8418 166.946 97.2164 167.349 97.2164Z" fill="#383A48"/>
<path d="M167.349 101.349C167.752 101.349 168.079 100.975 168.079 100.512C168.079 100.05 167.752 99.6758 167.349 99.6758C166.946 99.6758 166.619 100.05 166.619 100.512C166.619 100.975 166.946 101.349 167.349 101.349Z" fill="#383A48"/>
<path d="M163.743 88.9684C164.147 88.9684 164.473 88.5937 164.473 88.1316C164.473 87.6695 164.147 87.2949 163.743 87.2949C163.34 87.2949 163.014 87.6695 163.014 88.1316C163.014 88.5937 163.34 88.9684 163.743 88.9684Z" fill="#383A48"/>
<path d="M163.744 93.0836C164.147 93.0836 164.473 92.709 164.473 92.2469C164.473 91.7848 164.147 91.4102 163.744 91.4102C163.34 91.4102 163.014 91.7848 163.014 92.2469C163.014 92.709 163.34 93.0836 163.744 93.0836Z" fill="#383A48"/>
<path d="M163.744 97.2164C164.147 97.2164 164.473 96.8418 164.473 96.3797C164.473 95.9176 164.147 95.543 163.744 95.543C163.34 95.543 163.014 95.9176 163.014 96.3797C163.014 96.8418 163.34 97.2164 163.744 97.2164Z" fill="#383A48"/>
<path d="M163.744 101.349C164.147 101.349 164.473 100.975 164.473 100.512C164.473 100.05 164.147 99.6758 163.744 99.6758C163.34 99.6758 163.014 100.05 163.014 100.512C163.014 100.975 163.34 101.349 163.744 101.349Z" fill="#383A48"/>
<path d="M160.138 93.0836C160.541 93.0836 160.868 92.709 160.868 92.2469C160.868 91.7848 160.541 91.4102 160.138 91.4102C159.735 91.4102 159.408 91.7848 159.408 92.2469C159.408 92.709 159.735 93.0836 160.138 93.0836Z" fill="#383A48"/>
<path d="M160.138 97.2164C160.541 97.2164 160.868 96.8418 160.868 96.3797C160.868 95.9176 160.541 95.543 160.138 95.543C159.735 95.543 159.408 95.9176 159.408 96.3797C159.408 96.8418 159.735 97.2164 160.138 97.2164Z" fill="#383A48"/>
<path d="M160.138 101.349C160.541 101.349 160.868 100.975 160.868 100.512C160.868 100.05 160.541 99.6758 160.138 99.6758C159.735 99.6758 159.408 100.05 159.408 100.512C159.408 100.975 159.735 101.349 160.138 101.349Z" fill="#383A48"/>
<path d="M149.902 95.0101V92.3955C149.902 84.9846 155.155 78.9727 161.629 78.9727H172.003C178.477 78.9727 183.729 84.9846 183.729 92.3955V95.0101H149.902Z" fill="white"/>
<path d="M183.714 95.8395H149.901C149.494 95.8395 149.174 95.4732 149.174 95.0068V92.3922C149.174 84.5317 154.761 78.1367 161.628 78.1367H172.002C178.869 78.1367 184.456 84.5317 184.456 92.3922V95.0068C184.441 95.4732 184.121 95.8395 183.714 95.8395ZM150.629 94.1742H182.986V92.3922C182.986 85.4477 178.054 79.8021 171.987 79.8021H161.613C155.546 79.8021 150.614 85.4477 150.614 92.3922L150.629 94.1742Z" fill="#383A48"/>
<path d="M166.809 78.9843C162.008 78.9843 158.123 74.5378 158.123 69.0421V63.0301C158.123 57.5344 162.008 53.0879 166.809 53.0879C171.61 53.0879 175.495 57.5344 175.495 63.0301V69.0421C175.509 74.5378 171.61 78.9843 166.809 78.9843Z" fill="#F4F4F4"/>
<path d="M166.808 79.8176C161.614 79.8176 157.395 74.9881 157.395 69.0427V63.0308C157.395 57.0854 161.614 52.2559 166.808 52.2559C172.002 52.2559 176.221 57.0854 176.221 63.0308V69.0427C176.236 74.9881 172.002 79.8176 166.808 79.8176ZM166.808 53.9046C162.414 53.9046 158.849 58.0014 158.849 63.0141V69.0261C158.849 74.0555 162.429 78.1356 166.808 78.1356C171.202 78.1356 174.766 74.0388 174.766 69.0261V63.0141C174.781 58.0014 171.202 53.9046 166.808 53.9046Z" fill="#383A48"/>
<path d="M81.585 117.629C81.9879 117.629 82.3145 117.254 82.3145 116.792C82.3145 116.33 81.9879 115.955 81.585 115.955C81.1821 115.955 80.8555 116.33 80.8555 116.792C80.8555 117.254 81.1821 117.629 81.585 117.629Z" fill="#383A48"/>
<path d="M81.585 121.764C81.9879 121.764 82.3145 121.389 82.3145 120.927C82.3145 120.465 81.9879 120.09 81.585 120.09C81.1821 120.09 80.8555 120.465 80.8555 120.927C80.8555 121.389 81.1821 121.764 81.585 121.764Z" fill="#383A48"/>
<path d="M81.585 125.898C81.9879 125.898 82.3145 125.524 82.3145 125.062C82.3145 124.599 81.9879 124.225 81.585 124.225C81.1821 124.225 80.8555 124.599 80.8555 125.062C80.8555 125.524 81.1821 125.898 81.585 125.898Z" fill="#383A48"/>
<path d="M77.9795 109.377C78.3824 109.377 78.709 109.002 78.709 108.54C78.709 108.078 78.3824 107.703 77.9795 107.703C77.5766 107.703 77.25 108.078 77.25 108.54C77.25 109.002 77.5766 109.377 77.9795 109.377Z" fill="#383A48"/>
<path d="M77.9795 113.512C78.3824 113.512 78.709 113.137 78.709 112.675C78.709 112.213 78.3824 111.838 77.9795 111.838C77.5766 111.838 77.25 112.213 77.25 112.675C77.25 113.137 77.5766 113.512 77.9795 113.512Z" fill="#383A48"/>
<path d="M77.9795 117.629C78.3824 117.629 78.709 117.254 78.709 116.792C78.709 116.33 78.3824 115.955 77.9795 115.955C77.5766 115.955 77.25 116.33 77.25 116.792C77.25 117.254 77.5766 117.629 77.9795 117.629Z" fill="#383A48"/>
<path d="M77.9795 121.764C78.3824 121.764 78.709 121.389 78.709 120.927C78.709 120.465 78.3824 120.09 77.9795 120.09C77.5766 120.09 77.25 120.465 77.25 120.927C77.25 121.389 77.5766 121.764 77.9795 121.764Z" fill="#383A48"/>
<path d="M77.9795 125.898C78.3824 125.898 78.709 125.524 78.709 125.062C78.709 124.599 78.3824 124.225 77.9795 124.225C77.5766 124.225 77.25 124.599 77.25 125.062C77.25 125.524 77.5766 125.898 77.9795 125.898Z" fill="#383A48"/>
<path d="M74.378 105.242C74.7809 105.242 75.1075 104.868 75.1075 104.405C75.1075 103.943 74.7809 103.568 74.378 103.568C73.9751 103.568 73.6484 103.943 73.6484 104.405C73.6484 104.868 73.9751 105.242 74.378 105.242Z" fill="#383A48"/>
<path d="M74.378 109.377C74.7809 109.377 75.1075 109.002 75.1075 108.54C75.1075 108.078 74.7809 107.703 74.378 107.703C73.9751 107.703 73.6484 108.078 73.6484 108.54C73.6484 109.002 73.9751 109.377 74.378 109.377Z" fill="#383A48"/>
<path d="M74.378 113.512C74.7809 113.512 75.1075 113.137 75.1075 112.675C75.1075 112.213 74.7809 111.838 74.378 111.838C73.9751 111.838 73.6484 112.213 73.6484 112.675C73.6484 113.137 73.9751 113.512 74.378 113.512Z" fill="#383A48"/>
<path d="M74.378 117.629C74.7809 117.629 75.1075 117.254 75.1075 116.792C75.1075 116.33 74.7809 115.955 74.378 115.955C73.9751 115.955 73.6484 116.33 73.6484 116.792C73.6484 117.254 73.9751 117.629 74.378 117.629Z" fill="#383A48"/>
<path d="M74.378 121.764C74.7809 121.764 75.1075 121.389 75.1075 120.927C75.1075 120.465 74.7809 120.09 74.378 120.09C73.9751 120.09 73.6484 120.465 73.6484 120.927C73.6484 121.389 73.9751 121.764 74.378 121.764Z" fill="#383A48"/>
<path d="M74.378 125.897C74.7809 125.897 75.1075 125.522 75.1075 125.06C75.1075 124.597 74.7809 124.223 74.378 124.223C73.9751 124.223 73.6484 124.597 73.6484 125.06C73.6484 125.522 73.9751 125.897 74.378 125.897Z" fill="#383A48"/>
<path d="M70.7862 80.4688C71.1891 80.4688 71.5157 80.0941 71.5157 79.6319C71.5157 79.1696 71.1891 78.7949 70.7862 78.7949C70.3833 78.7949 70.0566 79.1696 70.0566 79.6319C70.0566 80.0941 70.3833 80.4688 70.7862 80.4688Z" fill="#383A48"/>
<path d="M70.7862 84.6035C71.1891 84.6035 71.5157 84.2288 71.5157 83.7666C71.5157 83.3044 71.1891 82.9297 70.7862 82.9297C70.3833 82.9297 70.0566 83.3044 70.0566 83.7666C70.0566 84.2288 70.3833 84.6035 70.7862 84.6035Z" fill="#383A48"/>
<path d="M70.7862 88.7364C71.1891 88.7364 71.5157 88.3617 71.5157 87.8994C71.5157 87.4372 71.1891 87.0625 70.7862 87.0625C70.3833 87.0625 70.0566 87.4372 70.0566 87.8994C70.0566 88.3617 70.3833 88.7364 70.7862 88.7364Z" fill="#383A48"/>
<path d="M70.7862 92.8555C71.1891 92.8555 71.5157 92.4808 71.5157 92.0186C71.5157 91.5564 71.1891 91.1816 70.7862 91.1816C70.3833 91.1816 70.0566 91.5564 70.0566 92.0186C70.0566 92.4808 70.3833 92.8555 70.7862 92.8555Z" fill="#383A48"/>
<path d="M70.7862 96.9903C71.1891 96.9903 71.5157 96.6156 71.5157 96.1533C71.5157 95.6911 71.1891 95.3164 70.7862 95.3164C70.3833 95.3164 70.0566 95.6911 70.0566 96.1533C70.0566 96.6156 70.3833 96.9903 70.7862 96.9903Z" fill="#383A48"/>
<path d="M70.7862 105.242C71.1891 105.242 71.5157 104.868 71.5157 104.405C71.5157 103.943 71.1891 103.568 70.7862 103.568C70.3833 103.568 70.0566 103.943 70.0566 104.405C70.0566 104.868 70.3833 105.242 70.7862 105.242Z" fill="#383A48"/>
<path d="M70.7862 109.377C71.1891 109.377 71.5157 109.002 71.5157 108.54C71.5157 108.078 71.1891 107.703 70.7862 107.703C70.3833 107.703 70.0566 108.078 70.0566 108.54C70.0566 109.002 70.3833 109.377 70.7862 109.377Z" fill="#383A48"/>
<path d="M70.7862 113.512C71.1891 113.512 71.5157 113.137 71.5157 112.675C71.5157 112.213 71.1891 111.838 70.7862 111.838C70.3833 111.838 70.0566 112.213 70.0566 112.675C70.0566 113.137 70.3833 113.512 70.7862 113.512Z" fill="#383A48"/>
<path d="M70.7862 117.629C71.1891 117.629 71.5157 117.254 71.5157 116.792C71.5157 116.33 71.1891 115.955 70.7862 115.955C70.3833 115.955 70.0566 116.33 70.0566 116.792C70.0566 117.254 70.3833 117.629 70.7862 117.629Z" fill="#383A48"/>
<path d="M70.7862 121.764C71.1891 121.764 71.5157 121.389 71.5157 120.927C71.5157 120.465 71.1891 120.09 70.7862 120.09C70.3833 120.09 70.0566 120.465 70.0566 120.927C70.0566 121.389 70.3833 121.764 70.7862 121.764Z" fill="#383A48"/>
<path d="M70.7862 125.898C71.1891 125.898 71.5157 125.524 71.5157 125.062C71.5157 124.599 71.1891 124.225 70.7862 124.225C70.3833 124.225 70.0566 124.599 70.0566 125.062C70.0566 125.524 70.3833 125.898 70.7862 125.898Z" fill="#383A48"/>
<path d="M67.1827 76.3516C67.5856 76.3516 67.9122 75.9769 67.9122 75.5147C67.9122 75.0524 67.5856 74.6777 67.1827 74.6777C66.7798 74.6777 66.4531 75.0524 66.4531 75.5147C66.4531 75.9769 66.7798 76.3516 67.1827 76.3516Z" fill="#383A48"/>
<path d="M67.1827 80.4688C67.5856 80.4688 67.9122 80.0941 67.9122 79.6319C67.9122 79.1696 67.5856 78.7949 67.1827 78.7949C66.7798 78.7949 66.4531 79.1696 66.4531 79.6319C66.4531 80.0941 66.7798 80.4688 67.1827 80.4688Z" fill="#383A48"/>
<path d="M67.1827 84.6035C67.5856 84.6035 67.9122 84.2288 67.9122 83.7666C67.9122 83.3044 67.5856 82.9297 67.1827 82.9297C66.7798 82.9297 66.4531 83.3044 66.4531 83.7666C66.4531 84.2288 66.7798 84.6035 67.1827 84.6035Z" fill="#383A48"/>
<path d="M67.1827 88.7364C67.5856 88.7364 67.9122 88.3617 67.9122 87.8994C67.9122 87.4372 67.5856 87.0625 67.1827 87.0625C66.7798 87.0625 66.4531 87.4372 66.4531 87.8994C66.4531 88.3617 66.7798 88.7364 67.1827 88.7364Z" fill="#383A48"/>
<path d="M67.1827 92.8555C67.5856 92.8555 67.9122 92.4808 67.9122 92.0186C67.9122 91.5564 67.5856 91.1816 67.1827 91.1816C66.7798 91.1816 66.4531 91.5564 66.4531 92.0186C66.4531 92.4808 66.7798 92.8555 67.1827 92.8555Z" fill="#383A48"/>
<path d="M67.1827 96.9903C67.5856 96.9903 67.9122 96.6156 67.9122 96.1533C67.9122 95.6911 67.5856 95.3164 67.1827 95.3164C66.7798 95.3164 66.4531 95.6911 66.4531 96.1533C66.4531 96.6156 66.7798 96.9903 67.1827 96.9903Z" fill="#383A48"/>
<path d="M67.1827 101.125C67.5856 101.125 67.9122 100.75 67.9122 100.288C67.9122 99.8259 67.5856 99.4512 67.1827 99.4512C66.7798 99.4512 66.4531 99.8259 66.4531 100.288C66.4531 100.75 66.7798 101.125 67.1827 101.125Z" fill="#383A48"/>
<path d="M67.1827 105.242C67.5856 105.242 67.9122 104.868 67.9122 104.405C67.9122 103.943 67.5856 103.568 67.1827 103.568C66.7798 103.568 66.4531 103.943 66.4531 104.405C66.4531 104.868 66.7798 105.242 67.1827 105.242Z" fill="#383A48"/>
<path d="M67.1827 109.377C67.5856 109.377 67.9122 109.002 67.9122 108.54C67.9122 108.078 67.5856 107.703 67.1827 107.703C66.7798 107.703 66.4531 108.078 66.4531 108.54C66.4531 109.002 66.7798 109.377 67.1827 109.377Z" fill="#383A48"/>
<path d="M67.1827 113.512C67.5856 113.512 67.9122 113.137 67.9122 112.675C67.9122 112.213 67.5856 111.838 67.1827 111.838C66.7798 111.838 66.4531 112.213 66.4531 112.675C66.4531 113.137 66.7798 113.512 67.1827 113.512Z" fill="#383A48"/>
<path d="M67.1827 117.629C67.5856 117.629 67.9122 117.254 67.9122 116.792C67.9122 116.33 67.5856 115.955 67.1827 115.955C66.7798 115.955 66.4531 116.33 66.4531 116.792C66.4531 117.254 66.7798 117.629 67.1827 117.629Z" fill="#383A48"/>
<path d="M67.1827 121.764C67.5856 121.764 67.9122 121.389 67.9122 120.927C67.9122 120.465 67.5856 120.09 67.1827 120.09C66.7798 120.09 66.4531 120.465 66.4531 120.927C66.4531 121.389 66.7798 121.764 67.1827 121.764Z" fill="#383A48"/>
<path d="M67.1827 125.898C67.5856 125.898 67.9122 125.524 67.9122 125.062C67.9122 124.599 67.5856 124.225 67.1827 124.225C66.7798 124.225 66.4531 124.599 66.4531 125.062C66.4531 125.524 66.7798 125.898 67.1827 125.898Z" fill="#383A48"/>
<path d="M63.5772 72.2169C63.9801 72.2169 64.3067 71.8422 64.3067 71.3799C64.3067 70.9177 63.9801 70.543 63.5772 70.543C63.1743 70.543 62.8477 70.9177 62.8477 71.3799C62.8477 71.8422 63.1743 72.2169 63.5772 72.2169Z" fill="#383A48"/>
<path d="M63.5772 76.3516C63.9801 76.3516 64.3067 75.9769 64.3067 75.5147C64.3067 75.0524 63.9801 74.6777 63.5772 74.6777C63.1743 74.6777 62.8477 75.0524 62.8477 75.5147C62.8477 75.9769 63.1743 76.3516 63.5772 76.3516Z" fill="#383A48"/>
<path d="M63.5772 80.4688C63.9801 80.4688 64.3067 80.0941 64.3067 79.6319C64.3067 79.1696 63.9801 78.7949 63.5772 78.7949C63.1743 78.7949 62.8477 79.1696 62.8477 79.6319C62.8477 80.0941 63.1743 80.4688 63.5772 80.4688Z" fill="#383A48"/>
<path d="M63.5772 84.6035C63.9801 84.6035 64.3067 84.2288 64.3067 83.7666C64.3067 83.3044 63.9801 82.9297 63.5772 82.9297C63.1743 82.9297 62.8477 83.3044 62.8477 83.7666C62.8477 84.2288 63.1743 84.6035 63.5772 84.6035Z" fill="#383A48"/>
<path d="M63.5772 88.7364C63.9801 88.7364 64.3067 88.3617 64.3067 87.8994C64.3067 87.4372 63.9801 87.0625 63.5772 87.0625C63.1743 87.0625 62.8477 87.4372 62.8477 87.8994C62.8477 88.3617 63.1743 88.7364 63.5772 88.7364Z" fill="#383A48"/>
<path d="M63.5772 92.8555C63.9801 92.8555 64.3067 92.4808 64.3067 92.0186C64.3067 91.5564 63.9801 91.1816 63.5772 91.1816C63.1743 91.1816 62.8477 91.5564 62.8477 92.0186C62.8477 92.4808 63.1743 92.8555 63.5772 92.8555Z" fill="#383A48"/>
<path d="M63.5772 96.9903C63.9801 96.9903 64.3067 96.6156 64.3067 96.1533C64.3067 95.6911 63.9801 95.3164 63.5772 95.3164C63.1743 95.3164 62.8477 95.6911 62.8477 96.1533C62.8477 96.6156 63.1743 96.9903 63.5772 96.9903Z" fill="#383A48"/>
<path d="M63.5772 101.125C63.9801 101.125 64.3067 100.75 64.3067 100.288C64.3067 99.8259 63.9801 99.4512 63.5772 99.4512C63.1743 99.4512 62.8477 99.8259 62.8477 100.288C62.8477 100.75 63.1743 101.125 63.5772 101.125Z" fill="#383A48"/>
<path d="M63.5772 105.242C63.9801 105.242 64.3067 104.868 64.3067 104.405C64.3067 103.943 63.9801 103.568 63.5772 103.568C63.1743 103.568 62.8477 103.943 62.8477 104.405C62.8477 104.868 63.1743 105.242 63.5772 105.242Z" fill="#383A48"/>
<path d="M63.5772 109.377C63.9801 109.377 64.3067 109.002 64.3067 108.54C64.3067 108.078 63.9801 107.703 63.5772 107.703C63.1743 107.703 62.8477 108.078 62.8477 108.54C62.8477 109.002 63.1743 109.377 63.5772 109.377Z" fill="#383A48"/>
<path d="M63.5772 113.512C63.9801 113.512 64.3067 113.137 64.3067 112.675C64.3067 112.213 63.9801 111.838 63.5772 111.838C63.1743 111.838 62.8477 112.213 62.8477 112.675C62.8477 113.137 63.1743 113.512 63.5772 113.512Z" fill="#383A48"/>
<path d="M63.5772 117.629C63.9801 117.629 64.3067 117.254 64.3067 116.792C64.3067 116.33 63.9801 115.955 63.5772 115.955C63.1743 115.955 62.8477 116.33 62.8477 116.792C62.8477 117.254 63.1743 117.629 63.5772 117.629Z" fill="#383A48"/>
<path d="M63.5772 121.764C63.9801 121.764 64.3067 121.389 64.3067 120.927C64.3067 120.465 63.9801 120.09 63.5772 120.09C63.1743 120.09 62.8477 120.465 62.8477 120.927C62.8477 121.389 63.1743 121.764 63.5772 121.764Z" fill="#383A48"/>
<path d="M63.5772 125.898C63.9801 125.898 64.3067 125.524 64.3067 125.062C64.3067 124.599 63.9801 124.225 63.5772 124.225C63.1743 124.225 62.8477 124.599 62.8477 125.062C62.8477 125.524 63.1743 125.898 63.5772 125.898Z" fill="#383A48"/>
<path d="M59.9912 72.2169C60.3942 72.2169 60.7208 71.8422 60.7208 71.3799C60.7208 70.9177 60.3942 70.543 59.9912 70.543C59.5883 70.543 59.2617 70.9177 59.2617 71.3799C59.2617 71.8422 59.5883 72.2169 59.9912 72.2169Z" fill="#383A48"/>
<path d="M59.9912 76.3516C60.3942 76.3516 60.7208 75.9769 60.7208 75.5147C60.7208 75.0524 60.3942 74.6777 59.9912 74.6777C59.5883 74.6777 59.2617 75.0524 59.2617 75.5147C59.2617 75.9769 59.5883 76.3516 59.9912 76.3516Z" fill="#383A48"/>
<path d="M59.9912 80.4688C60.3942 80.4688 60.7208 80.0941 60.7208 79.6319C60.7208 79.1696 60.3942 78.7949 59.9912 78.7949C59.5883 78.7949 59.2617 79.1696 59.2617 79.6319C59.2617 80.0941 59.5883 80.4688 59.9912 80.4688Z" fill="#383A48"/>
<path d="M59.9912 84.6035C60.3942 84.6035 60.7208 84.2288 60.7208 83.7666C60.7208 83.3044 60.3942 82.9297 59.9912 82.9297C59.5883 82.9297 59.2617 83.3044 59.2617 83.7666C59.2617 84.2288 59.5883 84.6035 59.9912 84.6035Z" fill="#383A48"/>
<path d="M59.9912 88.7364C60.3942 88.7364 60.7208 88.3617 60.7208 87.8994C60.7208 87.4372 60.3942 87.0625 59.9912 87.0625C59.5883 87.0625 59.2617 87.4372 59.2617 87.8994C59.2617 88.3617 59.5883 88.7364 59.9912 88.7364Z" fill="#383A48"/>
<path d="M59.9912 92.8555C60.3942 92.8555 60.7208 92.4808 60.7208 92.0186C60.7208 91.5564 60.3942 91.1816 59.9912 91.1816C59.5883 91.1816 59.2617 91.5564 59.2617 92.0186C59.2617 92.4808 59.5883 92.8555 59.9912 92.8555Z" fill="#383A48"/>
<path d="M59.9912 96.9903C60.3942 96.9903 60.7208 96.6156 60.7208 96.1533C60.7208 95.6911 60.3942 95.3164 59.9912 95.3164C59.5883 95.3164 59.2617 95.6911 59.2617 96.1533C59.2617 96.6156 59.5883 96.9903 59.9912 96.9903Z" fill="#383A48"/>
<path d="M59.9912 101.125C60.3942 101.125 60.7208 100.75 60.7208 100.288C60.7208 99.8259 60.3942 99.4512 59.9912 99.4512C59.5883 99.4512 59.2617 99.8259 59.2617 100.288C59.2617 100.75 59.5883 101.125 59.9912 101.125Z" fill="#383A48"/>
<path d="M59.9912 105.242C60.3942 105.242 60.7208 104.868 60.7208 104.405C60.7208 103.943 60.3942 103.568 59.9912 103.568C59.5883 103.568 59.2617 103.943 59.2617 104.405C59.2617 104.868 59.5883 105.242 59.9912 105.242Z" fill="#383A48"/>
<path d="M59.9912 109.377C60.3942 109.377 60.7208 109.002 60.7208 108.54C60.7208 108.078 60.3942 107.703 59.9912 107.703C59.5883 107.703 59.2617 108.078 59.2617 108.54C59.2617 109.002 59.5883 109.377 59.9912 109.377Z" fill="#383A48"/>
<path d="M59.9912 113.512C60.3942 113.512 60.7208 113.137 60.7208 112.675C60.7208 112.213 60.3942 111.838 59.9912 111.838C59.5883 111.838 59.2617 112.213 59.2617 112.675C59.2617 113.137 59.5883 113.512 59.9912 113.512Z" fill="#383A48"/>
<path d="M59.9912 117.629C60.3942 117.629 60.7208 117.254 60.7208 116.792C60.7208 116.33 60.3942 115.955 59.9912 115.955C59.5883 115.955 59.2617 116.33 59.2617 116.792C59.2617 117.254 59.5883 117.629 59.9912 117.629Z" fill="#383A48"/>
<path d="M59.9912 121.764C60.3942 121.764 60.7208 121.389 60.7208 120.927C60.7208 120.465 60.3942 120.09 59.9912 120.09C59.5883 120.09 59.2617 120.465 59.2617 120.927C59.2617 121.389 59.5883 121.764 59.9912 121.764Z" fill="#383A48"/>
<path d="M59.9912 125.898C60.3942 125.898 60.7208 125.524 60.7208 125.062C60.7208 124.599 60.3942 124.225 59.9912 124.225C59.5883 124.225 59.2617 124.599 59.2617 125.062C59.2617 125.524 59.5883 125.898 59.9912 125.898Z" fill="#383A48"/>
<path d="M56.3858 72.2169C56.7887 72.2169 57.1153 71.8422 57.1153 71.3799C57.1153 70.9177 56.7887 70.543 56.3858 70.543C55.9829 70.543 55.6562 70.9177 55.6562 71.3799C55.6562 71.8422 55.9829 72.2169 56.3858 72.2169Z" fill="#383A48"/>
<path d="M56.3858 76.3516C56.7887 76.3516 57.1153 75.9769 57.1153 75.5147C57.1153 75.0524 56.7887 74.6777 56.3858 74.6777C55.9829 74.6777 55.6562 75.0524 55.6562 75.5147C55.6562 75.9769 55.9829 76.3516 56.3858 76.3516Z" fill="#383A48"/>
<path d="M56.3858 80.4688C56.7887 80.4688 57.1153 80.0941 57.1153 79.6319C57.1153 79.1696 56.7887 78.7949 56.3858 78.7949C55.9829 78.7949 55.6562 79.1696 55.6562 79.6319C55.6562 80.0941 55.9829 80.4688 56.3858 80.4688Z" fill="#383A48"/>
<path d="M56.3858 84.6035C56.7887 84.6035 57.1153 84.2288 57.1153 83.7666C57.1153 83.3044 56.7887 82.9297 56.3858 82.9297C55.9829 82.9297 55.6562 83.3044 55.6562 83.7666C55.6562 84.2288 55.9829 84.6035 56.3858 84.6035Z" fill="#383A48"/>
<path d="M56.3858 88.7364C56.7887 88.7364 57.1153 88.3617 57.1153 87.8994C57.1153 87.4372 56.7887 87.0625 56.3858 87.0625C55.9829 87.0625 55.6562 87.4372 55.6562 87.8994C55.6562 88.3617 55.9829 88.7364 56.3858 88.7364Z" fill="#383A48"/>
<path d="M56.3858 92.8555C56.7887 92.8555 57.1153 92.4808 57.1153 92.0186C57.1153 91.5564 56.7887 91.1816 56.3858 91.1816C55.9829 91.1816 55.6562 91.5564 55.6562 92.0186C55.6562 92.4808 55.9829 92.8555 56.3858 92.8555Z" fill="#383A48"/>
<path d="M56.3858 96.9903C56.7887 96.9903 57.1153 96.6156 57.1153 96.1533C57.1153 95.6911 56.7887 95.3164 56.3858 95.3164C55.9829 95.3164 55.6562 95.6911 55.6562 96.1533C55.6562 96.6156 55.9829 96.9903 56.3858 96.9903Z" fill="#383A48"/>
<path d="M56.3858 101.125C56.7887 101.125 57.1153 100.75 57.1153 100.288C57.1153 99.8259 56.7887 99.4512 56.3858 99.4512C55.9829 99.4512 55.6562 99.8259 55.6562 100.288C55.6562 100.75 55.9829 101.125 56.3858 101.125Z" fill="#383A48"/>
<path d="M56.3858 105.242C56.7887 105.242 57.1153 104.868 57.1153 104.405C57.1153 103.943 56.7887 103.568 56.3858 103.568C55.9829 103.568 55.6562 103.943 55.6562 104.405C55.6562 104.868 55.9829 105.242 56.3858 105.242Z" fill="#383A48"/>
<path d="M56.3858 109.377C56.7887 109.377 57.1153 109.002 57.1153 108.54C57.1153 108.078 56.7887 107.703 56.3858 107.703C55.9829 107.703 55.6562 108.078 55.6562 108.54C55.6562 109.002 55.9829 109.377 56.3858 109.377Z" fill="#383A48"/>
<path d="M56.3858 113.512C56.7887 113.512 57.1153 113.137 57.1153 112.675C57.1153 112.213 56.7887 111.838 56.3858 111.838C55.9829 111.838 55.6562 112.213 55.6562 112.675C55.6562 113.137 55.9829 113.512 56.3858 113.512Z" fill="#383A48"/>
<path d="M56.3858 117.629C56.7887 117.629 57.1153 117.254 57.1153 116.792C57.1153 116.33 56.7887 115.955 56.3858 115.955C55.9829 115.955 55.6562 116.33 55.6562 116.792C55.6562 117.254 55.9829 117.629 56.3858 117.629Z" fill="#383A48"/>
<path d="M56.3858 121.764C56.7887 121.764 57.1153 121.389 57.1153 120.927C57.1153 120.465 56.7887 120.09 56.3858 120.09C55.9829 120.09 55.6562 120.465 55.6562 120.927C55.6562 121.389 55.9829 121.764 56.3858 121.764Z" fill="#383A48"/>
<path d="M56.3858 125.898C56.7887 125.898 57.1153 125.524 57.1153 125.062C57.1153 124.599 56.7887 124.225 56.3858 124.225C55.9829 124.225 55.6562 124.599 55.6562 125.062C55.6562 125.524 55.9829 125.898 56.3858 125.898Z" fill="#383A48"/>
<path d="M52.7823 76.3516C53.1852 76.3516 53.5118 75.9769 53.5118 75.5147C53.5118 75.0524 53.1852 74.6777 52.7823 74.6777C52.3794 74.6777 52.0527 75.0524 52.0527 75.5147C52.0527 75.9769 52.3794 76.3516 52.7823 76.3516Z" fill="#383A48"/>
<path d="M52.7823 80.4688C53.1852 80.4688 53.5118 80.0941 53.5118 79.6319C53.5118 79.1696 53.1852 78.7949 52.7823 78.7949C52.3794 78.7949 52.0527 79.1696 52.0527 79.6319C52.0527 80.0941 52.3794 80.4688 52.7823 80.4688Z" fill="#383A48"/>
<path d="M52.7823 84.6035C53.1852 84.6035 53.5118 84.2288 53.5118 83.7666C53.5118 83.3044 53.1852 82.9297 52.7823 82.9297C52.3794 82.9297 52.0527 83.3044 52.0527 83.7666C52.0527 84.2288 52.3794 84.6035 52.7823 84.6035Z" fill="#383A48"/>
<path d="M52.7823 88.7364C53.1852 88.7364 53.5118 88.3617 53.5118 87.8994C53.5118 87.4372 53.1852 87.0625 52.7823 87.0625C52.3794 87.0625 52.0527 87.4372 52.0527 87.8994C52.0527 88.3617 52.3794 88.7364 52.7823 88.7364Z" fill="#383A48"/>
<path d="M52.7823 92.8555C53.1852 92.8555 53.5118 92.4808 53.5118 92.0186C53.5118 91.5564 53.1852 91.1816 52.7823 91.1816C52.3794 91.1816 52.0527 91.5564 52.0527 92.0186C52.0527 92.4808 52.3794 92.8555 52.7823 92.8555Z" fill="#383A48"/>
<path d="M52.7823 96.9903C53.1852 96.9903 53.5118 96.6156 53.5118 96.1533C53.5118 95.6911 53.1852 95.3164 52.7823 95.3164C52.3794 95.3164 52.0527 95.6911 52.0527 96.1533C52.0527 96.6156 52.3794 96.9903 52.7823 96.9903Z" fill="#383A48"/>
<path d="M52.7823 101.125C53.1852 101.125 53.5118 100.75 53.5118 100.288C53.5118 99.8259 53.1852 99.4512 52.7823 99.4512C52.3794 99.4512 52.0527 99.8259 52.0527 100.288C52.0527 100.75 52.3794 101.125 52.7823 101.125Z" fill="#383A48"/>
<path d="M52.7823 105.242C53.1852 105.242 53.5118 104.868 53.5118 104.405C53.5118 103.943 53.1852 103.568 52.7823 103.568C52.3794 103.568 52.0527 103.943 52.0527 104.405C52.0527 104.868 52.3794 105.242 52.7823 105.242Z" fill="#383A48"/>
<path d="M52.7823 109.377C53.1852 109.377 53.5118 109.002 53.5118 108.54C53.5118 108.078 53.1852 107.703 52.7823 107.703C52.3794 107.703 52.0527 108.078 52.0527 108.54C52.0527 109.002 52.3794 109.377 52.7823 109.377Z" fill="#383A48"/>
<path d="M52.7823 113.512C53.1852 113.512 53.5118 113.137 53.5118 112.675C53.5118 112.213 53.1852 111.838 52.7823 111.838C52.3794 111.838 52.0527 112.213 52.0527 112.675C52.0527 113.137 52.3794 113.512 52.7823 113.512Z" fill="#383A48"/>
<path d="M52.7823 117.629C53.1852 117.629 53.5118 117.254 53.5118 116.792C53.5118 116.33 53.1852 115.955 52.7823 115.955C52.3794 115.955 52.0527 116.33 52.0527 116.792C52.0527 117.254 52.3794 117.629 52.7823 117.629Z" fill="#383A48"/>
<path d="M52.7823 121.764C53.1852 121.764 53.5118 121.389 53.5118 120.927C53.5118 120.465 53.1852 120.09 52.7823 120.09C52.3794 120.09 52.0527 120.465 52.0527 120.927C52.0527 121.389 52.3794 121.764 52.7823 121.764Z" fill="#383A48"/>
<path d="M52.7823 125.898C53.1852 125.898 53.5118 125.524 53.5118 125.062C53.5118 124.599 53.1852 124.225 52.7823 124.225C52.3794 124.225 52.0527 124.599 52.0527 125.062C52.0527 125.524 52.3794 125.898 52.7823 125.898Z" fill="#383A48"/>
<path d="M49.1944 80.4688C49.5973 80.4688 49.9239 80.0941 49.9239 79.6319C49.9239 79.1696 49.5973 78.7949 49.1944 78.7949C48.7915 78.7949 48.4648 79.1696 48.4648 79.6319C48.4648 80.0941 48.7915 80.4688 49.1944 80.4688Z" fill="#383A48"/>
<path d="M49.1944 84.6035C49.5973 84.6035 49.9239 84.2288 49.9239 83.7666C49.9239 83.3044 49.5973 82.9297 49.1944 82.9297C48.7915 82.9297 48.4648 83.3044 48.4648 83.7666C48.4648 84.2288 48.7915 84.6035 49.1944 84.6035Z" fill="#383A48"/>
<path d="M49.1944 88.7364C49.5973 88.7364 49.9239 88.3617 49.9239 87.8994C49.9239 87.4372 49.5973 87.0625 49.1944 87.0625C48.7915 87.0625 48.4648 87.4372 48.4648 87.8994C48.4648 88.3617 48.7915 88.7364 49.1944 88.7364Z" fill="#383A48"/>
<path d="M49.1944 92.8555C49.5973 92.8555 49.9239 92.4808 49.9239 92.0186C49.9239 91.5564 49.5973 91.1816 49.1944 91.1816C48.7915 91.1816 48.4648 91.5564 48.4648 92.0186C48.4648 92.4808 48.7915 92.8555 49.1944 92.8555Z" fill="#383A48"/>
<path d="M49.1944 105.242C49.5973 105.242 49.9239 104.868 49.9239 104.405C49.9239 103.943 49.5973 103.568 49.1944 103.568C48.7915 103.568 48.4648 103.943 48.4648 104.405C48.4648 104.868 48.7915 105.242 49.1944 105.242Z" fill="#383A48"/>
<path d="M49.1944 109.377C49.5973 109.377 49.9239 109.002 49.9239 108.54C49.9239 108.078 49.5973 107.703 49.1944 107.703C48.7915 107.703 48.4648 108.078 48.4648 108.54C48.4648 109.002 48.7915 109.377 49.1944 109.377Z" fill="#383A48"/>
<path d="M49.1944 113.512C49.5973 113.512 49.9239 113.137 49.9239 112.675C49.9239 112.213 49.5973 111.838 49.1944 111.838C48.7915 111.838 48.4648 112.213 48.4648 112.675C48.4648 113.137 48.7915 113.512 49.1944 113.512Z" fill="#383A48"/>
<path d="M49.1944 117.629C49.5973 117.629 49.9239 117.254 49.9239 116.792C49.9239 116.33 49.5973 115.955 49.1944 115.955C48.7915 115.955 48.4648 116.33 48.4648 116.792C48.4648 117.254 48.7915 117.629 49.1944 117.629Z" fill="#383A48"/>
<path d="M49.1944 121.764C49.5973 121.764 49.9239 121.389 49.9239 120.927C49.9239 120.465 49.5973 120.09 49.1944 120.09C48.7915 120.09 48.4648 120.465 48.4648 120.927C48.4648 121.389 48.7915 121.764 49.1944 121.764Z" fill="#383A48"/>
<path d="M49.1944 125.897C49.5973 125.897 49.9239 125.522 49.9239 125.06C49.9239 124.597 49.5973 124.223 49.1944 124.223C48.7915 124.223 48.4648 124.597 48.4648 125.06C48.4648 125.522 48.7915 125.897 49.1944 125.897Z" fill="#383A48"/>
<path d="M45.5889 105.242C45.9918 105.242 46.3184 104.868 46.3184 104.405C46.3184 103.943 45.9918 103.568 45.5889 103.568C45.186 103.568 44.8594 103.943 44.8594 104.405C44.8594 104.868 45.186 105.242 45.5889 105.242Z" fill="#383A48"/>
<path d="M45.5889 109.377C45.9918 109.377 46.3184 109.002 46.3184 108.54C46.3184 108.078 45.9918 107.703 45.5889 107.703C45.186 107.703 44.8594 108.078 44.8594 108.54C44.8594 109.002 45.186 109.377 45.5889 109.377Z" fill="#383A48"/>
<path d="M45.5889 113.512C45.9918 113.512 46.3184 113.137 46.3184 112.675C46.3184 112.213 45.9918 111.838 45.5889 111.838C45.186 111.838 44.8594 112.213 44.8594 112.675C44.8594 113.137 45.186 113.512 45.5889 113.512Z" fill="#383A48"/>
<path d="M45.5889 117.629C45.9918 117.629 46.3184 117.254 46.3184 116.792C46.3184 116.33 45.9918 115.955 45.5889 115.955C45.186 115.955 44.8594 116.33 44.8594 116.792C44.8594 117.254 45.186 117.629 45.5889 117.629Z" fill="#383A48"/>
<path d="M45.5889 121.764C45.9918 121.764 46.3184 121.389 46.3184 120.927C46.3184 120.465 45.9918 120.09 45.5889 120.09C45.186 120.09 44.8594 120.465 44.8594 120.927C44.8594 121.389 45.186 121.764 45.5889 121.764Z" fill="#383A48"/>
<path d="M45.5889 125.898C45.9918 125.898 46.3184 125.524 46.3184 125.062C46.3184 124.599 45.9918 124.225 45.5889 124.225C45.186 124.225 44.8594 124.599 44.8594 125.062C44.8594 125.524 45.186 125.898 45.5889 125.898Z" fill="#383A48"/>
<path d="M41.9854 109.377C42.3883 109.377 42.7149 109.002 42.7149 108.54C42.7149 108.078 42.3883 107.703 41.9854 107.703C41.5825 107.703 41.2559 108.078 41.2559 108.54C41.2559 109.002 41.5825 109.377 41.9854 109.377Z" fill="#383A48"/>
<path d="M41.9854 113.512C42.3883 113.512 42.7149 113.137 42.7149 112.675C42.7149 112.213 42.3883 111.838 41.9854 111.838C41.5825 111.838 41.2559 112.213 41.2559 112.675C41.2559 113.137 41.5825 113.512 41.9854 113.512Z" fill="#383A48"/>
<path d="M41.9854 117.629C42.3883 117.629 42.7149 117.254 42.7149 116.792C42.7149 116.33 42.3883 115.955 41.9854 115.955C41.5825 115.955 41.2559 116.33 41.2559 116.792C41.2559 117.254 41.5825 117.629 41.9854 117.629Z" fill="#383A48"/>
<path d="M41.9854 121.764C42.3883 121.764 42.7149 121.389 42.7149 120.927C42.7149 120.465 42.3883 120.09 41.9854 120.09C41.5825 120.09 41.2559 120.465 41.2559 120.927C41.2559 121.389 41.5825 121.764 41.9854 121.764Z" fill="#383A48"/>
<path d="M41.9854 125.898C42.3883 125.898 42.7149 125.524 42.7149 125.062C42.7149 124.599 42.3883 124.225 41.9854 124.225C41.5825 124.225 41.2559 124.599 41.2559 125.062C41.2559 125.524 41.5825 125.898 41.9854 125.898Z" fill="#383A48"/>
<path d="M38.3955 117.629C38.7984 117.629 39.1251 117.254 39.1251 116.792C39.1251 116.33 38.7984 115.955 38.3955 115.955C37.9926 115.955 37.666 116.33 37.666 116.792C37.666 117.254 37.9926 117.629 38.3955 117.629Z" fill="#383A48"/>
<path d="M38.3955 121.764C38.7984 121.764 39.1251 121.389 39.1251 120.927C39.1251 120.465 38.7984 120.09 38.3955 120.09C37.9926 120.09 37.666 120.465 37.666 120.927C37.666 121.389 37.9926 121.764 38.3955 121.764Z" fill="#383A48"/>
<path d="M38.3955 125.898C38.7984 125.898 39.1251 125.524 39.1251 125.062C39.1251 124.599 38.7984 124.225 38.3955 124.225C37.9926 124.225 37.666 124.599 37.666 125.062C37.666 125.524 37.9926 125.898 38.3955 125.898Z" fill="#383A48"/>
<path d="M117.724 0.912109H1.36758C0.960484 0.912109 0.640625 1.28016 0.640625 1.7486V115.544C0.640625 116.013 0.960484 116.381 1.36758 116.381C1.77467 116.381 2.09453 116.013 2.09453 115.544C2.09453 107.798 3.69382 100.287 6.86333 93.2269C9.88745 86.4513 14.2782 80.2111 19.9194 74.6903C31.0708 63.749 46.4531 56.3043 63.2603 53.7112C72.4489 52.2892 80.4454 47.8892 87.6713 40.2772C93.894 33.7191 98.5174 25.9064 102.603 19.0137C108.041 9.84579 112.33 2.60181 117.738 2.60181C118.145 2.60181 118.465 2.23376 118.465 1.76533C118.45 1.29689 118.131 0.912109 117.724 0.912109Z" fill="#F4F4F4"/>
<path d="M140.373 52.339C140.377 57.7238 139.346 63.0431 137.355 67.9169C135.365 72.7907 132.463 77.0987 128.857 80.5332C127.197 82.1096 125.718 83.9224 124.456 85.9282C121.579 90.4457 119.918 95.8351 119.679 101.428L119.011 114.089C118.891 117.186 117.73 120.109 115.772 122.24C114.32 123.837 112.498 124.919 110.526 125.358C108.553 125.797 106.512 125.573 104.647 124.713C102.781 123.854 101.171 122.395 100.007 120.511C98.8432 118.627 98.1756 116.398 98.0838 114.089L97.4303 101.545C97.2042 95.9186 95.5536 90.4905 92.6815 85.9282C91.4497 83.9706 90.005 82.2025 88.3829 80.6668C84.7103 77.2112 81.7567 72.854 79.7388 67.9146C77.721 62.9753 76.69 57.5791 76.7214 52.1218C76.8231 31.9616 91.5487 15.4092 109.077 15.7433C126.402 16.0606 140.373 32.3291 140.373 52.339Z" fill="white"/>
<path d="M108.554 126.399C105.676 126.402 102.906 125.13 100.822 122.847C98.7367 120.564 97.4962 117.446 97.3575 114.139L96.704 101.595C96.4865 96.1267 94.8866 90.8502 92.1004 86.4122C90.9069 84.5053 89.5007 82.7869 87.918 81.3012C84.1588 77.7736 81.136 73.3204 79.0725 68.2702C77.0089 63.22 75.9573 57.7014 75.9951 52.1215C76.0532 42.15 79.5531 32.763 85.8558 25.6644C88.8781 22.2452 92.4489 19.5337 96.37 17.6805C100.401 15.7649 104.731 14.8213 109.092 14.9078C115.741 15.0361 122.197 17.5038 127.591 21.9788C132.984 26.4539 137.057 32.7215 139.26 39.9386C141.464 47.1556 141.692 54.9757 139.915 62.3467C138.139 69.7177 134.441 76.2859 129.321 81.1676C127.712 82.7027 126.278 84.4648 125.052 86.4122C122.261 90.8073 120.646 96.0431 120.405 101.478L119.737 114.155C119.664 115.82 119.314 117.453 118.705 118.966C118.115 120.43 117.287 121.751 116.266 122.858C114.187 125.135 111.425 126.403 108.554 126.399ZM108.554 16.5781C100.451 16.5781 92.7685 20.2193 86.8579 26.867C80.8311 33.6483 77.4909 42.6176 77.4328 52.1382C77.3968 57.4684 78.401 62.74 80.3714 67.5646C82.3419 72.3892 85.2285 76.6439 88.8184 80.0151C90.4941 81.5886 91.9833 83.408 93.2477 85.4268C96.1993 90.1224 97.8952 95.7067 98.1272 101.495L98.7807 114.039C98.8368 115.496 99.1428 116.927 99.6811 118.248C100.602 120.521 102.158 122.374 104.101 123.512C106.044 124.649 108.263 125.005 110.403 124.522C112.542 124.039 114.48 122.746 115.906 120.849C117.332 118.952 118.164 116.56 118.27 114.055L118.938 101.378C119.192 95.6226 120.903 90.0781 123.861 85.4268C125.166 83.3748 126.682 81.5127 128.377 79.8815C133.27 75.2149 136.802 68.937 138.499 61.8922C140.196 54.8475 139.976 47.374 137.869 40.4772C135.762 33.5804 131.869 27.5913 126.714 23.3156C121.559 19.0399 115.389 16.6828 109.034 16.5614C108.888 16.5781 108.729 16.5781 108.554 16.5781Z" fill="#383A48"/>
<path d="M108.571 85.8121C120.786 85.8121 130.688 74.423 130.688 60.3738C130.688 46.3247 120.786 34.9355 108.571 34.9355C96.3555 34.9355 86.4531 46.3247 86.4531 60.3738C86.4531 74.423 96.3555 85.8121 108.571 85.8121Z" fill="#F4F4F4"/>
<path d="M108.555 85.9119L99.8418 54.8281H108.57L108.555 85.9119Z" fill="#F4F4F4"/>
<path d="M108.556 86.7474C108.401 86.745 108.251 86.6875 108.127 86.5827C108.002 86.478 107.908 86.3313 107.859 86.1628L99.1455 55.079C99.1112 54.9531 99.1026 54.8199 99.1202 54.6896C99.1378 54.5593 99.1813 54.4353 99.2471 54.3274C99.3123 54.2195 99.3991 54.1313 99.5002 54.0702C99.6014 54.0091 99.7138 53.977 99.828 53.9766H108.556C108.651 53.9752 108.746 53.9968 108.833 54.0399C108.921 54.0831 108.999 54.1469 109.064 54.2272C109.2 54.3823 109.278 54.5918 109.282 54.8118L109.268 85.8956C109.27 86.094 109.209 86.2867 109.097 86.4374C108.985 86.5881 108.829 86.6865 108.658 86.714C108.629 86.7402 108.592 86.7522 108.556 86.7474ZM100.83 55.6636L107.83 80.6175L107.844 55.6636H100.83Z" fill="#383A48"/>
<path d="M108.583 85.9119L117.296 54.8281H108.568L108.583 85.9119Z" fill="#F4F4F4"/>
<path d="M108.584 86.7482C108.545 86.7509 108.506 86.7453 108.468 86.7315C108.299 86.699 108.146 86.5992 108.034 86.4496C107.923 86.3 107.86 86.1101 107.858 85.9131L107.844 54.8293C107.843 54.7197 107.861 54.6111 107.899 54.5104C107.936 54.4097 107.992 54.3192 108.062 54.2447C108.197 54.0888 108.379 53.999 108.57 53.9941H117.298C117.412 53.9945 117.525 54.0266 117.626 54.0876C117.727 54.1487 117.814 54.237 117.879 54.3449C117.945 54.4529 117.988 54.5768 118.006 54.7071C118.023 54.8374 118.015 54.9707 117.98 55.0965L109.267 86.1803C109.224 86.3485 109.133 86.4954 109.01 86.5982C108.886 86.701 108.737 86.7537 108.584 86.7482ZM109.296 55.6644L109.311 80.6183L116.31 55.6644H109.296Z" fill="#383A48"/>
<path d="M125.097 85.5448C125.035 85.4076 124.941 85.2929 124.825 85.2133C124.71 85.1338 124.578 85.0924 124.443 85.0938H92.6829C92.5491 85.0959 92.4181 85.1387 92.3033 85.218C92.1885 85.2972 92.094 85.4099 92.0294 85.5448C91.9668 85.6811 91.9391 85.835 91.9494 85.9887C91.9596 86.1424 92.0075 86.2896 92.0875 86.4133C94.8797 90.8477 96.4802 96.1263 96.6911 101.596L97.3446 114.14C97.4132 115.805 97.7635 117.439 98.3757 118.95C98.4324 119.095 98.5243 119.218 98.6402 119.304C98.7562 119.389 98.8913 119.435 99.0292 119.435H118.039C118.177 119.435 118.312 119.389 118.428 119.304C118.544 119.218 118.636 119.095 118.692 118.95C119.301 117.438 119.652 115.805 119.724 114.14L120.392 101.462C120.624 96.0306 122.24 90.7972 125.039 86.4133C125.119 86.2895 125.166 86.1423 125.177 85.9887C125.187 85.835 125.159 85.6811 125.097 85.5448Z" fill="#383A48"/>
<path d="M108.556 7.67672C108.461 7.67781 108.366 7.65696 108.277 7.61538C108.189 7.57379 108.108 7.51232 108.041 7.43455C107.973 7.35678 107.92 7.26428 107.883 7.16246C107.847 7.06065 107.829 6.95156 107.83 6.84158V1.74725C107.83 1.52575 107.907 1.31333 108.043 1.15672C108.179 1.0001 108.364 0.912109 108.556 0.912109C108.749 0.912109 108.934 1.0001 109.07 1.15672C109.206 1.31333 109.282 1.52575 109.282 1.74725V6.84158C109.282 7.06287 109.205 7.27491 109.069 7.43138C108.933 7.58786 108.749 7.67606 108.556 7.67672Z" fill="#383A48"/>
<path d="M122.671 10.4984C122.587 10.498 122.503 10.4811 122.424 10.4483C122.243 10.3726 122.096 10.2176 122.014 10.0172C121.932 9.81691 121.923 9.58753 121.988 9.3793L123.484 4.58562C123.553 4.38335 123.688 4.22014 123.861 4.13066C124.033 4.04118 124.229 4.03249 124.406 4.10643C124.584 4.18038 124.73 4.33113 124.813 4.52666C124.895 4.72218 124.908 4.94706 124.849 5.15351L123.353 9.94719C123.306 10.111 123.214 10.2529 123.091 10.3521C122.968 10.4513 122.821 10.5026 122.671 10.4984Z" fill="#383A48"/>
<path d="M135.132 18.6687C134.964 18.6638 134.802 18.5997 134.667 18.485C134.521 18.3438 134.429 18.1425 134.41 17.9242C134.391 17.7058 134.447 17.4875 134.566 17.3158L137.383 13.3907C137.443 13.3062 137.517 13.2362 137.601 13.1846C137.684 13.1331 137.776 13.1009 137.87 13.0901C137.965 13.0792 138.06 13.0898 138.151 13.1214C138.242 13.1529 138.326 13.2047 138.399 13.2737C138.473 13.3428 138.534 13.4279 138.579 13.524C138.623 13.6202 138.651 13.7256 138.661 13.8341C138.67 13.9427 138.661 14.0523 138.634 14.1568C138.606 14.2613 138.561 14.3585 138.501 14.4429L135.684 18.3681C135.616 18.4604 135.531 18.535 135.436 18.5869C135.341 18.6387 135.237 18.6666 135.132 18.6687Z" fill="#383A48"/>
<path d="M144.454 31.177C144.327 31.1769 144.202 31.1382 144.093 31.0648C143.983 30.9915 143.892 30.8861 143.829 30.7594C143.732 30.5664 143.705 30.3371 143.754 30.1214C143.803 29.9057 143.924 29.7208 144.091 29.6069L147.896 27.018C148.063 26.905 148.263 26.8732 148.451 26.9296C148.639 26.986 148.799 27.1259 148.898 27.3186C148.996 27.5113 149.024 27.741 148.975 27.9571C148.926 28.1733 148.804 28.3582 148.636 28.4711L144.831 31.06C144.717 31.1373 144.587 31.1777 144.454 31.177Z" fill="#383A48"/>
<path d="M149.537 46.5945C149.355 46.5921 149.181 46.5123 149.048 46.3705C148.915 46.2288 148.832 46.0352 148.815 45.8272C148.799 45.6193 148.851 45.4118 148.96 45.2449C149.069 45.0781 149.228 44.9638 149.406 44.9242L153.748 43.9721C153.843 43.9513 153.94 43.952 154.034 43.9743C154.128 43.9966 154.218 44.04 154.297 44.1021C154.377 44.1641 154.445 44.2436 154.498 44.3359C154.551 44.4282 154.587 44.5317 154.605 44.6402C154.623 44.7488 154.623 44.8604 154.603 44.9687C154.584 45.077 154.546 45.1798 154.492 45.2713C154.438 45.3628 154.369 45.4412 154.289 45.502C154.209 45.5628 154.119 45.6049 154.024 45.6257L149.682 46.5778C149.635 46.5908 149.586 46.5964 149.537 46.5945Z" fill="#383A48"/>
<path d="M94.4262 10.4998C94.2772 10.4984 94.1322 10.4449 94.0103 10.3465C93.8884 10.248 93.7954 10.1093 93.7436 9.94865L92.2478 5.15497C92.2122 5.05108 92.1951 4.94004 92.1975 4.82842C92.1999 4.71679 92.2217 4.60684 92.2616 4.50508C92.3016 4.40332 92.3589 4.3118 92.4301 4.23595C92.5014 4.1601 92.5851 4.10145 92.6764 4.06347C92.7677 4.02549 92.8647 4.00895 92.9616 4.01483C93.0586 4.02071 93.1535 4.0489 93.2408 4.09772C93.3282 4.14653 93.4061 4.21499 93.47 4.29905C93.5339 4.3831 93.5825 4.48104 93.6129 4.58707L95.1087 9.38076C95.1738 9.58899 95.1644 9.81837 95.0828 10.0187C95.0011 10.219 94.8538 10.374 94.6731 10.4497C94.5939 10.4825 94.5104 10.4995 94.4262 10.4998Z" fill="#383A48"/>
<path d="M81.965 18.6687C81.8573 18.6687 81.7509 18.6419 81.6531 18.5899C81.5553 18.538 81.4685 18.4623 81.3986 18.3681L78.5813 14.4429C78.5212 14.3585 78.4762 14.2613 78.4488 14.1568C78.4214 14.0523 78.4121 13.9427 78.4216 13.8341C78.4406 13.6149 78.5346 13.4133 78.6829 13.2738C78.8312 13.1342 79.0216 13.0681 79.2123 13.0901C79.4029 13.112 79.5782 13.2201 79.6995 13.3907L82.5168 17.3158C82.6037 17.4365 82.6589 17.5831 82.6761 17.7385C82.6933 17.8939 82.6717 18.0517 82.6138 18.1935C82.556 18.3353 82.4643 18.4553 82.3494 18.5394C82.2345 18.6236 82.1012 18.6684 81.965 18.6687Z" fill="#383A48"/>
<path d="M72.6412 31.177C72.5128 31.1797 72.3866 31.1391 72.2781 31.0601L68.4733 28.4711C68.3057 28.3582 68.1841 28.1733 68.135 27.9571C68.086 27.741 68.1137 27.5113 68.2119 27.3186C68.3101 27.1259 68.4708 26.986 68.6588 26.9296C68.8467 26.8732 69.0464 26.905 69.2139 27.018L73.0188 29.6069C73.158 29.701 73.2663 29.8452 73.3269 30.0173C73.3875 30.1894 73.397 30.3797 73.3539 30.5586C73.3109 30.7376 73.2177 30.8952 73.0889 31.007C72.96 31.1188 72.8026 31.1785 72.6412 31.177Z" fill="#383A48"/>
<path d="M67.5591 46.5945C67.515 46.5972 67.4709 46.5915 67.4284 46.5778L63.0862 45.6257C62.8956 45.5836 62.7272 45.4561 62.6183 45.2713C62.5094 45.0865 62.4687 44.8595 62.5053 44.6402C62.5419 44.421 62.6527 44.2274 62.8134 44.1021C62.9741 43.9768 63.1715 43.93 63.3621 43.9721L67.7043 44.9242C67.8838 44.9641 68.0438 45.0797 68.1529 45.2483C68.2621 45.4169 68.3125 45.6264 68.2943 45.8355C68.2761 46.0447 68.1906 46.2385 68.0546 46.3789C67.9186 46.5193 67.7419 46.5962 67.5591 46.5945Z" fill="#383A48"/>
<path d="M26.6328 126.308V122.805C26.6342 118.039 28.2679 113.468 31.1748 110.098C34.0816 106.728 38.0238 104.834 42.1347 104.832H55.8496C59.9605 104.834 63.9026 106.728 66.8095 110.098C69.7163 113.468 71.35 118.039 71.3514 122.805V126.308H26.6328Z" fill="white"/>
<path d="M71.3513 127.151H26.6327C26.537 127.152 26.4422 127.131 26.3536 127.089C26.265 127.047 26.1846 126.985 26.1169 126.907C26.0493 126.828 25.9958 126.735 25.9596 126.632C25.9235 126.53 25.9053 126.42 25.9063 126.309V122.805C25.9107 117.817 27.6219 113.034 30.6644 109.507C33.7068 105.979 37.8319 103.995 42.1346 103.99H55.8495C60.1521 103.995 64.2772 105.979 67.3197 109.507C70.3621 113.034 72.0733 117.817 72.0778 122.805V126.309C72.0747 126.531 71.9972 126.743 71.8616 126.9C71.7261 127.058 71.543 127.147 71.3513 127.151ZM27.3591 125.467H70.6249V122.805C70.6216 118.263 69.0639 113.908 66.2936 110.696C63.5234 107.485 59.7671 105.678 55.8495 105.675H42.1346C38.2169 105.678 34.4606 107.485 31.6904 110.696C28.9202 113.908 27.3624 118.263 27.3591 122.805V125.467Z" fill="#383A48"/>
<path d="M48.992 104.832C47.4828 104.832 45.9882 104.488 44.5938 103.818C43.1994 103.149 41.9324 102.167 40.8652 100.93C39.798 99.6929 38.9515 98.2239 38.3741 96.6072C37.7967 94.9905 37.4997 93.2578 37.5 91.508V83.4565C37.4997 81.7067 37.7967 79.974 38.3741 78.3573C38.9515 76.7406 39.798 75.2716 40.8652 74.0343C41.9324 72.797 43.1994 71.8156 44.5938 71.1462C45.9882 70.4768 47.4828 70.1324 48.992 70.1328C50.5013 70.1324 51.9958 70.4768 53.3902 71.1462C54.7846 71.8156 56.0516 72.797 57.1188 74.0343C58.186 75.2716 59.0325 76.7406 59.6099 78.3573C60.1873 79.974 60.4844 81.7067 60.484 83.4565V91.508C60.4844 93.2578 60.1873 94.9905 59.6099 96.6072C59.0325 98.2239 58.186 99.6929 57.1188 100.93C56.0516 102.167 54.7846 103.149 53.3902 103.818C51.9958 104.488 50.5013 104.832 48.992 104.832Z" fill="#F4F4F4"/>
<path d="M48.9919 105.674C45.752 105.672 42.6456 104.178 40.3547 101.522C38.0638 98.8662 36.7757 95.2646 36.7734 91.5084V83.4569C36.7734 79.6999 38.0607 76.0967 40.3521 73.4401C42.6435 70.7835 45.7513 69.291 48.9919 69.291C52.2324 69.291 55.3402 70.7835 57.6316 73.4401C59.923 76.0967 61.2103 79.6999 61.2103 83.4569V91.5084C61.208 95.2646 59.92 98.8662 57.6291 101.522C55.3382 104.178 52.2317 105.672 48.9919 105.674ZM48.9919 70.9754C46.137 70.9768 43.3994 72.2923 41.3808 74.6327C39.3621 76.9731 38.2275 80.1471 38.2263 83.4569V91.5084C38.2263 94.8187 39.3605 97.9934 41.3795 100.334C43.3984 102.675 46.1367 103.99 48.9919 103.99C51.8471 103.99 54.5854 102.675 56.6043 100.334C58.6232 97.9934 59.7575 94.8187 59.7575 91.5084V83.4569C59.7536 80.148 58.6182 76.9759 56.6 74.6361C54.5819 72.2963 51.8459 70.9799 48.9919 70.9754Z" fill="#383A48"/>
<path d="M13.3518 41.5011L35.9338 15.5084L25.8486 3.89062L3.25198 29.8834C0.460279 33.0947 0.460279 38.2899 3.25198 41.5011C6.04367 44.6956 10.5601 44.6956 13.3518 41.5011Z" fill="white"/>
<path d="M8.29466 44.7449C6.18993 44.7449 4.21674 43.8034 2.72588 42.0884C-0.343523 38.5577 -0.343523 32.8245 2.72588 29.2938L25.3226 3.30102C25.6149 2.96476 26.068 2.96476 26.3603 3.30102L36.4601 14.9188C36.5917 15.0701 36.6794 15.2886 36.6794 15.5072C36.6794 15.7258 36.6063 15.9443 36.4601 16.0957L13.8634 42.0884C12.3726 43.8034 10.3994 44.7449 8.29466 44.7449ZM25.8487 5.08319L3.77825 30.4707C1.27888 33.3457 1.27888 38.0197 3.77825 40.8947C4.9914 42.2902 6.59918 43.0468 8.30928 43.0468C10.0194 43.0468 11.6272 42.2734 12.8403 40.8947L34.9108 15.5072L25.8487 5.08319Z" fill="#383A48"/>
<path d="M30.8886 17.9114C34.8279 17.9114 38.0213 14.238 38.0213 9.70666C38.0213 5.17532 34.8279 1.50195 30.8886 1.50195C26.9493 1.50195 23.7559 5.17532 23.7559 9.70666C23.7559 14.238 26.9493 17.9114 30.8886 17.9114Z" fill="#FB4E4E"/>
<path d="M30.8909 18.7509C26.5499 18.7509 23.0273 14.6989 23.0273 9.70551C23.0273 4.71207 26.5499 0.660156 30.8909 0.660156C35.2319 0.660156 38.7544 4.71207 38.7544 9.70551C38.7544 14.6989 35.2319 18.7509 30.8909 18.7509ZM30.8909 2.32464C27.3537 2.32464 24.489 5.63678 24.489 9.6887C24.489 13.7406 27.3684 17.0528 30.8909 17.0528C34.4134 17.0528 37.2928 13.7406 37.2928 9.6887C37.2928 5.63678 34.428 2.32464 30.8909 2.32464Z" fill="#383A48"/>
<path d="M140.288 108.557L140.719 108.354C141.483 107.997 142.103 107.284 142.413 106.393L142.59 105.897C142.767 105.426 143.165 105.107 143.619 105.107C144.073 105.107 144.472 105.426 144.649 105.909L144.826 106.406C145.136 107.284 145.756 107.997 146.53 108.354L146.962 108.557C147.372 108.761 147.648 109.219 147.648 109.741C147.648 110.263 147.372 110.721 146.951 110.925L146.519 111.129C145.756 111.485 145.136 112.198 144.826 113.089L144.649 113.586C144.483 114.069 144.073 114.388 143.619 114.388C143.165 114.388 142.767 114.069 142.59 113.586L142.413 113.089C142.103 112.211 141.483 111.498 140.708 111.142L140.276 110.938C139.856 110.747 139.579 110.276 139.579 109.754C139.579 109.232 139.867 108.761 140.288 108.557Z" fill="#6B6B6B"/>
<path d="M207.343 4.99805H188.82C181.767 4.99805 176.047 11.5804 176.047 19.696V26.2117C176.047 33.3107 180.421 39.2432 186.242 40.6096L180.087 52.4246L194.44 40.9096H207.343C214.396 40.9096 220.117 34.3272 220.117 26.2117V19.696C220.117 11.5804 214.396 4.99805 207.343 4.99805Z" fill="#F4F4F4"/>
<path d="M180.088 53.259C179.914 53.259 179.726 53.1757 179.595 53.0424C179.349 52.7757 179.291 52.3425 179.465 52.0092L185.113 41.1607C179.378 39.2777 175.309 33.1785 175.309 26.2129V19.6971C175.309 11.1317 181.362 4.16602 188.806 4.16602H207.329C214.773 4.16602 220.827 11.1317 220.827 19.6971V26.2129C220.827 34.7783 214.773 41.744 207.329 41.744H194.657L180.493 53.109C180.377 53.209 180.233 53.259 180.088 53.259ZM188.821 5.83244C182.173 5.83244 176.771 12.0482 176.771 19.6971V26.2129C176.771 32.7786 180.812 38.4944 186.388 39.7943C186.619 39.8443 186.808 40.0276 186.909 40.2775C187.01 40.5275 186.981 40.8108 186.866 41.0441L182.448 49.5262L194.034 40.2442C194.15 40.1442 194.295 40.0942 194.454 40.0942H207.358C214.005 40.0942 219.407 33.8784 219.407 26.2295V19.7138C219.407 12.0649 214.005 5.84911 207.358 5.84911L188.821 5.83244Z" fill="#383A48"/>
<path d="M189.385 20.1465C187.922 20.1465 186.734 21.513 186.734 23.1961C186.734 24.8791 187.922 26.2456 189.385 26.2456C190.847 26.2456 192.035 24.8791 192.035 23.1961C192.035 21.513 190.847 20.1465 189.385 20.1465Z" fill="#6B6B6B"/>
<path d="M197.785 20.1465C196.322 20.1465 195.135 21.513 195.135 23.1961C195.135 24.8791 196.322 26.2456 197.785 26.2456C199.248 26.2456 200.435 24.8791 200.435 23.1961C200.435 21.513 199.248 20.1465 197.785 20.1465Z" fill="#6B6B6B"/>
<path d="M206.185 20.1465C204.723 20.1465 203.535 21.513 203.535 23.1961C203.535 24.8791 204.723 26.2456 206.185 26.2456C207.648 26.2456 208.836 24.8791 208.836 23.1961C208.836 21.513 207.648 20.1465 206.185 20.1465Z" fill="#6B6B6B"/>
<path d="M46.3712 34.7321L45.9628 34.5395C45.2404 34.2023 44.654 33.5279 44.3608 32.685L44.1933 32.2154C44.0258 31.7698 43.6488 31.4688 43.2195 31.4688C42.7902 31.4688 42.4133 31.7698 42.2458 32.2274L42.0782 32.697C41.785 33.5279 41.1987 34.2023 40.4657 34.5395L40.0574 34.7321C39.67 34.9248 39.4082 35.3583 39.4082 35.852C39.4082 36.3458 39.67 36.7793 40.0679 36.972L40.4762 37.1646C41.1987 37.5018 41.785 38.1762 42.0782 39.0191L42.2458 39.4887C42.4028 39.9463 42.7902 40.2474 43.2195 40.2474C43.6488 40.2474 44.0258 39.9463 44.1933 39.4887L44.3608 39.0191C44.654 38.1882 45.2404 37.5138 45.9733 37.1767L46.3817 36.984C46.7796 36.8034 47.0413 36.3578 47.0413 35.8641C47.0413 35.3704 46.7691 34.9248 46.3712 34.7321Z" fill="#6B6B6B"/>
<path d="M18.0577 99.8477H16.5352V105.609H18.0577V99.8477Z" fill="#383A48"/>
<path d="M19.806 101.861H14.7969V103.612H19.806V101.861Z" fill="#383A48"/>
<path d="M158.314 8.17578H156.791V13.9367H158.314V8.17578Z" fill="#383A48"/>
<path d="M160.064 10.1895H155.055V11.9405H160.064V10.1895Z" fill="#383A48"/>
<path d="M28.468 86.8238C28.3951 86.8238 28.3076 86.8071 28.2347 86.7736C24.9538 85.5196 22.329 83.346 20.4334 80.3197C18.8585 77.8118 17.8232 74.7019 17.4295 71.3579C17.1962 69.3682 17.1962 67.3619 17.4003 65.5561C16.9483 65.5895 16.4817 65.5728 16.0296 65.5227C13.9152 65.2886 12.0342 64.2018 10.5906 62.3626C8.88447 60.189 7.80541 57.0123 7.39711 52.9326C7.35337 52.4812 7.63043 52.0632 8.03872 52.013C8.43243 51.9629 8.79698 52.2805 8.84073 52.7487C9.75939 61.8109 13.8277 63.5999 16.1609 63.8507C16.6712 63.9008 17.167 63.9008 17.6336 63.8507C18.0857 61.5266 18.8877 59.7042 19.9376 58.9016C20.6667 58.3331 21.4978 58.2997 22.2415 58.7846C23.2914 59.4868 23.7289 60.5736 23.4081 61.7273C23.1019 62.8308 22.1103 63.8841 20.6958 64.6198C20.1126 64.9208 19.5001 65.1548 18.8731 65.3053C18.6398 67.0275 18.596 69.0506 18.8439 71.1238C19.3251 75.1533 21.2354 82.3429 28.6722 85.1852C29.0513 85.3357 29.2554 85.8039 29.1388 86.2386C29.0659 86.6064 28.7742 86.8238 28.468 86.8238ZM21.2062 60.1221C21.075 60.1221 20.9437 60.1723 20.7979 60.2893C20.2001 60.7575 19.6459 61.9112 19.2668 63.4996C20.7542 62.9812 21.8478 62.0282 22.0811 61.2257C22.1249 61.0585 22.2415 60.6739 21.5708 60.2392C21.4249 60.1556 21.3083 60.1221 21.2062 60.1221Z" fill="#383A48"/>
<path d="M207.344 85.8208C205.635 85.8208 204.418 84.7696 204.056 82.9009C203.578 80.4483 204.65 76.7609 207.141 73.474C206.649 72.6064 206.069 71.7221 205.389 70.8211C202.999 67.7011 198.596 63.5299 191.109 61.4109C190.718 61.2941 190.486 60.8436 190.573 60.4098C190.674 59.9593 191.065 59.6923 191.442 59.7925C199.726 62.1283 205.201 67.1838 208.169 72.2227C210.038 70.1704 212.5 68.3685 215.527 67.2673C215.903 67.1338 216.309 67.3674 216.439 67.8179C216.555 68.2517 216.352 68.7188 215.961 68.869C213.282 69.8367 210.849 71.5219 208.966 73.6909C210.356 76.5107 210.979 79.247 210.892 81.4327C210.791 83.8854 209.734 85.5038 208.097 85.7541C207.822 85.8041 207.576 85.8208 207.344 85.8208ZM207.923 74.9923C207.807 75.1592 207.692 75.326 207.576 75.4929C205.939 77.9789 205.114 80.7319 205.461 82.5172C205.707 83.7852 206.518 84.3025 207.88 84.0856C209.14 83.8853 209.386 82.2669 209.429 81.3159C209.502 79.7809 209.096 77.5284 207.923 74.9923Z" fill="#383A48"/>
<path d="M89.7372 125.582C89.4682 125.391 89.279 125.047 89.2627 124.662C89.254 124.095 89.6715 123.668 90.1666 123.716C92.3765 123.883 100.204 124.208 109.293 124.564C114.85 124.796 121.156 125.045 126.9 125.292C127.404 125.323 127.817 125.779 127.842 126.357C127.85 126.923 127.473 127.356 126.96 127.342C121.216 127.095 114.919 126.829 109.378 126.609C100.273 126.241 92.4207 125.922 90.195 125.743C90.024 125.739 89.8638 125.672 89.7372 125.582Z" fill="#383A48"/>
</svg>
