<svg width="216" height="142" viewBox="0 0 216 142" fill="none" xmlns="http://www.w3.org/2000/svg">
<path d="M52.911 135.992H18.3017C8.81176 135.992 1.11387 127.146 1.11387 116.241V54.1934C1.11387 54.1934 0.0230767 82.6654 26.2177 89.2909C39.6189 92.6753 30.9081 126.824 52.911 135.992Z" fill="#F4F4F4"/>
<path d="M52.9094 136.888H18.3C8.38939 136.888 0.333098 127.63 0.333098 116.242V55.376C0.317515 54.6598 0.333098 54.23 0.333098 54.1584C0.34868 53.6749 0.707084 53.2988 1.12782 53.2988C1.54855 53.3167 1.89137 53.7107 1.89137 54.1942V55.1432C1.93812 57.2921 2.28094 62.9148 4.58719 68.9674C6.28572 73.4441 8.71663 77.2762 11.7864 80.3741C15.6354 84.242 20.5595 86.9459 26.3875 88.4143C29.317 89.1485 31.5142 91.3331 33.1348 95.0577C34.5529 98.3168 35.4255 102.453 36.3605 106.84C38.6823 117.8 41.3158 130.209 53.1743 135.151C53.5327 135.295 53.7352 135.724 53.6729 136.154C53.6106 136.584 53.2833 136.888 52.9094 136.888ZM1.89137 65.7979V116.242C1.89137 126.646 9.24644 135.098 18.3 135.098H49.2474C45.2738 132.626 42.1728 129.027 39.8354 124.156C37.2798 118.82 35.9709 112.678 34.8333 107.27C33.0413 98.8361 31.4986 91.548 26.0447 90.1692C19.9362 88.6292 14.7783 85.7641 10.7268 81.6813C7.47 78.4043 4.91443 74.3394 3.12241 69.612C2.63935 68.3048 2.2342 67.0334 1.89137 65.7979Z" fill="#F4F4F4"/>
<path d="M200.768 33.5266C208.545 33.5266 214.85 26.2619 214.85 17.3004C214.85 8.33894 208.545 1.07422 200.768 1.07422C192.99 1.07422 186.686 8.33894 186.686 17.3004C186.686 26.2619 192.99 33.5266 200.768 33.5266Z" fill="white"/>
<path d="M200.769 34.1546C192.7 34.1546 186.143 26.5991 186.143 17.3019C186.143 8.00475 192.7 0.449219 200.769 0.449219C208.837 0.449219 215.394 8.00475 215.394 17.3019C215.394 26.5991 208.837 34.1546 200.769 34.1546ZM200.769 1.70221C193.309 1.70221 187.23 8.70642 187.23 17.3019C187.23 25.8974 193.309 32.9017 200.769 32.9017C208.228 32.9017 214.307 25.8974 214.307 17.3019C214.307 8.70642 208.228 1.70221 200.769 1.70221Z" fill="white"/>
<path d="M195.72 115.651C193.779 109.53 191.328 104.405 188.432 100.423C184.772 95.3902 180.395 92.1455 175.414 90.7998C175.175 90.7445 174.937 90.7998 174.746 90.9841C174.555 91.15 174.443 91.4266 174.443 91.7031V135.967C174.443 136.483 174.793 136.888 175.239 136.888H198.919C199.142 136.888 199.349 136.778 199.508 136.593C199.651 136.409 199.731 136.151 199.715 135.893C199.699 135.801 198.999 126.011 195.72 115.651Z" fill="#383A48"/>
<path d="M200.79 16.3594H98.7119C98.4145 16.3594 98.1484 16.5573 98.0075 16.8632C97.8666 17.169 97.8979 17.5289 98.0857 17.7988C104.723 27.9644 111.298 35.6651 118.201 41.3687C124.243 46.3526 129.785 49.1774 134.669 51.6783C142.683 55.7626 149.587 59.2891 156.24 70.7502C161.859 80.448 168.496 85.252 174.93 89.894C185.825 97.7927 196.125 105.241 200.023 136.116C200.086 136.566 200.415 136.89 200.79 136.89C200.806 136.89 200.822 136.89 200.853 136.89C201.26 136.854 201.573 136.458 201.573 135.99V17.259C201.573 16.7552 201.229 16.3594 200.79 16.3594Z" fill="#F4F4F4"/>
<path d="M200.789 16.3574H186.826C186.387 16.3574 186.043 16.7533 186.043 17.257C186.043 26.613 192.664 34.2238 200.804 34.2238C201.243 34.2238 201.587 33.828 201.587 33.3242V17.257C201.571 16.7533 201.227 16.3574 200.789 16.3574Z" fill="#FB4E4E"/>
<path d="M89.3432 73.6133V94.4054H71.2126V115.198H53.0664V135.99H153.69V73.6133H89.3432Z" fill="white"/>
<path d="M153.691 136.888H53.0673C52.6304 136.888 52.2871 136.492 52.2871 135.989V115.197C52.2871 114.693 52.6304 114.297 53.0673 114.297H70.4333V94.4044C70.4333 93.9008 70.7766 93.5051 71.2135 93.5051H88.5639V73.6122C88.5639 73.1086 88.9072 72.7129 89.3441 72.7129H153.691C154.127 72.7129 154.471 73.1086 154.471 73.6122V135.989C154.471 136.492 154.127 136.888 153.691 136.888ZM53.8474 135.089H152.91V74.5115H90.1242V94.4044C90.1242 94.908 89.7809 95.3037 89.3441 95.3037H71.9936V115.197C71.9936 115.7 71.6503 116.096 71.2135 116.096H53.8474V135.089Z" fill="#383A48"/>
<path d="M143.191 73.6133V94.4054H125.06V115.198H106.914V135.99H177.642V73.6133H143.191Z" fill="white"/>
<path d="M177.641 136.888H106.913C106.476 136.888 106.133 136.492 106.133 135.989V115.197C106.133 114.693 106.476 114.297 106.913 114.297H124.279V94.4044C124.279 93.9008 124.622 93.5051 125.059 93.5051H142.41V73.6122C142.41 73.1086 142.753 72.7129 143.19 72.7129H177.641C178.078 72.7129 178.421 73.1086 178.421 73.6122V135.989C178.421 136.492 178.078 136.888 177.641 136.888ZM107.693 135.089H176.861V74.5115H143.97V94.4044C143.97 94.908 143.627 95.3037 143.19 95.3037H125.839V115.197C125.839 115.7 125.496 116.096 125.059 116.096H107.693V135.089Z" fill="#383A48"/>
<path d="M174.649 75.1756C175.08 75.1756 175.429 74.7729 175.429 74.2763C175.429 73.7796 175.08 73.377 174.649 73.377C174.218 73.377 173.869 73.7796 173.869 74.2763C173.869 74.7729 174.218 75.1756 174.649 75.1756Z" fill="#383A48"/>
<path d="M174.649 83.0897C175.08 83.0897 175.429 82.687 175.429 82.1903C175.429 81.6937 175.08 81.291 174.649 81.291C174.218 81.291 173.869 81.6937 173.869 82.1903C173.869 82.687 174.218 83.0897 174.649 83.0897Z" fill="#383A48"/>
<path d="M174.649 91.0037C175.08 91.0037 175.429 90.6011 175.429 90.1044C175.429 89.6077 175.08 89.2051 174.649 89.2051C174.218 89.2051 173.869 89.6077 173.869 90.1044C173.869 90.6011 174.218 91.0037 174.649 91.0037Z" fill="#383A48"/>
<path d="M174.649 98.9197C175.08 98.9197 175.429 98.5171 175.429 98.0204C175.429 97.5237 175.08 97.1211 174.649 97.1211C174.218 97.1211 173.869 97.5237 173.869 98.0204C173.869 98.5171 174.218 98.9197 174.649 98.9197Z" fill="#383A48"/>
<path d="M174.649 106.834C175.08 106.834 175.429 106.431 175.429 105.934C175.429 105.438 175.08 105.035 174.649 105.035C174.218 105.035 173.869 105.438 173.869 105.934C173.869 106.431 174.218 106.834 174.649 106.834Z" fill="#383A48"/>
<path d="M174.649 114.748C175.08 114.748 175.429 114.345 175.429 113.849C175.429 113.352 175.08 112.949 174.649 112.949C174.218 112.949 173.869 113.352 173.869 113.849C173.869 114.345 174.218 114.748 174.649 114.748Z" fill="#383A48"/>
<path d="M174.649 122.662C175.08 122.662 175.429 122.259 175.429 121.763C175.429 121.266 175.08 120.863 174.649 120.863C174.218 120.863 173.869 121.266 173.869 121.763C173.869 122.259 174.218 122.662 174.649 122.662Z" fill="#383A48"/>
<path d="M174.649 130.574C175.08 130.574 175.429 130.171 175.429 129.675C175.429 129.178 175.08 128.775 174.649 128.775C174.218 128.775 173.869 129.178 173.869 129.675C173.869 130.171 174.218 130.574 174.649 130.574Z" fill="#383A48"/>
<path d="M174.649 138.49C175.08 138.49 175.429 138.087 175.429 137.591C175.429 137.094 175.08 136.691 174.649 136.691C174.218 136.691 173.869 137.094 173.869 137.591C173.869 138.087 174.218 138.49 174.649 138.49Z" fill="#383A48"/>
<path d="M167.782 75.1756C168.213 75.1756 168.562 74.7729 168.562 74.2763C168.562 73.7796 168.213 73.377 167.782 73.377C167.351 73.377 167.002 73.7796 167.002 74.2763C167.002 74.7729 167.351 75.1756 167.782 75.1756Z" fill="#383A48"/>
<path d="M167.782 83.0897C168.213 83.0897 168.562 82.687 168.562 82.1903C168.562 81.6937 168.213 81.291 167.782 81.291C167.351 81.291 167.002 81.6937 167.002 82.1903C167.002 82.687 167.351 83.0897 167.782 83.0897Z" fill="#383A48"/>
<path d="M167.782 91.0037C168.213 91.0037 168.562 90.6011 168.562 90.1044C168.562 89.6077 168.213 89.2051 167.782 89.2051C167.351 89.2051 167.002 89.6077 167.002 90.1044C167.002 90.6011 167.351 91.0037 167.782 91.0037Z" fill="#383A48"/>
<path d="M167.782 98.9197C168.213 98.9197 168.562 98.5171 168.562 98.0204C168.562 97.5237 168.213 97.1211 167.782 97.1211C167.351 97.1211 167.002 97.5237 167.002 98.0204C167.002 98.5171 167.351 98.9197 167.782 98.9197Z" fill="#383A48"/>
<path d="M167.782 106.834C168.213 106.834 168.562 106.431 168.562 105.934C168.562 105.438 168.213 105.035 167.782 105.035C167.351 105.035 167.002 105.438 167.002 105.934C167.002 106.431 167.351 106.834 167.782 106.834Z" fill="#383A48"/>
<path d="M167.782 114.748C168.213 114.748 168.562 114.345 168.562 113.849C168.562 113.352 168.213 112.949 167.782 112.949C167.351 112.949 167.002 113.352 167.002 113.849C167.002 114.345 167.351 114.748 167.782 114.748Z" fill="#383A48"/>
<path d="M167.782 122.662C168.213 122.662 168.562 122.259 168.562 121.763C168.562 121.266 168.213 120.863 167.782 120.863C167.351 120.863 167.002 121.266 167.002 121.763C167.002 122.259 167.351 122.662 167.782 122.662Z" fill="#383A48"/>
<path d="M167.782 130.574C168.213 130.574 168.562 130.171 168.562 129.675C168.562 129.178 168.213 128.775 167.782 128.775C167.351 128.775 167.002 129.178 167.002 129.675C167.002 130.171 167.351 130.574 167.782 130.574Z" fill="#383A48"/>
<path d="M167.782 138.49C168.213 138.49 168.562 138.087 168.562 137.591C168.562 137.094 168.213 136.691 167.782 136.691C167.351 136.691 167.002 137.094 167.002 137.591C167.002 138.087 167.351 138.49 167.782 138.49Z" fill="#383A48"/>
<path d="M160.917 75.1756C161.348 75.1756 161.697 74.7729 161.697 74.2763C161.697 73.7796 161.348 73.377 160.917 73.377C160.486 73.377 160.137 73.7796 160.137 74.2763C160.137 74.7729 160.486 75.1756 160.917 75.1756Z" fill="#383A48"/>
<path d="M160.917 83.0897C161.348 83.0897 161.697 82.687 161.697 82.1903C161.697 81.6937 161.348 81.291 160.917 81.291C160.486 81.291 160.137 81.6937 160.137 82.1903C160.137 82.687 160.486 83.0897 160.917 83.0897Z" fill="#383A48"/>
<path d="M160.917 91.0037C161.348 91.0037 161.697 90.6011 161.697 90.1044C161.697 89.6077 161.348 89.2051 160.917 89.2051C160.486 89.2051 160.137 89.6077 160.137 90.1044C160.137 90.6011 160.486 91.0037 160.917 91.0037Z" fill="#383A48"/>
<path d="M160.917 98.9197C161.348 98.9197 161.697 98.5171 161.697 98.0204C161.697 97.5237 161.348 97.1211 160.917 97.1211C160.486 97.1211 160.137 97.5237 160.137 98.0204C160.137 98.5171 160.486 98.9197 160.917 98.9197Z" fill="#383A48"/>
<path d="M160.917 106.834C161.348 106.834 161.697 106.431 161.697 105.934C161.697 105.438 161.348 105.035 160.917 105.035C160.486 105.035 160.137 105.438 160.137 105.934C160.137 106.431 160.486 106.834 160.917 106.834Z" fill="#383A48"/>
<path d="M160.917 114.748C161.348 114.748 161.697 114.345 161.697 113.849C161.697 113.352 161.348 112.949 160.917 112.949C160.486 112.949 160.137 113.352 160.137 113.849C160.137 114.345 160.486 114.748 160.917 114.748Z" fill="#383A48"/>
<path d="M160.917 122.662C161.348 122.662 161.697 122.259 161.697 121.763C161.697 121.266 161.348 120.863 160.917 120.863C160.486 120.863 160.137 121.266 160.137 121.763C160.137 122.259 160.486 122.662 160.917 122.662Z" fill="#383A48"/>
<path d="M160.917 130.574C161.348 130.574 161.697 130.171 161.697 129.675C161.697 129.178 161.348 128.775 160.917 128.775C160.486 128.775 160.137 129.178 160.137 129.675C160.137 130.171 160.486 130.574 160.917 130.574Z" fill="#383A48"/>
<path d="M160.917 138.49C161.348 138.49 161.697 138.087 161.697 137.591C161.697 137.094 161.348 136.691 160.917 136.691C160.486 136.691 160.137 137.094 160.137 137.591C160.137 138.087 160.486 138.49 160.917 138.49Z" fill="#383A48"/>
<path d="M154.054 75.1756C154.484 75.1756 154.834 74.7729 154.834 74.2763C154.834 73.7796 154.484 73.377 154.054 73.377C153.623 73.377 153.273 73.7796 153.273 74.2763C153.273 74.7729 153.623 75.1756 154.054 75.1756Z" fill="#383A48"/>
<path d="M154.054 83.0897C154.484 83.0897 154.834 82.687 154.834 82.1903C154.834 81.6937 154.484 81.291 154.054 81.291C153.623 81.291 153.273 81.6937 153.273 82.1903C153.273 82.687 153.623 83.0897 154.054 83.0897Z" fill="#383A48"/>
<path d="M154.054 91.0037C154.484 91.0037 154.834 90.6011 154.834 90.1044C154.834 89.6077 154.484 89.2051 154.054 89.2051C153.623 89.2051 153.273 89.6077 153.273 90.1044C153.273 90.6011 153.623 91.0037 154.054 91.0037Z" fill="#383A48"/>
<path d="M154.054 98.9197C154.484 98.9197 154.834 98.5171 154.834 98.0204C154.834 97.5237 154.484 97.1211 154.054 97.1211C153.623 97.1211 153.273 97.5237 153.273 98.0204C153.273 98.5171 153.623 98.9197 154.054 98.9197Z" fill="#383A48"/>
<path d="M154.054 106.834C154.484 106.834 154.834 106.431 154.834 105.934C154.834 105.438 154.484 105.035 154.054 105.035C153.623 105.035 153.273 105.438 153.273 105.934C153.273 106.431 153.623 106.834 154.054 106.834Z" fill="#383A48"/>
<path d="M154.054 114.75C154.484 114.75 154.834 114.347 154.834 113.85C154.834 113.354 154.484 112.951 154.054 112.951C153.623 112.951 153.273 113.354 153.273 113.85C153.273 114.347 153.623 114.75 154.054 114.75Z" fill="#383A48"/>
<path d="M154.054 122.662C154.484 122.662 154.834 122.259 154.834 121.763C154.834 121.266 154.484 120.863 154.054 120.863C153.623 120.863 153.273 121.266 153.273 121.763C153.273 122.259 153.623 122.662 154.054 122.662Z" fill="#383A48"/>
<path d="M154.054 130.574C154.484 130.574 154.834 130.171 154.834 129.675C154.834 129.178 154.484 128.775 154.054 128.775C153.623 128.775 153.273 129.178 153.273 129.675C153.273 130.171 153.623 130.574 154.054 130.574Z" fill="#383A48"/>
<path d="M154.054 138.49C154.484 138.49 154.834 138.087 154.834 137.591C154.834 137.094 154.484 136.691 154.054 136.691C153.623 136.691 153.273 137.094 153.273 137.591C153.273 138.087 153.623 138.49 154.054 138.49Z" fill="#383A48"/>
<path d="M147.184 75.1756C147.615 75.1756 147.965 74.7729 147.965 74.2763C147.965 73.7796 147.615 73.377 147.184 73.377C146.754 73.377 146.404 73.7796 146.404 74.2763C146.404 74.7729 146.754 75.1756 147.184 75.1756Z" fill="#383A48"/>
<path d="M147.184 83.0897C147.615 83.0897 147.965 82.687 147.965 82.1903C147.965 81.6937 147.615 81.291 147.184 81.291C146.754 81.291 146.404 81.6937 146.404 82.1903C146.404 82.687 146.754 83.0897 147.184 83.0897Z" fill="#383A48"/>
<path d="M147.184 91.0037C147.615 91.0037 147.965 90.6011 147.965 90.1044C147.965 89.6077 147.615 89.2051 147.184 89.2051C146.754 89.2051 146.404 89.6077 146.404 90.1044C146.404 90.6011 146.754 91.0037 147.184 91.0037Z" fill="#383A48"/>
<path d="M147.184 98.9197C147.615 98.9197 147.965 98.5171 147.965 98.0204C147.965 97.5237 147.615 97.1211 147.184 97.1211C146.754 97.1211 146.404 97.5237 146.404 98.0204C146.404 98.5171 146.754 98.9197 147.184 98.9197Z" fill="#383A48"/>
<path d="M147.184 106.834C147.615 106.834 147.965 106.431 147.965 105.934C147.965 105.438 147.615 105.035 147.184 105.035C146.754 105.035 146.404 105.438 146.404 105.934C146.404 106.431 146.754 106.834 147.184 106.834Z" fill="#383A48"/>
<path d="M147.184 114.748C147.615 114.748 147.965 114.345 147.965 113.849C147.965 113.352 147.615 112.949 147.184 112.949C146.754 112.949 146.404 113.352 146.404 113.849C146.404 114.345 146.754 114.748 147.184 114.748Z" fill="#383A48"/>
<path d="M147.184 122.662C147.615 122.662 147.965 122.259 147.965 121.763C147.965 121.266 147.615 120.863 147.184 120.863C146.754 120.863 146.404 121.266 146.404 121.763C146.404 122.259 146.754 122.662 147.184 122.662Z" fill="#383A48"/>
<path d="M147.184 130.574C147.615 130.574 147.965 130.171 147.965 129.675C147.965 129.178 147.615 128.775 147.184 128.775C146.754 128.775 146.404 129.178 146.404 129.675C146.404 130.171 146.754 130.574 147.184 130.574Z" fill="#383A48"/>
<path d="M147.184 138.49C147.615 138.49 147.965 138.087 147.965 137.591C147.965 137.094 147.615 136.691 147.184 136.691C146.754 136.691 146.404 137.094 146.404 137.591C146.404 138.087 146.754 138.49 147.184 138.49Z" fill="#383A48"/>
<path d="M140.319 75.1756C140.75 75.1756 141.099 74.7729 141.099 74.2763C141.099 73.7796 140.75 73.377 140.319 73.377C139.888 73.377 139.539 73.7796 139.539 74.2763C139.539 74.7729 139.888 75.1756 140.319 75.1756Z" fill="#383A48"/>
<path d="M140.319 83.0897C140.75 83.0897 141.099 82.687 141.099 82.1903C141.099 81.6937 140.75 81.291 140.319 81.291C139.888 81.291 139.539 81.6937 139.539 82.1903C139.539 82.687 139.888 83.0897 140.319 83.0897Z" fill="#383A48"/>
<path d="M140.319 91.0037C140.75 91.0037 141.099 90.6011 141.099 90.1044C141.099 89.6077 140.75 89.2051 140.319 89.2051C139.888 89.2051 139.539 89.6077 139.539 90.1044C139.539 90.6011 139.888 91.0037 140.319 91.0037Z" fill="#383A48"/>
<path d="M140.319 98.9197C140.75 98.9197 141.099 98.5171 141.099 98.0204C141.099 97.5237 140.75 97.1211 140.319 97.1211C139.888 97.1211 139.539 97.5237 139.539 98.0204C139.539 98.5171 139.888 98.9197 140.319 98.9197Z" fill="#383A48"/>
<path d="M140.319 106.834C140.75 106.834 141.099 106.431 141.099 105.934C141.099 105.438 140.75 105.035 140.319 105.035C139.888 105.035 139.539 105.438 139.539 105.934C139.539 106.431 139.888 106.834 140.319 106.834Z" fill="#383A48"/>
<path d="M140.319 114.748C140.75 114.748 141.099 114.345 141.099 113.849C141.099 113.352 140.75 112.949 140.319 112.949C139.888 112.949 139.539 113.352 139.539 113.849C139.539 114.345 139.888 114.748 140.319 114.748Z" fill="#383A48"/>
<path d="M140.319 122.662C140.75 122.662 141.099 122.259 141.099 121.763C141.099 121.266 140.75 120.863 140.319 120.863C139.888 120.863 139.539 121.266 139.539 121.763C139.539 122.259 139.888 122.662 140.319 122.662Z" fill="#383A48"/>
<path d="M140.319 130.574C140.75 130.574 141.099 130.171 141.099 129.675C141.099 129.178 140.75 128.775 140.319 128.775C139.888 128.775 139.539 129.178 139.539 129.675C139.539 130.171 139.888 130.574 140.319 130.574Z" fill="#383A48"/>
<path d="M140.319 138.49C140.75 138.49 141.099 138.087 141.099 137.591C141.099 137.094 140.75 136.691 140.319 136.691C139.888 136.691 139.539 137.094 139.539 137.591C139.539 138.087 139.888 138.49 140.319 138.49Z" fill="#383A48"/>
<path d="M133.454 75.1756C133.885 75.1756 134.234 74.7729 134.234 74.2763C134.234 73.7796 133.885 73.377 133.454 73.377C133.023 73.377 132.674 73.7796 132.674 74.2763C132.674 74.7729 133.023 75.1756 133.454 75.1756Z" fill="#383A48"/>
<path d="M133.454 83.0897C133.885 83.0897 134.234 82.687 134.234 82.1903C134.234 81.6937 133.885 81.291 133.454 81.291C133.023 81.291 132.674 81.6937 132.674 82.1903C132.674 82.687 133.023 83.0897 133.454 83.0897Z" fill="#383A48"/>
<path d="M133.454 91.0037C133.885 91.0037 134.234 90.6011 134.234 90.1044C134.234 89.6077 133.885 89.2051 133.454 89.2051C133.023 89.2051 132.674 89.6077 132.674 90.1044C132.674 90.6011 133.023 91.0037 133.454 91.0037Z" fill="#383A48"/>
<path d="M133.454 98.9197C133.885 98.9197 134.234 98.5171 134.234 98.0204C134.234 97.5237 133.885 97.1211 133.454 97.1211C133.023 97.1211 132.674 97.5237 132.674 98.0204C132.674 98.5171 133.023 98.9197 133.454 98.9197Z" fill="#383A48"/>
<path d="M133.454 106.834C133.885 106.834 134.234 106.431 134.234 105.934C134.234 105.438 133.885 105.035 133.454 105.035C133.023 105.035 132.674 105.438 132.674 105.934C132.674 106.431 133.023 106.834 133.454 106.834Z" fill="#383A48"/>
<path d="M133.454 114.748C133.885 114.748 134.234 114.345 134.234 113.849C134.234 113.352 133.885 112.949 133.454 112.949C133.023 112.949 132.674 113.352 132.674 113.849C132.674 114.345 133.023 114.748 133.454 114.748Z" fill="#383A48"/>
<path d="M133.454 122.662C133.885 122.662 134.234 122.259 134.234 121.763C134.234 121.266 133.885 120.863 133.454 120.863C133.023 120.863 132.674 121.266 132.674 121.763C132.674 122.259 133.023 122.662 133.454 122.662Z" fill="#383A48"/>
<path d="M133.454 130.574C133.885 130.574 134.234 130.171 134.234 129.675C134.234 129.178 133.885 128.775 133.454 128.775C133.023 128.775 132.674 129.178 132.674 129.675C132.674 130.171 133.023 130.574 133.454 130.574Z" fill="#383A48"/>
<path d="M133.454 138.49C133.885 138.49 134.234 138.087 134.234 137.591C134.234 137.094 133.885 136.691 133.454 136.691C133.023 136.691 132.674 137.094 132.674 137.591C132.674 138.087 133.023 138.49 133.454 138.49Z" fill="#383A48"/>
<path d="M126.589 75.1756C127.02 75.1756 127.369 74.7729 127.369 74.2763C127.369 73.7796 127.02 73.377 126.589 73.377C126.158 73.377 125.809 73.7796 125.809 74.2763C125.809 74.7729 126.158 75.1756 126.589 75.1756Z" fill="#383A48"/>
<path d="M126.589 83.0897C127.02 83.0897 127.369 82.687 127.369 82.1903C127.369 81.6937 127.02 81.291 126.589 81.291C126.158 81.291 125.809 81.6937 125.809 82.1903C125.809 82.687 126.158 83.0897 126.589 83.0897Z" fill="#383A48"/>
<path d="M126.589 91.0037C127.02 91.0037 127.369 90.6011 127.369 90.1044C127.369 89.6077 127.02 89.2051 126.589 89.2051C126.158 89.2051 125.809 89.6077 125.809 90.1044C125.809 90.6011 126.158 91.0037 126.589 91.0037Z" fill="#383A48"/>
<path d="M126.589 98.9197C127.02 98.9197 127.369 98.5171 127.369 98.0204C127.369 97.5237 127.02 97.1211 126.589 97.1211C126.158 97.1211 125.809 97.5237 125.809 98.0204C125.809 98.5171 126.158 98.9197 126.589 98.9197Z" fill="#383A48"/>
<path d="M126.589 106.834C127.02 106.834 127.369 106.431 127.369 105.934C127.369 105.438 127.02 105.035 126.589 105.035C126.158 105.035 125.809 105.438 125.809 105.934C125.809 106.431 126.158 106.834 126.589 106.834Z" fill="#383A48"/>
<path d="M126.589 114.748C127.02 114.748 127.369 114.345 127.369 113.849C127.369 113.352 127.02 112.949 126.589 112.949C126.158 112.949 125.809 113.352 125.809 113.849C125.809 114.345 126.158 114.748 126.589 114.748Z" fill="#383A48"/>
<path d="M126.589 122.662C127.02 122.662 127.369 122.259 127.369 121.763C127.369 121.266 127.02 120.863 126.589 120.863C126.158 120.863 125.809 121.266 125.809 121.763C125.809 122.259 126.158 122.662 126.589 122.662Z" fill="#383A48"/>
<path d="M126.589 130.574C127.02 130.574 127.369 130.171 127.369 129.675C127.369 129.178 127.02 128.775 126.589 128.775C126.158 128.775 125.809 129.178 125.809 129.675C125.809 130.171 126.158 130.574 126.589 130.574Z" fill="#383A48"/>
<path d="M126.589 138.49C127.02 138.49 127.369 138.087 127.369 137.591C127.369 137.094 127.02 136.691 126.589 136.691C126.158 136.691 125.809 137.094 125.809 137.591C125.809 138.087 126.158 138.49 126.589 138.49Z" fill="#383A48"/>
<path d="M119.725 75.1756C120.156 75.1756 120.506 74.7729 120.506 74.2763C120.506 73.7796 120.156 73.377 119.725 73.377C119.295 73.377 118.945 73.7796 118.945 74.2763C118.945 74.7729 119.295 75.1756 119.725 75.1756Z" fill="#383A48"/>
<path d="M119.725 83.0897C120.156 83.0897 120.506 82.687 120.506 82.1903C120.506 81.6937 120.156 81.291 119.725 81.291C119.295 81.291 118.945 81.6937 118.945 82.1903C118.945 82.687 119.295 83.0897 119.725 83.0897Z" fill="#383A48"/>
<path d="M119.725 91.0037C120.156 91.0037 120.506 90.6011 120.506 90.1044C120.506 89.6077 120.156 89.2051 119.725 89.2051C119.295 89.2051 118.945 89.6077 118.945 90.1044C118.945 90.6011 119.295 91.0037 119.725 91.0037Z" fill="#383A48"/>
<path d="M119.725 98.9197C120.156 98.9197 120.506 98.5171 120.506 98.0204C120.506 97.5237 120.156 97.1211 119.725 97.1211C119.295 97.1211 118.945 97.5237 118.945 98.0204C118.945 98.5171 119.295 98.9197 119.725 98.9197Z" fill="#383A48"/>
<path d="M119.725 106.834C120.156 106.834 120.506 106.431 120.506 105.934C120.506 105.438 120.156 105.035 119.725 105.035C119.295 105.035 118.945 105.438 118.945 105.934C118.945 106.431 119.295 106.834 119.725 106.834Z" fill="#383A48"/>
<path d="M119.725 114.748C120.156 114.748 120.506 114.345 120.506 113.849C120.506 113.352 120.156 112.949 119.725 112.949C119.295 112.949 118.945 113.352 118.945 113.849C118.945 114.345 119.295 114.748 119.725 114.748Z" fill="#383A48"/>
<path d="M119.725 122.662C120.156 122.662 120.506 122.259 120.506 121.763C120.506 121.266 120.156 120.863 119.725 120.863C119.295 120.863 118.945 121.266 118.945 121.763C118.945 122.259 119.295 122.662 119.725 122.662Z" fill="#383A48"/>
<path d="M119.725 130.574C120.156 130.574 120.506 130.171 120.506 129.675C120.506 129.178 120.156 128.775 119.725 128.775C119.295 128.775 118.945 129.178 118.945 129.675C118.945 130.171 119.295 130.574 119.725 130.574Z" fill="#383A48"/>
<path d="M119.725 138.49C120.156 138.49 120.506 138.087 120.506 137.591C120.506 137.094 120.156 136.691 119.725 136.691C119.295 136.691 118.945 137.094 118.945 137.591C118.945 138.087 119.295 138.49 119.725 138.49Z" fill="#383A48"/>
<path d="M112.86 75.1756C113.291 75.1756 113.64 74.7729 113.64 74.2763C113.64 73.7796 113.291 73.377 112.86 73.377C112.429 73.377 112.08 73.7796 112.08 74.2763C112.08 74.7729 112.429 75.1756 112.86 75.1756Z" fill="#383A48"/>
<path d="M112.86 83.0897C113.291 83.0897 113.64 82.687 113.64 82.1903C113.64 81.6937 113.291 81.291 112.86 81.291C112.429 81.291 112.08 81.6937 112.08 82.1903C112.08 82.687 112.429 83.0897 112.86 83.0897Z" fill="#383A48"/>
<path d="M112.86 91.0037C113.291 91.0037 113.64 90.6011 113.64 90.1044C113.64 89.6077 113.291 89.2051 112.86 89.2051C112.429 89.2051 112.08 89.6077 112.08 90.1044C112.08 90.6011 112.429 91.0037 112.86 91.0037Z" fill="#383A48"/>
<path d="M112.86 98.9197C113.291 98.9197 113.64 98.5171 113.64 98.0204C113.64 97.5237 113.291 97.1211 112.86 97.1211C112.429 97.1211 112.08 97.5237 112.08 98.0204C112.08 98.5171 112.429 98.9197 112.86 98.9197Z" fill="#383A48"/>
<path d="M112.86 106.834C113.291 106.834 113.64 106.431 113.64 105.934C113.64 105.438 113.291 105.035 112.86 105.035C112.429 105.035 112.08 105.438 112.08 105.934C112.08 106.431 112.429 106.834 112.86 106.834Z" fill="#383A48"/>
<path d="M112.86 114.748C113.291 114.748 113.64 114.345 113.64 113.849C113.64 113.352 113.291 112.949 112.86 112.949C112.429 112.949 112.08 113.352 112.08 113.849C112.08 114.345 112.429 114.748 112.86 114.748Z" fill="#383A48"/>
<path d="M112.86 122.662C113.291 122.662 113.64 122.259 113.64 121.763C113.64 121.266 113.291 120.863 112.86 120.863C112.429 120.863 112.08 121.266 112.08 121.763C112.08 122.259 112.429 122.662 112.86 122.662Z" fill="#383A48"/>
<path d="M112.86 130.574C113.291 130.574 113.64 130.171 113.64 129.675C113.64 129.178 113.291 128.775 112.86 128.775C112.429 128.775 112.08 129.178 112.08 129.675C112.08 130.171 112.429 130.574 112.86 130.574Z" fill="#383A48"/>
<path d="M112.86 138.49C113.291 138.49 113.64 138.087 113.64 137.591C113.64 137.094 113.291 136.691 112.86 136.691C112.429 136.691 112.08 137.094 112.08 137.591C112.08 138.087 112.429 138.49 112.86 138.49Z" fill="#383A48"/>
<path d="M105.993 75.1756C106.424 75.1756 106.773 74.7729 106.773 74.2763C106.773 73.7796 106.424 73.377 105.993 73.377C105.562 73.377 105.213 73.7796 105.213 74.2763C105.213 74.7729 105.562 75.1756 105.993 75.1756Z" fill="#383A48"/>
<path d="M105.993 83.0897C106.424 83.0897 106.773 82.687 106.773 82.1903C106.773 81.6937 106.424 81.291 105.993 81.291C105.562 81.291 105.213 81.6937 105.213 82.1903C105.213 82.687 105.562 83.0897 105.993 83.0897Z" fill="#383A48"/>
<path d="M105.993 91.0037C106.424 91.0037 106.773 90.6011 106.773 90.1044C106.773 89.6077 106.424 89.2051 105.993 89.2051C105.562 89.2051 105.213 89.6077 105.213 90.1044C105.213 90.6011 105.562 91.0037 105.993 91.0037Z" fill="#383A48"/>
<path d="M105.993 98.9197C106.424 98.9197 106.773 98.5171 106.773 98.0204C106.773 97.5237 106.424 97.1211 105.993 97.1211C105.562 97.1211 105.213 97.5237 105.213 98.0204C105.213 98.5171 105.562 98.9197 105.993 98.9197Z" fill="#383A48"/>
<path d="M105.993 106.834C106.424 106.834 106.773 106.431 106.773 105.934C106.773 105.438 106.424 105.035 105.993 105.035C105.562 105.035 105.213 105.438 105.213 105.934C105.213 106.431 105.562 106.834 105.993 106.834Z" fill="#383A48"/>
<path d="M105.993 114.748C106.424 114.748 106.773 114.345 106.773 113.849C106.773 113.352 106.424 112.949 105.993 112.949C105.562 112.949 105.213 113.352 105.213 113.849C105.213 114.345 105.562 114.748 105.993 114.748Z" fill="#383A48"/>
<path d="M105.993 122.662C106.424 122.662 106.773 122.259 106.773 121.763C106.773 121.266 106.424 120.863 105.993 120.863C105.562 120.863 105.213 121.266 105.213 121.763C105.213 122.259 105.562 122.662 105.993 122.662Z" fill="#383A48"/>
<path d="M105.993 130.574C106.424 130.574 106.773 130.171 106.773 129.675C106.773 129.178 106.424 128.775 105.993 128.775C105.562 128.775 105.213 129.178 105.213 129.675C105.213 130.171 105.562 130.574 105.993 130.574Z" fill="#383A48"/>
<path d="M105.993 138.49C106.424 138.49 106.773 138.087 106.773 137.591C106.773 137.094 106.424 136.691 105.993 136.691C105.562 136.691 105.213 137.094 105.213 137.591C105.213 138.087 105.562 138.49 105.993 138.49Z" fill="#383A48"/>
<path d="M125.056 95.3025H89.3407C88.9038 95.3025 88.5605 94.9068 88.5605 94.4032C88.5605 93.8996 88.9038 93.5039 89.3407 93.5039H125.056C125.493 93.5039 125.836 93.8996 125.836 94.4032C125.836 94.9068 125.493 95.3025 125.056 95.3025Z" fill="#383A48"/>
<path d="M106.911 116.095H71.2118C70.7749 116.095 70.4316 115.7 70.4316 115.196C70.4316 114.693 70.7749 114.297 71.2118 114.297H106.911C107.348 114.297 107.691 114.693 107.691 115.196C107.691 115.7 107.348 116.095 106.911 116.095Z" fill="#383A48"/>
<path d="M160.511 34.3741C160.082 34.3741 159.744 33.9852 159.744 33.4902V30.1846C159.744 29.6897 160.082 29.3008 160.511 29.3008C160.941 29.3008 161.278 29.6897 161.278 30.1846V33.4902C161.278 33.9852 160.941 34.3741 160.511 34.3741Z" fill="white"/>
<path d="M160.511 46.2882C160.082 46.2882 159.744 45.8993 159.744 45.4044V42.0811C159.744 41.5862 160.082 41.1973 160.511 41.1973C160.941 41.1973 161.278 41.5862 161.278 42.0811V45.4044C161.278 45.8993 160.941 46.2882 160.511 46.2882Z" fill="white"/>
<path d="M156.784 38.67H153.916C153.486 38.67 153.148 38.2811 153.148 37.7862C153.148 37.2912 153.486 36.9023 153.916 36.9023H156.784C157.214 36.9023 157.551 37.2912 157.551 37.7862C157.551 38.2811 157.214 38.67 156.784 38.67Z" fill="white"/>
<path d="M167.126 38.67H164.242C163.812 38.67 163.475 38.2811 163.475 37.7862C163.475 37.2912 163.812 36.9023 164.242 36.9023H167.126C167.555 36.9023 167.893 37.2912 167.893 37.7862C167.893 38.2811 167.555 38.67 167.126 38.67Z" fill="white"/>
<path d="M157.874 35.6466C157.675 35.6466 157.475 35.5582 157.337 35.3814L155.312 33.0304C155.021 32.6769 155.021 32.1289 155.312 31.7753C155.619 31.4395 156.095 31.4395 156.402 31.7753L158.427 34.1264C158.718 34.4799 158.718 35.0279 158.427 35.3814C158.258 35.5582 158.074 35.6466 157.874 35.6466Z" fill="white"/>
<path d="M165.192 44.0602C164.993 44.0602 164.793 43.9719 164.655 43.7951L162.615 41.444C162.308 41.0905 162.308 40.5425 162.615 40.189C162.922 39.8354 163.397 39.8354 163.704 40.189L165.729 42.5577C166.036 42.9112 166.036 43.4592 165.729 43.8128C165.591 43.9719 165.392 44.0602 165.192 44.0602Z" fill="white"/>
<path d="M155.849 44.0602C155.65 44.0602 155.466 43.9719 155.312 43.7951C155.005 43.4592 155.005 42.8936 155.312 42.54L157.337 40.189C157.629 39.8354 158.12 39.8354 158.426 40.189C158.733 40.5248 158.733 41.0905 158.426 41.444L156.386 43.7951C156.248 43.9719 156.049 44.0602 155.849 44.0602Z" fill="white"/>
<path d="M163.152 35.6461C162.952 35.6461 162.753 35.5577 162.615 35.3809C162.308 35.0274 162.308 34.4794 162.615 34.1258L164.655 31.7925C164.962 31.439 165.438 31.439 165.744 31.7925C166.051 32.146 166.051 32.694 165.744 33.0476L163.689 35.3809C163.551 35.5577 163.351 35.6461 163.152 35.6461Z" fill="white"/>
<path d="M28.2644 124.485C28.0611 124.485 27.8578 124.395 27.717 124.214C27.4042 123.854 27.4042 123.295 27.717 122.934L51.411 95.6338C51.7238 95.2731 52.2087 95.2731 52.5215 95.6338C52.8343 95.9944 52.8343 96.5534 52.5215 96.914L28.8274 124.232C28.671 124.395 28.4677 124.485 28.2644 124.485Z" fill="#383A48"/>
<path d="M121.632 73.0716C121.492 72.8384 121.258 72.7129 121.009 72.7129H89.1256C88.923 72.7129 88.7204 72.8026 88.5802 72.9819C88.4399 73.1434 88.3464 73.3765 88.3464 73.6097V93.447H78.5446C78.3108 93.447 78.0771 93.5726 77.9212 93.7878L72.5762 101.733C72.3113 102.128 72.3736 102.684 72.7164 102.989L83.5935 112.71C83.7338 112.836 83.9052 112.89 84.0766 112.89C84.1078 112.89 84.1389 112.89 84.1701 112.89C84.3727 112.854 84.5597 112.746 84.6844 112.549L102.87 85.5193L108.106 94.8281C108.246 95.0792 108.496 95.2406 108.76 95.2406H115.82C116.162 95.2406 116.474 94.9716 116.568 94.5949L121.741 73.8608C121.835 73.5918 121.788 73.3048 121.632 73.0716Z" fill="#383A48"/>
<path d="M71.3203 57.2249L131.303 16.7109L112.094 93.6605L101.109 75.5505L82.2276 103.632L71.3359 93.8941L90.1389 65.9386L71.3203 57.2249Z" fill="#F4F4F4"/>
<path d="M82.2277 104.531C82.0561 104.531 81.8845 104.459 81.744 104.351L70.8523 94.6136C70.509 94.3082 70.4466 93.7512 70.7119 93.356L88.8907 66.3347L71.024 58.0702C70.7431 57.9444 70.5558 57.639 70.5402 57.2976C70.5246 56.9563 70.6651 56.6329 70.9303 56.4532L130.913 15.9392C131.194 15.7596 131.537 15.7775 131.787 16.0111C132.036 16.2446 132.145 16.6219 132.052 16.9633L112.843 93.9129C112.765 94.2543 112.515 94.4878 112.219 94.5597C111.922 94.6136 111.626 94.4699 111.454 94.1824L101.078 77.0785L82.8519 104.19C82.7271 104.369 82.5398 104.495 82.337 104.531C82.2902 104.531 82.259 104.531 82.2277 104.531ZM72.4283 93.7332L82.0873 102.375L100.5 75.0124C100.656 74.7788 100.89 74.653 101.14 74.671C101.39 74.671 101.624 74.8147 101.764 75.0483L111.813 91.6132L130.023 18.6342L73.0993 57.082L90.4511 65.1129C90.6852 65.2207 90.8568 65.4363 90.9192 65.7058C90.9817 65.9753 90.9349 66.2628 90.7788 66.4964L72.4283 93.7332Z" fill="#383A48"/>
<path d="M32.5157 89.3345C49.8534 89.3345 63.9083 73.1397 63.9083 53.1624C63.9083 33.185 49.8534 16.9902 32.5157 16.9902C15.178 16.9902 1.12305 33.185 1.12305 53.1624C1.12305 73.1397 15.178 89.3345 32.5157 89.3345Z" fill="white"/>
<path d="M32.513 90.2398C14.7693 90.2398 0.335938 73.609 0.335938 53.1639C0.335938 32.7187 14.7693 16.0879 32.513 16.0879C50.2567 16.0879 64.6901 32.7187 64.6901 53.1639C64.6901 73.609 50.2567 90.2398 32.513 90.2398ZM32.513 17.8956C15.6322 17.8956 1.90478 33.713 1.90478 53.1639C1.90478 72.6147 15.6322 88.4321 32.513 88.4321C49.3938 88.4321 63.1212 72.6147 63.1212 53.1639C63.1212 33.713 49.3938 17.8956 32.513 17.8956Z" fill="#383A48"/>
<path d="M16.9355 71.1879V68.7656C16.9355 61.8783 21.7676 56.3105 27.7449 56.3105H37.2992C43.2765 56.3105 48.1085 61.8783 48.1085 68.7656V71.1879H16.9355Z" fill="#383A48"/>
<path d="M48.1078 72.0914H16.9348C16.4955 72.0914 16.1504 71.6937 16.1504 71.1875V68.7652C16.1504 61.4078 21.359 55.4062 27.7442 55.4062H37.2985C43.6837 55.4062 48.8922 61.4078 48.8922 68.7652V71.1875C48.8922 71.6756 48.5471 72.0914 48.1078 72.0914ZM17.7192 70.2837H47.3234V68.7652C47.3234 62.4021 42.8208 57.214 37.2985 57.214H27.7442C22.2218 57.214 17.7192 62.4021 17.7192 68.7652V70.2837Z" fill="#383A48"/>
<path d="M32.5109 56.3086C28.0868 56.3086 24.4941 52.1689 24.4941 47.0712V41.4854C24.4941 36.3877 28.0868 32.248 32.5109 32.248C36.9351 32.248 40.5277 36.3877 40.5277 41.4854V47.0712C40.5277 52.1689 36.9351 56.3086 32.5109 56.3086Z" fill="#F4F4F4"/>
<path d="M32.5122 57.2139C27.6644 57.2139 23.7109 52.6585 23.7109 47.0727V41.4869C23.7109 35.9011 27.6644 31.3457 32.5122 31.3457C37.3599 31.3457 41.3134 35.9011 41.3134 41.4869V47.0727C41.3134 52.6585 37.3599 57.2139 32.5122 57.2139ZM32.5122 33.1534C28.5273 33.1534 25.2798 36.8953 25.2798 41.4869V47.0727C25.2798 51.6643 28.5273 55.4062 32.5122 55.4062C36.4971 55.4062 39.7446 51.6643 39.7446 47.0727V41.4869C39.7446 36.8953 36.4971 33.1534 32.5122 33.1534Z" fill="#383A48"/>
<path d="M21.7035 99.6777H20.1387V105.61H21.7035V99.6777Z" fill="#383A48"/>
<path d="M23.5038 101.752H18.3555V103.555H23.5038V101.752Z" fill="#383A48"/>
<path d="M83.9516 22.291H82.3867V28.2232H83.9516V22.291Z" fill="#383A48"/>
<path d="M85.7518 24.3652H80.6035V26.1683H85.7518V24.3652Z" fill="#383A48"/>
<path d="M182.156 53.3008H180.52V59.5026H182.156V53.3008Z" fill="#383A48"/>
<path d="M184.037 55.4707H178.654V57.3558H184.037V55.4707Z" fill="#383A48"/>
</svg>
